<svg width="30" height="30" viewBox="0 0 30 30" fill="none" xmlns="http://www.w3.org/2000/svg">
<path d="M4 13.375C3.17157 13.375 2.5 14.0466 2.5 14.875C2.5 15.7034 3.17157 16.375 4 16.375V13.375ZM27.0607 15.9357C27.6464 15.3499 27.6464 14.4001 27.0607 13.8143L17.5147 4.2684C16.9289 3.68261 15.9792 3.68261 15.3934 4.2684C14.8076 4.85419 14.8076 5.80393 15.3934 6.38972L23.8787 14.875L15.3934 23.3603C14.8076 23.9461 14.8076 24.8958 15.3934 25.4816C15.9792 26.0674 16.9289 26.0674 17.5147 25.4816L27.0607 15.9357ZM4 16.375H26V13.375H4V16.375Z" fill="#6B5000"/>
</svg>
