<svg width="88" height="88" viewBox="0 0 88 88" fill="none" xmlns="http://www.w3.org/2000/svg">
<g clip-path="url(#clip0_2054_56666)">
<path d="M9.64455 51.0885L31.4094 34.8381L24.568 59.8694C24.3927 60.5107 23.6582 60.8128 23.0825 60.4804L9.74422 52.7796C9.11327 52.4153 9.06076 51.5244 9.64455 51.0885Z" fill="#BBBBBB"/>
<path d="M54.266 76.8489L57.4568 49.8748L39.1997 68.3153C38.732 68.7878 38.8377 69.5749 39.4134 69.9073L52.7516 77.6081C53.3826 77.9724 54.1804 77.5724 54.266 76.8489Z" fill="#BBBBBB"/>
<path d="M68.1385 36.0977L65.3072 8.61629C65.2364 7.92913 64.5144 7.51225 63.8839 7.79452L38.681 19.0777C38.4453 19.1833 38.2587 19.3748 38.1593 19.6132L21.9352 58.5388C21.7391 59.0094 21.9228 59.5524 22.3643 59.8073L41.8827 71.0763C42.332 71.3357 42.9046 71.2142 43.2099 70.7947L67.9497 36.7984C68.0969 36.5961 68.1641 36.3465 68.1385 36.0977Z" fill="#1E1E1E"/>
<path d="M45.1845 29.6515C43.504 32.5621 44.5013 36.2839 47.4119 37.9644C50.3226 39.6449 54.0444 38.6476 55.7248 35.737C57.4053 32.8263 56.408 29.1045 53.4974 27.4241C50.5868 25.7436 46.865 26.7409 45.1845 29.6515Z" fill="#FFB500"/>
<path fill-rule="evenodd" clip-rule="evenodd" d="M33.4482 66.2096L45.112 46.0073C45.3921 45.5222 45.2259 44.9019 44.7408 44.6218L42.9841 43.6075C42.499 43.3275 41.8786 43.4937 41.5986 43.9788L29.9348 64.1811L33.4482 66.2096Z" fill="#E8E8E8"/>
<path d="M21.7977 64.1675L37.4237 73.1892C38.1728 73.6217 38.0714 74.7333 37.2563 75.0232L23.5522 79.8959C22.9465 80.1113 22.2958 79.7161 22.2077 79.0793L20.2859 65.1849C20.1703 64.3488 21.0668 63.7455 21.7977 64.1675Z" fill="#FFB500"/>
</g>
<defs>
<clipPath id="clip0_2054_56666">
<rect width="87.1111" height="87.1111" fill="white" transform="translate(0.444336 0.222656)"/>
</clipPath>
</defs>
</svg>
