<svg width="89" height="88" viewBox="0 0 89 88" fill="none" xmlns="http://www.w3.org/2000/svg">
<path d="M15.3271 7.83986C15.3271 7.35876 15.7172 6.96875 16.1983 6.96875L73.6916 6.96875C74.1727 6.96875 74.5627 7.35876 74.5627 7.83986V13.0665C74.5627 13.5476 74.1727 13.9376 73.6916 13.9376L16.1983 13.9376C15.7172 13.9376 15.3271 13.5476 15.3271 13.0665L15.3271 7.83986Z" fill="#FFB500"/>
<path fill-rule="evenodd" clip-rule="evenodd" d="M66.2772 14.8106C66.2772 14.3295 65.8872 13.9395 65.4061 13.9395L23.5928 13.9395C23.1117 13.9395 22.7217 14.3295 22.7217 14.8106L22.7217 32.6786C22.7217 32.947 22.8454 33.2004 23.057 33.3655L43.9637 49.6727C44.2786 49.9183 44.7203 49.9183 45.0352 49.6727L65.9419 33.3655C66.1535 33.2004 66.2772 32.947 66.2772 32.6786V14.8106Z" fill="#FFF5D4"/>
<path fill-rule="evenodd" clip-rule="evenodd" d="M22.7218 72.7383C22.7218 73.2194 23.1118 73.6094 23.5929 73.6094L65.4062 73.6094C65.8873 73.6094 66.2773 73.2194 66.2773 72.7383L66.2773 54.8702C66.2773 54.6018 66.1536 54.3484 65.942 54.1834L45.0353 37.8762C44.7204 37.6305 44.2787 37.6305 43.9638 37.8762L23.0571 54.1834C22.8455 54.3484 22.7218 54.6018 22.7218 54.8702L22.7218 72.7383Z" fill="#FFF5D4"/>
<path d="M58.5873 29.6172L30.4109 29.6172C29.5897 29.6172 29.2247 30.6494 29.8632 31.1657L39.5598 39.0057C39.7149 39.131 39.9082 39.1994 40.1075 39.1994H48.8907C49.0901 39.1994 49.2834 39.131 49.4384 39.0057L59.135 31.1657C59.7736 30.6494 59.4085 29.6172 58.5873 29.6172Z" fill="#FFB500"/>
<path d="M74.5625 79.2695C74.5625 79.7506 74.1725 80.1406 73.6914 80.1406L16.1981 80.1406C15.7169 80.1406 15.3269 79.7506 15.3269 79.2695L15.3269 74.0428C15.3269 73.5617 15.717 73.1717 16.1981 73.1717L73.6914 73.1717C74.1725 73.1717 74.5625 73.5617 74.5625 74.0428L74.5625 79.2695Z" fill="#FFB500"/>
<path d="M27.9492 67.9456L27.9492 59.718C27.9492 59.4309 28.0907 59.1623 28.3273 58.9998L34.1076 55.0318C34.2527 54.9322 34.4246 54.8789 34.6006 54.8789L54.4001 54.8789C54.5761 54.8789 54.748 54.9322 54.8931 55.0318L60.6733 58.9998C60.91 59.1623 61.0514 59.4309 61.0514 59.718V67.9456C61.0514 68.4267 60.6614 68.8167 60.1803 68.8167H28.8203C28.3392 68.8167 27.9492 68.4267 27.9492 67.9456Z" fill="#FFB500"/>
</svg>
