<svg width="453" height="228" viewBox="0 0 453 228" fill="none" xmlns="http://www.w3.org/2000/svg">
<path d="M43.795 227.967L67.5448 174.425H20.0452L43.795 227.967Z" fill="#FFE28A"/>
<path d="M114.608 222.641L132.064 166.73L84.8771 172.175L114.608 222.641Z" fill="#FFD454"/>
<path d="M185.502 208.978L195.325 151.235L149.29 162.94L185.502 208.978Z" fill="#FFEBB0"/>
<path d="M252.036 188.652L255.112 130.159L210.74 147.113L252.036 188.652Z" fill="#FFEBB0"/>
<path d="M314.8 159.931L312.173 101.417L269.661 122.605L314.8 159.931Z" fill="#FFE28A"/>
<path d="M375.652 119.887L363.396 62.6106L324.967 90.5293L375.652 119.887Z" fill="#FFCC33"/>
<path d="M433.328 73.4815L411.209 19.2452L378.277 53.4752L433.328 73.4815Z" fill="#FFE28A"/>
<path d="M-17.582 171.264C-17.582 171.264 108.775 183.607 235.923 134.483C363.071 85.3589 427.059 0.741182 427.059 0.741182" stroke="#E8AE00" stroke-width="7.8354"/>
</svg>
