<svg width="200" height="80" viewBox="0 0 200 80" fill="none" xmlns="http://www.w3.org/2000/svg">
<rect x="1.5" y="1.5" width="197" height="77" rx="8.5" fill="#FDFDFD" stroke="#0091EA" stroke-width="3"/>
<path fill-rule="evenodd" clip-rule="evenodd" d="M50.7598 57.1157L50.7437 57.1187L50.6399 57.1698L50.6107 57.1757L50.5902 57.1698L50.4864 57.1187C50.4708 57.1138 50.4591 57.1162 50.4513 57.126L50.4455 57.1406L50.4206 57.7664L50.4279 57.7956L50.4425 57.8146L50.5946 57.9228L50.6165 57.9287L50.6341 57.9228L50.7861 57.8146L50.8037 57.7912L50.8095 57.7664L50.7847 57.1421C50.7808 57.1265 50.7725 57.1177 50.7598 57.1157ZM51.1473 56.9505L51.1283 56.9535L50.8578 57.0894L50.8432 57.1041L50.8388 57.1201L50.8651 57.7488L50.8724 57.7664L50.8841 57.7766L51.178 57.9126C51.1965 57.9175 51.2106 57.9136 51.2204 57.9009L51.2262 57.8804L51.1765 56.9827C51.1717 56.9651 51.1619 56.9544 51.1473 56.9505ZM50.1019 56.9535C50.0954 56.9495 50.0877 56.9483 50.0804 56.9499C50.073 56.9515 50.0666 56.956 50.0624 56.9622L50.0536 56.9827L50.0039 57.8804C50.0049 57.898 50.0132 57.9097 50.0288 57.9155L50.0507 57.9126L50.3446 57.7766L50.3592 57.7649L50.365 57.7488L50.3899 57.1201L50.3855 57.1026L50.3709 57.088L50.1019 56.9535Z" fill="#0091EA"/>
<path fill-rule="evenodd" clip-rule="evenodd" d="M51.6883 27.0399C51.175 26.6406 50.5432 26.4238 49.8929 26.4238C49.2425 26.4238 48.6107 26.6406 48.0974 27.0399L35.8389 36.573C34.7394 37.4312 35.3447 39.1931 36.7381 39.1931H38.1959V50.8901C38.1959 51.6656 38.504 52.4094 39.0524 52.9578C39.6008 53.5062 40.3446 53.8143 41.1201 53.8143H48.4307V43.5795C48.4307 43.1917 48.5848 42.8198 48.859 42.5456C49.1332 42.2714 49.5051 42.1174 49.8929 42.1174C50.2806 42.1174 50.6525 42.2714 50.9267 42.5456C51.2009 42.8198 51.355 43.1917 51.355 43.5795V53.8143H58.6656C59.4411 53.8143 60.1849 53.5062 60.7333 52.9578C61.2817 52.4094 61.5898 51.6656 61.5898 50.8901V39.1931H63.0476C64.4395 39.1931 65.0477 37.4312 63.9468 36.5744L51.6883 27.0399Z" fill="#0091EA"/>
<path d="M83.6545 38.1109H78.4945V42.5989C78.4945 42.8709 78.6385 43.0069 78.9265 43.0069H83.2225C83.5105 43.0069 83.6545 42.8709 83.6545 42.5989V38.1109ZM86.4145 43.6549C86.4145 44.1829 86.2865 44.5829 86.0305 44.8549C85.7745 45.1269 85.3025 45.2629 84.6145 45.2629H77.5585C76.8545 45.2629 76.3745 45.1429 76.1185 44.9029C75.8625 44.6629 75.7345 44.2229 75.7345 43.5829V30.6229C75.7345 30.5429 75.7665 30.4789 75.8305 30.4309C75.8945 30.3669 75.9665 30.3349 76.0465 30.3349H78.1585C78.2385 30.3349 78.3105 30.3669 78.3745 30.4309C78.4545 30.4789 78.4945 30.5429 78.4945 30.6229V35.8789H83.6545V30.5989C83.6545 30.5189 83.6865 30.4469 83.7505 30.3829C83.8145 30.3189 83.8865 30.2869 83.9665 30.2869H86.1025C86.1825 30.2869 86.2545 30.3189 86.3185 30.3829C86.3825 30.4469 86.4145 30.5189 86.4145 30.5989V43.6549ZM96.0145 39.8389C96.0145 39.9349 95.9745 40.0149 95.8945 40.0789C95.8305 40.1429 95.7585 40.1749 95.6785 40.1749H92.4145V51.5509C92.4145 51.7589 92.3105 51.8629 92.1025 51.8629H89.9665C89.7585 51.8629 89.6545 51.7589 89.6545 51.5509V29.3989C89.6545 29.1909 89.7585 29.0869 89.9665 29.0869H92.1025C92.3105 29.0869 92.4145 29.1909 92.4145 29.3989V37.8709H95.6785C95.7585 37.8709 95.8305 37.9029 95.8945 37.9669C95.9745 38.0149 96.0145 38.0789 96.0145 38.1589V39.8389ZM118.273 47.6149C118.273 47.6949 118.233 47.7749 118.153 47.8549C118.073 47.9349 117.993 47.9749 117.913 47.9749H97.0088C96.9128 47.9749 96.8328 47.9349 96.7688 47.8549C96.7048 47.7749 96.6728 47.6949 96.6728 47.6149V46.1029C96.6728 46.0069 96.7048 45.9189 96.7688 45.8389C96.8328 45.7589 96.9128 45.7189 97.0088 45.7189H106.105V42.1429H101.809C101.457 42.1429 101.169 42.1189 100.945 42.0709C100.721 42.0229 100.545 41.9349 100.417 41.8069C100.289 41.6789 100.201 41.5189 100.153 41.3269C100.105 41.1189 100.081 40.8549 100.081 40.5349V36.6709C100.081 36.3509 100.105 36.0949 100.153 35.9029C100.201 35.6949 100.289 35.5349 100.417 35.4229C100.545 35.2949 100.721 35.2149 100.945 35.1829C101.169 35.1349 101.457 35.1109 101.809 35.1109H111.793C111.953 35.1109 112.049 35.0949 112.081 35.0629C112.129 35.0149 112.153 34.9029 112.153 34.7269V32.8549C112.153 32.6789 112.129 32.5829 112.081 32.5669C112.049 32.5349 111.953 32.5189 111.793 32.5189H100.489C100.409 32.5189 100.337 32.4869 100.273 32.4229C100.209 32.3429 100.177 32.2629 100.177 32.1829V30.5749C100.177 30.4949 100.209 30.4229 100.273 30.3589C100.337 30.2949 100.409 30.2629 100.489 30.2629H113.113C113.785 30.2629 114.241 30.3749 114.481 30.5989C114.721 30.8069 114.841 31.2229 114.841 31.8469V35.7349C114.841 36.3589 114.721 36.7829 114.481 37.0069C114.241 37.2149 113.785 37.3189 113.113 37.3189H103.105C102.945 37.3189 102.849 37.3349 102.817 37.3669C102.785 37.3989 102.769 37.4949 102.769 37.6549V39.5509C102.769 39.7269 102.785 39.8389 102.817 39.8869C102.865 39.9189 102.969 39.9349 103.129 39.9349H115.033C115.113 39.9349 115.185 39.9669 115.249 40.0309C115.313 40.0789 115.345 40.1429 115.345 40.2229V41.8309C115.345 41.9109 115.305 41.9829 115.225 42.0469C115.161 42.1109 115.097 42.1429 115.033 42.1429H108.865V45.7189H117.913C117.993 45.7189 118.073 45.7669 118.153 45.8629C118.233 45.9429 118.273 46.0229 118.273 46.1029V47.6149ZM131.459 32.6869C131.347 34.1429 131.051 35.5509 130.571 36.9109C130.091 38.2549 129.427 39.5269 128.579 40.7269C127.747 41.9269 126.739 43.0469 125.555 44.0869C124.371 45.1269 123.035 46.0549 121.547 46.8709C121.419 46.9349 121.283 46.9669 121.139 46.9669C121.011 46.9509 120.907 46.8789 120.827 46.7509L119.867 45.4069C119.787 45.2789 119.763 45.1509 119.795 45.0229C119.827 44.8949 119.899 44.7909 120.011 44.7109C122.395 43.4469 124.323 41.8869 125.795 40.0309C127.267 38.1749 128.163 36.1589 128.483 33.9829C128.531 33.6629 128.507 33.4549 128.411 33.3589C128.331 33.2469 128.147 33.1909 127.859 33.1909H121.091C120.883 33.1909 120.779 33.0789 120.779 32.8549V31.1749C120.779 30.9829 120.883 30.8869 121.091 30.8869H129.755C130.475 30.8869 130.947 31.0389 131.171 31.3429C131.411 31.6309 131.507 32.0789 131.459 32.6869ZM141.179 39.8149C141.179 39.9109 141.139 39.9909 141.059 40.0549C140.995 40.1189 140.915 40.1509 140.819 40.1509H137.579V51.5509C137.579 51.7589 137.475 51.8629 137.267 51.8629H135.131C134.923 51.8629 134.819 51.7589 134.819 51.5509V29.3989C134.819 29.1909 134.923 29.0869 135.131 29.0869H137.267C137.475 29.0869 137.579 29.1909 137.579 29.3989V37.8469H140.819C140.915 37.8469 140.995 37.8789 141.059 37.9429C141.139 37.9909 141.179 38.0549 141.179 38.1349V39.8149ZM161.133 51.5509C161.133 51.7589 161.029 51.8629 160.821 51.8629H158.685C158.477 51.8629 158.373 51.7589 158.373 51.5509V29.3989C158.373 29.1909 158.477 29.0869 158.685 29.0869H160.821C161.029 29.0869 161.133 29.1909 161.133 29.3989V51.5509ZM154.653 32.6869C154.525 34.2389 154.197 35.7029 153.669 37.0789C153.157 38.4549 152.469 39.7349 151.605 40.9189C150.757 42.1029 149.749 43.1989 148.581 44.2069C147.413 45.2149 146.125 46.1349 144.717 46.9669C144.589 47.0469 144.445 47.0789 144.285 47.0629C144.141 47.0309 144.029 46.9509 143.949 46.8229L143.133 45.5509C143.053 45.4229 143.029 45.3029 143.061 45.1909C143.093 45.0629 143.165 44.9669 143.277 44.9029C145.661 43.4949 147.565 41.8709 148.989 40.0309C150.429 38.1909 151.365 36.1749 151.797 33.9829C151.861 33.6629 151.845 33.4549 151.749 33.3589C151.653 33.2469 151.453 33.1909 151.149 33.1909H144.381C144.157 33.1909 144.045 33.0789 144.045 32.8549V31.1749C144.045 30.9829 144.157 30.8869 144.381 30.8869H152.973C153.693 30.8869 154.165 31.0389 154.389 31.3429C154.613 31.6309 154.701 32.0789 154.653 32.6869Z" fill="#0091EA"/>
</svg>
