<svg width="109" height="119" viewBox="0 0 109 119" fill="none" xmlns="http://www.w3.org/2000/svg">
<g filter="url(#filter0_bd_1138_27413)">
<mask id="path-1-inside-1_1138_27413" fill="white">
<path fill-rule="evenodd" clip-rule="evenodd" d="M16.1465 16.0957L90.4524 45.5113L67.158 58.067L92.7957 87.8061L76.1543 102.153L50.4683 72.3575L34.5372 93.7958L34.5382 93.7955L34.3104 93.9918L16.1465 16.0957Z"/>
</mask>
<path fill-rule="evenodd" clip-rule="evenodd" d="M16.1465 16.0957L90.4524 45.5113L67.158 58.067L92.7957 87.8061L76.1543 102.153L50.4683 72.3575L34.5372 93.7958L34.5382 93.7955L34.3104 93.9918L16.1465 16.0957Z" fill="#FFE28A" fill-opacity="0.58" shape-rendering="crispEdges"/>
<path d="M90.4524 45.5113L92.5177 49.3431L100.75 44.906L92.0546 41.4639L90.4524 45.5113ZM16.1465 16.0957L17.7487 12.0483L10.0194 8.9885L11.9072 17.0842L16.1465 16.0957ZM67.158 58.067L65.0926 54.2352L60.3234 56.8058L63.861 60.9093L67.158 58.067ZM92.7957 87.8061L95.638 91.1031L98.935 88.2608L96.0927 84.9638L92.7957 87.8061ZM76.1543 102.153L72.8573 104.995L75.6996 108.292L78.9966 105.45L76.1543 102.153ZM50.4683 72.3575L53.7653 69.5152L50.2163 65.3985L46.9744 69.7611L50.4683 72.3575ZM34.5372 93.7958L31.0433 91.1995L22.1598 103.154L36.083 97.8651L34.5372 93.7958ZM34.5382 93.7955L37.3805 97.0924L32.9924 89.7262L34.5382 93.7955ZM34.3104 93.9918L30.0712 94.9803L31.7046 101.985L37.1527 97.2888L34.3104 93.9918ZM92.0546 41.4639L17.7487 12.0483L14.5442 20.1431L88.8501 49.5587L92.0546 41.4639ZM69.2233 61.8988L92.5177 49.3431L88.387 41.6795L65.0926 54.2352L69.2233 61.8988ZM63.861 60.9093L89.4988 90.6484L96.0927 84.9638L70.4549 55.2247L63.861 60.9093ZM89.9535 84.5092L73.312 98.8556L78.9966 105.45L95.638 91.1031L89.9535 84.5092ZM79.4513 99.3102L53.7653 69.5152L47.1713 75.1998L72.8573 104.995L79.4513 99.3102ZM38.0312 96.3922L53.9622 74.9538L46.9744 69.7611L31.0433 91.1995L38.0312 96.3922ZM32.9924 89.7262L32.9915 89.7265L36.083 97.8651L36.0839 97.8648L32.9924 89.7262ZM37.1527 97.2888L37.3805 97.0924L31.6959 90.4985L31.4682 90.6948L37.1527 97.2888ZM11.9072 17.0842L30.0712 94.9803L38.5497 93.0033L20.3858 15.1072L11.9072 17.0842Z" fill="#FFBF00" mask="url(#path-1-inside-1_1138_27413)"/>
</g>
<defs>
<filter id="filter0_bd_1138_27413" x="0.214504" y="0.163723" width="108.512" height="117.921" filterUnits="userSpaceOnUse" color-interpolation-filters="sRGB">
<feFlood flood-opacity="0" result="BackgroundImageFix"/>
<feGaussianBlur in="BackgroundImageFix" stdDeviation="1.7412"/>
<feComposite in2="SourceAlpha" operator="in" result="effect1_backgroundBlur_1138_27413"/>
<feColorMatrix in="SourceAlpha" type="matrix" values="0 0 0 0 0 0 0 0 0 0 0 0 0 0 0 0 0 0 127 0" result="hardAlpha"/>
<feOffset/>
<feGaussianBlur stdDeviation="7.96599"/>
<feComposite in2="hardAlpha" operator="out"/>
<feColorMatrix type="matrix" values="0 0 0 0 1 0 0 0 0 0.74902 0 0 0 0 0 0 0 0 1 0"/>
<feBlend mode="normal" in2="effect1_backgroundBlur_1138_27413" result="effect2_dropShadow_1138_27413"/>
<feBlend mode="normal" in="SourceGraphic" in2="effect2_dropShadow_1138_27413" result="shape"/>
</filter>
</defs>
</svg>
