<svg width="497" height="443" viewBox="0 0 497 443" fill="none" xmlns="http://www.w3.org/2000/svg">
<g filter="url(#filter0_d_1138_27421)">
<path d="M46.0586 221.196H243.249L434.782 219.451L438.699 372.677H46.0586V221.196Z" fill="#D9D9D9"/>
</g>
<path d="M133.989 371.805V190.285L45.6227 218.144L31.2578 408.37L133.989 371.805Z" fill="#FFEBB0"/>
<path d="M353.379 373.112L352.073 192.027L441.744 219.451L456.109 409.677L353.379 373.112Z" fill="#FFF9E6"/>
<path d="M353.379 371.371L352.073 192.463L242.812 219.451V413.595L353.379 371.371Z" fill="#FFEBB0"/>
<path d="M133.988 372.676V194.203L244.555 220.756V414.9L133.988 372.676Z" fill="#FFF9E6"/>
<g filter="url(#filter1_d_1138_27421)">
<path d="M43.3743 222.379C43.5377 220.401 44.9035 218.73 46.8085 218.175L131.964 193.396C132.774 193.161 133.632 193.143 134.451 193.345L239.785 219.374C241.774 219.866 243.852 219.866 245.841 219.374L351.135 193.356C351.968 193.15 352.841 193.172 353.663 193.419L354.791 189.667L353.663 193.419L435.899 218.158C437.759 218.717 439.096 220.344 439.285 222.276L456.927 402.513C457.275 406.063 453.758 408.733 450.432 407.445L357.069 371.272C354.135 370.135 350.882 370.135 347.948 371.272L244.543 411.335C243.43 411.767 242.196 411.767 241.083 411.335L137.678 371.272C134.744 370.135 131.491 370.135 128.557 371.272L34.9737 407.53C31.6771 408.807 28.1806 406.194 28.4718 402.671L43.3743 222.379Z" stroke="#FDFDFD" stroke-width="7.8354" shape-rendering="crispEdges"/>
</g>
<g filter="url(#filter2_d_1138_27421)">
<path fill-rule="evenodd" clip-rule="evenodd" d="M172.959 237.732C165.379 237.732 159.234 243.877 159.234 251.457V262.241C159.234 269.821 165.379 275.966 172.959 275.966H196.56C197.43 277.655 199.876 281.572 205.31 285.279C203.479 282.063 204.083 277.752 204.454 275.952C211.749 275.631 217.565 269.615 217.565 262.241V251.457C217.565 243.877 211.42 237.732 203.84 237.732H172.959Z" fill="#FDFDFD"/>
</g>
<path fill-rule="evenodd" clip-rule="evenodd" d="M179.533 256.037C178.917 255.934 178.315 256.295 178.129 256.891C176.655 261.615 176.694 264.101 178.541 267.869C178.748 268.293 179.185 268.555 179.657 268.555H183.319C182.332 266.782 182.134 265.348 182.363 263.245C182.414 262.778 182.764 262.401 183.222 262.298C184.026 262.116 184.739 262.826 184.648 263.644C184.468 265.262 184.685 266.428 185.56 267.837C185.699 268.061 185.76 268.312 185.752 268.555H197.39C198.457 268.555 199.032 267.328 198.41 266.461C197.084 264.612 196.565 263.13 197.145 260.428C197.305 259.681 196.841 258.922 196.087 258.796L179.533 256.037Z" fill="#CBC9C5"/>
<path fill-rule="evenodd" clip-rule="evenodd" d="M189.815 244.706C188.96 244.551 188.142 245.119 187.988 245.973L186.932 251.804C186.914 251.906 186.905 252.007 186.907 252.106L181.64 251.153C180.26 250.903 178.939 251.819 178.689 253.199L178.463 254.448L197.03 257.81L197.256 256.561C197.506 255.181 196.59 253.859 195.21 253.61L189.944 252.656C189.98 252.563 190.008 252.466 190.026 252.364L191.082 246.534C191.237 245.679 190.669 244.861 189.815 244.706Z" fill="#CBC9C5"/>
<g filter="url(#filter3_d_1138_27421)">
<path d="M353.38 165.039C353.38 188.518 316.637 230.591 306.663 241.579C305.318 243.06 303.063 243.06 301.719 241.579C291.745 230.591 255.002 188.518 255.002 165.039C255.002 137.872 277.025 115.85 304.191 115.85C331.357 115.85 353.38 137.872 353.38 165.039Z" fill="#FFBF00"/>
<circle cx="304.191" cy="165.039" r="17.8473" fill="white"/>
</g>
<path d="M133.988 192.898C133.988 205.157 114.804 227.124 109.597 232.861C108.894 233.634 107.717 233.634 107.015 232.861C101.807 227.124 82.623 205.157 82.623 192.898C82.623 178.713 94.1216 167.215 108.306 167.215C122.49 167.215 133.988 178.713 133.988 192.898Z" fill="#CBC9C5"/>
<circle cx="108.307" cy="192.899" r="9.3185" fill="white"/>
<path d="M260.225 322.618C260.225 334.877 241.04 356.845 235.833 362.582C235.131 363.355 233.953 363.355 233.251 362.582C228.044 356.845 208.859 334.877 208.859 322.618C208.859 308.434 220.358 296.936 234.542 296.936C248.726 296.936 260.225 308.434 260.225 322.618Z" fill="#CBC9C5"/>
<circle cx="234.543" cy="322.617" r="9.3185" fill="white"/>
<path d="M439.569 266.899C439.569 279.159 420.384 301.126 415.177 306.863C414.475 307.636 413.297 307.636 412.595 306.863C407.387 301.126 388.203 279.159 388.203 266.899C388.203 252.715 399.702 241.217 413.886 241.217C428.07 241.217 439.569 252.715 439.569 266.899Z" fill="#CBC9C5"/>
<circle cx="413.887" cy="266.899" r="9.3185" fill="white"/>
<g filter="url(#filter4_d_1138_27421)">
<path fill-rule="evenodd" clip-rule="evenodd" d="M34.8025 101.92C24.6706 101.92 16.457 110.133 16.457 120.265V134.68C16.457 144.812 24.6706 153.025 34.8025 153.025H66.3499C67.5123 155.283 70.7817 160.519 78.0454 165.474C75.5978 161.175 76.4058 155.412 76.9018 153.007C86.6522 152.577 94.4252 144.536 94.4252 134.68V120.265C94.4252 110.133 86.2116 101.92 76.0797 101.92H34.8025Z" fill="#FDFDFD"/>
</g>
<path d="M51.7703 128.311L50.1923 117.991C53.7325 116.865 57.5347 116.865 61.0748 117.991L59.4969 128.311C59.3699 129.2 58.59 129.853 57.6831 129.853H53.5659C53.1316 129.853 52.7115 129.698 52.382 129.415C52.0525 129.132 51.8355 128.74 51.7703 128.311ZM73.7711 135.294C73.7711 133.861 72.9186 132.573 71.5946 131.975C70.7221 127.781 68.2498 124.092 64.7023 121.691L61.5101 130.469C61.2562 131.195 60.567 131.666 59.8052 131.666H51.462C50.7002 131.666 50.011 131.195 49.757 130.469L46.5648 121.691C43.024 124.09 40.553 127.771 39.6726 131.957C38.3486 132.573 37.4961 133.843 37.4961 135.294L49.1948 138.631C49.8477 138.813 50.5188 138.921 51.1899 138.921H60.041C60.7121 138.921 61.3832 138.813 62.0361 138.631L73.7711 135.294Z" fill="#CBC9C5"/>
<g filter="url(#filter5_d_1138_27421)">
<path fill-rule="evenodd" clip-rule="evenodd" d="M470.461 170.697C480.593 170.697 488.807 178.911 488.807 189.043V203.457C488.807 213.589 480.593 221.802 470.461 221.802H438.914C437.751 224.061 434.482 229.296 427.218 234.251C429.666 229.952 428.858 224.19 428.362 221.784C418.611 221.354 410.839 213.313 410.839 203.457V189.043C410.839 178.911 419.052 170.697 429.184 170.697H470.461Z" fill="#FDFDFD"/>
</g>
<path d="M447.633 183.364C447.712 183.248 447.768 183.118 447.796 182.981C447.825 182.843 447.825 182.702 447.799 182.564C447.772 182.426 447.718 182.295 447.64 182.178C447.563 182.061 447.462 181.961 447.346 181.883C447.229 181.805 447.098 181.752 446.96 181.725C446.822 181.698 446.681 181.699 446.543 181.727C446.406 181.755 446.275 181.81 446.159 181.889C446.043 181.968 445.944 182.07 445.868 182.187L443.038 186.431C442.886 186.666 442.832 186.95 442.888 187.224C442.945 187.498 443.107 187.738 443.339 187.893C443.571 188.048 443.856 188.105 444.13 188.052C444.404 187.999 444.646 187.839 444.804 187.609L447.633 183.364ZM451.878 183.364C451.957 183.248 452.012 183.118 452.04 182.981C452.069 182.843 452.07 182.702 452.043 182.564C452.016 182.426 451.962 182.295 451.884 182.178C451.807 182.061 451.707 181.961 451.59 181.883C451.473 181.805 451.342 181.752 451.204 181.725C451.067 181.698 450.925 181.699 450.787 181.727C450.65 181.755 450.519 181.81 450.404 181.889C450.288 181.968 450.189 182.07 450.112 182.187L447.283 186.431C447.203 186.547 447.148 186.678 447.12 186.815C447.091 186.953 447.09 187.094 447.117 187.232C447.144 187.37 447.198 187.501 447.276 187.618C447.353 187.734 447.454 187.835 447.57 187.913C447.687 187.99 447.818 188.044 447.956 188.071C448.093 188.098 448.235 188.097 448.373 188.069C448.51 188.041 448.641 187.985 448.756 187.906C448.872 187.827 448.972 187.726 449.048 187.609L451.878 183.364ZM456.122 183.364C456.201 183.248 456.256 183.118 456.285 182.981C456.313 182.843 456.314 182.702 456.287 182.564C456.26 182.426 456.206 182.295 456.129 182.178C456.051 182.061 455.951 181.961 455.834 181.883C455.717 181.805 455.586 181.752 455.448 181.725C455.311 181.698 455.169 181.699 455.032 181.727C454.894 181.755 454.764 181.81 454.648 181.889C454.532 181.968 454.433 182.07 454.356 182.187L451.527 186.431C451.448 186.547 451.392 186.678 451.364 186.815C451.335 186.953 451.335 187.094 451.361 187.232C451.388 187.37 451.442 187.501 451.52 187.618C451.598 187.734 451.698 187.835 451.814 187.913C451.931 187.99 452.062 188.044 452.2 188.071C452.338 188.098 452.479 188.097 452.617 188.069C452.754 188.041 452.885 187.985 453.001 187.906C453.117 187.827 453.216 187.726 453.292 187.609L456.122 183.364ZM439.568 190.203C438.261 190.203 437.201 191.263 437.201 192.57V202.582C437.201 204.364 437.909 206.073 439.169 207.334C440.43 208.594 442.139 209.302 443.921 209.302H452.409C454.192 209.302 455.901 208.594 457.161 207.334C458.421 206.073 459.129 204.364 459.129 202.582V200.814H460.19C461.41 200.814 462.579 200.329 463.442 199.467C464.304 198.605 464.788 197.435 464.788 196.216C464.788 194.996 464.304 193.827 463.442 192.965C462.579 192.102 461.41 191.618 460.19 191.618H458.903C458.558 190.831 457.821 190.203 456.763 190.203H439.568Z" fill="#CBC9C5"/>
<g filter="url(#filter6_d_1138_27421)">
<path fill-rule="evenodd" clip-rule="evenodd" d="M184.744 13.1191C168.367 13.1191 155.09 26.3958 155.09 42.7734V66.0732C155.09 82.4508 168.367 95.7274 184.744 95.7274H235.738C237.617 99.3778 242.902 107.841 254.643 115.85C250.687 108.901 251.993 99.5864 252.795 95.6982C268.556 95.0033 281.12 82.0056 281.12 66.0732V42.7734C281.12 26.3958 267.844 13.1191 251.466 13.1191H184.744Z" fill="#FDFDFD"/>
</g>
<g clip-path="url(#clip0_1138_27421)">
<path fill-rule="evenodd" clip-rule="evenodd" d="M212.094 38.4339H224.78L227.152 31.3129C227.364 30.6776 227.422 30.001 227.321 29.339C227.22 28.677 226.963 28.0484 226.571 27.505C226.18 26.9617 225.665 26.519 225.069 26.2136C224.473 25.9081 223.813 25.7486 223.144 25.748H213.731C213.061 25.7492 212.402 25.9093 211.806 26.215C211.211 26.5208 210.697 26.9635 210.306 27.5068C209.915 28.05 209.658 28.6784 209.558 29.34C209.457 30.0017 209.515 30.6779 209.726 31.3129L212.094 38.4339ZM228.869 73.3413L224.78 42.6626H212.094L208.005 73.3413C207.962 73.6635 207.994 73.9914 208.098 74.2995C208.202 74.6075 208.376 74.8874 208.606 75.1173L216.94 83.4519C217.137 83.6488 217.37 83.805 217.627 83.9116C217.884 84.0182 218.159 84.0731 218.437 84.0731C218.715 84.0731 218.991 84.0182 219.247 83.9116C219.504 83.805 219.738 83.6488 219.934 83.4519L228.269 75.1131C228.499 74.8831 228.672 74.6033 228.777 74.2952C228.881 73.9872 228.912 73.6593 228.869 73.337V73.3413Z" fill="#FFBF00"/>
</g>
<defs>
<filter id="filter0_d_1138_27421" x="32.8255" y="219.451" width="419.107" height="196.06" filterUnits="userSpaceOnUse" color-interpolation-filters="sRGB">
<feFlood flood-opacity="0" result="BackgroundImageFix"/>
<feColorMatrix in="SourceAlpha" type="matrix" values="0 0 0 0 0 0 0 0 0 0 0 0 0 0 0 0 0 0 127 0" result="hardAlpha"/>
<feOffset dy="29.6004"/>
<feGaussianBlur stdDeviation="6.61656"/>
<feComposite in2="hardAlpha" operator="out"/>
<feColorMatrix type="matrix" values="0 0 0 0 0 0 0 0 0 0 0 0 0 0 0 0 0 0 0.1 0"/>
<feBlend mode="normal" in2="BackgroundImageFix" result="effect1_dropShadow_1138_27421"/>
<feBlend mode="normal" in="SourceGraphic" in2="effect1_dropShadow_1138_27421" result="shape"/>
</filter>
<filter id="filter1_d_1138_27421" x="0.943848" y="169.176" width="483.519" height="273.476" filterUnits="userSpaceOnUse" color-interpolation-filters="sRGB">
<feFlood flood-opacity="0" result="BackgroundImageFix"/>
<feColorMatrix in="SourceAlpha" type="matrix" values="0 0 0 0 0 0 0 0 0 0 0 0 0 0 0 0 0 0 127 0" result="hardAlpha"/>
<feOffset dy="3.4824"/>
<feGaussianBlur stdDeviation="11.7966"/>
<feComposite in2="hardAlpha" operator="out"/>
<feColorMatrix type="matrix" values="0 0 0 0 0 0 0 0 0 0 0 0 0 0 0 0 0 0 0.11 0"/>
<feBlend mode="normal" in2="BackgroundImageFix" result="effect1_dropShadow_1138_27421"/>
<feBlend mode="normal" in="SourceGraphic" in2="effect1_dropShadow_1138_27421" result="shape"/>
</filter>
<filter id="filter2_d_1138_27421" x="153.499" y="231.997" width="69.8" height="59.0168" filterUnits="userSpaceOnUse" color-interpolation-filters="sRGB">
<feFlood flood-opacity="0" result="BackgroundImageFix"/>
<feColorMatrix in="SourceAlpha" type="matrix" values="0 0 0 0 0 0 0 0 0 0 0 0 0 0 0 0 0 0 127 0" result="hardAlpha"/>
<feOffset/>
<feGaussianBlur stdDeviation="2.86749"/>
<feComposite in2="hardAlpha" operator="out"/>
<feColorMatrix type="matrix" values="0 0 0 0 0 0 0 0 0 0 0 0 0 0 0 0 0 0 0.15 0"/>
<feBlend mode="normal" in2="BackgroundImageFix" result="effect1_dropShadow_1138_27421"/>
<feBlend mode="normal" in="SourceGraphic" in2="effect1_dropShadow_1138_27421" result="shape"/>
</filter>
<filter id="filter3_d_1138_27421" x="238.199" y="99.047" width="131.982" height="162.019" filterUnits="userSpaceOnUse" color-interpolation-filters="sRGB">
<feFlood flood-opacity="0" result="BackgroundImageFix"/>
<feColorMatrix in="SourceAlpha" type="matrix" values="0 0 0 0 0 0 0 0 0 0 0 0 0 0 0 0 0 0 127 0" result="hardAlpha"/>
<feOffset/>
<feGaussianBlur stdDeviation="8.40129"/>
<feComposite in2="hardAlpha" operator="out"/>
<feColorMatrix type="matrix" values="0 0 0 0 1 0 0 0 0 0.74902 0 0 0 0 0 0 0 0 1 0"/>
<feBlend mode="normal" in2="BackgroundImageFix" result="effect1_dropShadow_1138_27421"/>
<feBlend mode="normal" in="SourceGraphic" in2="effect1_dropShadow_1138_27421" result="shape"/>
</filter>
<filter id="filter4_d_1138_27421" x="8.79126" y="94.2541" width="93.3003" height="78.8862" filterUnits="userSpaceOnUse" color-interpolation-filters="sRGB">
<feFlood flood-opacity="0" result="BackgroundImageFix"/>
<feColorMatrix in="SourceAlpha" type="matrix" values="0 0 0 0 0 0 0 0 0 0 0 0 0 0 0 0 0 0 127 0" result="hardAlpha"/>
<feOffset/>
<feGaussianBlur stdDeviation="3.83289"/>
<feComposite in2="hardAlpha" operator="out"/>
<feColorMatrix type="matrix" values="0 0 0 0 0 0 0 0 0 0 0 0 0 0 0 0 0 0 0.15 0"/>
<feBlend mode="normal" in2="BackgroundImageFix" result="effect1_dropShadow_1138_27421"/>
<feBlend mode="normal" in="SourceGraphic" in2="effect1_dropShadow_1138_27421" result="shape"/>
</filter>
<filter id="filter5_d_1138_27421" x="403.172" y="163.031" width="93.3003" height="78.8862" filterUnits="userSpaceOnUse" color-interpolation-filters="sRGB">
<feFlood flood-opacity="0" result="BackgroundImageFix"/>
<feColorMatrix in="SourceAlpha" type="matrix" values="0 0 0 0 0 0 0 0 0 0 0 0 0 0 0 0 0 0 127 0" result="hardAlpha"/>
<feOffset/>
<feGaussianBlur stdDeviation="3.83289"/>
<feComposite in2="hardAlpha" operator="out"/>
<feColorMatrix type="matrix" values="0 0 0 0 0 0 0 0 0 0 0 0 0 0 0 0 0 0 0.15 0"/>
<feBlend mode="normal" in2="BackgroundImageFix" result="effect1_dropShadow_1138_27421"/>
<feBlend mode="normal" in="SourceGraphic" in2="effect1_dropShadow_1138_27421" result="shape"/>
</filter>
<filter id="filter6_d_1138_27421" x="142.699" y="0.7279" width="150.814" height="127.513" filterUnits="userSpaceOnUse" color-interpolation-filters="sRGB">
<feFlood flood-opacity="0" result="BackgroundImageFix"/>
<feColorMatrix in="SourceAlpha" type="matrix" values="0 0 0 0 0 0 0 0 0 0 0 0 0 0 0 0 0 0 127 0" result="hardAlpha"/>
<feOffset/>
<feGaussianBlur stdDeviation="6.19562"/>
<feComposite in2="hardAlpha" operator="out"/>
<feColorMatrix type="matrix" values="0 0 0 0 0 0 0 0 0 0 0 0 0 0 0 0 0 0 0.15 0"/>
<feBlend mode="normal" in2="BackgroundImageFix" result="effect1_dropShadow_1138_27421"/>
<feBlend mode="normal" in="SourceGraphic" in2="effect1_dropShadow_1138_27421" result="shape"/>
</filter>
<clipPath id="clip0_1138_27421">
<rect width="59.2008" height="59.2008" fill="white" transform="translate(188.836 25.3066)"/>
</clipPath>
</defs>
</svg>
