<svg width="88" height="88" viewBox="0 0 88 88" fill="none" xmlns="http://www.w3.org/2000/svg">
<path d="M43.4275 9.3236L18.8129 68.4854C18.5741 69.0592 18.9957 69.6912 19.6171 69.6912H69.2634C69.8871 69.6912 70.3087 69.055 70.0657 68.4806L45.034 9.31878C44.7331 8.60758 43.7241 8.6106 43.4275 9.3236Z" fill="#FFF5D4"/>
<path fill-rule="evenodd" clip-rule="evenodd" d="M36.0991 27.0459L30.9748 39.5472L54.0549 31.0206L50.2231 21.8279L36.0991 27.0459ZM46.5397 12.9915L44.991 9.27618C44.6921 8.55929 43.6755 8.5623 43.3809 9.28096L41.0248 15.029L46.5397 12.9915ZM57.7383 39.857L26.0491 51.5642L20.9248 64.0655L61.5702 49.0496L57.7383 39.857ZM65.2536 57.886L33.504 69.6155H68.8361C69.4577 69.6155 69.8793 68.983 69.6401 68.4092L65.2536 57.886Z" fill="#FFB500"/>
<path d="M77.5459 78.4023C77.5459 78.8834 77.1559 79.2734 76.6748 79.2734L13.0837 79.2734C12.6026 79.2734 12.2126 78.8834 12.2126 78.4023L12.2126 69.6912C12.2126 69.2101 12.6026 68.8201 13.0837 68.8201L76.6748 68.8201C77.1559 68.8201 77.5459 69.2101 77.5459 69.6912L77.5459 78.4023Z" fill="#FFB500"/>
</svg>
