<svg width="57" height="11" viewBox="0 0 57 11" fill="none" xmlns="http://www.w3.org/2000/svg">
<path d="M6.30273 3.32227C6.2207 2.47461 5.49609 1.98242 4.42969 1.98242C3.30859 1.98242 2.625 2.5293 2.625 3.26758C2.625 4.10156 3.5 4.44336 4.32031 4.63477L5.25 4.88086C6.72656 5.22266 8.14844 6.00195 8.14844 7.72461C8.14844 9.46094 6.78125 10.6504 4.40234 10.6504C2.0918 10.6504 0.642578 9.54297 0.560547 7.58789H2.31055C2.39258 8.62695 3.26758 9.13281 4.38867 9.13281C5.56445 9.13281 6.37109 8.55859 6.37109 7.71094C6.37109 6.93164 5.64648 6.60352 4.58008 6.33008L3.45898 6.04297C1.83203 5.61914 0.820312 4.79883 0.820312 3.37695C0.820312 1.62695 2.37891 0.464844 4.45703 0.464844C6.5625 0.464844 7.98438 1.6543 8.01172 3.32227H6.30273ZM9.625 10.5V0.601562H16.0645V2.0918H11.4023V4.79883H15.7227V6.28906H11.4023V8.99609H16.0918V10.5H9.625ZM17.7734 10.5V0.601562H21.4922C23.7617 0.601562 24.9785 1.87305 24.9785 3.75977C24.9785 5.10645 24.3633 6.10449 23.2012 6.57617L25.334 10.5H23.3516L21.4102 6.87695H19.5508V10.5H17.7734ZM19.5508 5.38672H21.2188C22.5586 5.38672 23.1602 4.8125 23.1602 3.75977C23.1602 2.70703 22.5586 2.0918 21.2188 2.0918H19.5508V5.38672ZM27.5625 0.601562L30.1328 8.4082H30.2422L32.8262 0.601562H34.7812L31.2812 10.5H29.0938L25.6074 0.601562H27.5625ZM37.7344 0.601562V10.5H35.957V0.601562H37.7344ZM46.252 3.9375C46.0469 2.74805 45.0898 2.06445 43.8867 2.06445C42.2598 2.06445 41.125 3.30859 41.125 5.55078C41.125 7.82031 42.2734 9.03711 43.8867 9.03711C45.0625 9.03711 46.0195 8.38086 46.252 7.21875H48.043C47.7695 9.11914 46.2109 10.6367 43.8594 10.6367C41.248 10.6367 39.334 8.73633 39.334 5.55078C39.334 2.35156 41.2754 0.464844 43.8594 0.464844C46.0469 0.464844 47.7422 1.73633 48.043 3.9375H46.252ZM49.5742 10.5V0.601562H56.0137V2.0918H51.3516V4.79883H55.6719V6.28906H51.3516V8.99609H56.041V10.5H49.5742Z" fill="black"/>
</svg>
