<svg width="460" height="331" viewBox="0 0 460 331" fill="none" xmlns="http://www.w3.org/2000/svg">
<g filter="url(#filter0_d_1138_27494)">
<path d="M411.62 36.2801C410.467 28.1187 403.482 22.0508 395.24 22.0508H43.9016C34.1511 22.0508 26.5158 30.4414 27.433 40.1487L49.6906 275.729C50.4932 284.224 57.6261 290.715 66.1592 290.715H428.501C438.557 290.715 446.287 281.817 444.881 271.86L411.62 36.2801Z" fill="#FFCC33"/>
<path d="M26.3506 36.5337C27.135 28.0221 34.2751 21.5098 42.8228 21.5098H398.807C408.37 21.5098 415.94 29.594 415.313 39.136L398.378 296.962C397.806 305.659 390.586 312.42 381.871 312.42H19.0623C9.32695 312.42 1.69674 304.054 2.59013 294.36L26.3506 36.5337Z" fill="#FBFAF9"/>
<path d="M54.2435 105.572H102.158L99.0904 138.656H51.1758L54.2435 105.572Z" fill="#EDEBE8"/>
<path d="M50.2493 166.605H98.164L95.0963 199.689H47.1816L50.2493 166.605Z" fill="#EDEBE8"/>
<path d="M46.8275 227.639H94.7421L91.6744 260.723H43.7598L46.8275 227.639Z" fill="#EDEBE8"/>
<path d="M120.411 105.572H168.326L165.258 138.656H117.344L120.411 105.572Z" fill="#FFBF00"/>
<path d="M116.988 166.605H164.902L161.835 199.689H113.92L116.988 166.605Z" fill="#EDEBE8"/>
<path d="M113.566 227.639H161.48L158.413 260.723H110.498L113.566 227.639Z" fill="#EDEBE8"/>
<path d="M186.579 105.572H235.064L231.96 138.656H183.475L186.579 105.572Z" fill="#EDEBE8"/>
<path d="M183.159 166.605H231.644L228.54 199.689H180.055L183.159 166.605Z" fill="#EDEBE8"/>
<path d="M179.735 227.639H228.22L225.116 260.723H176.631L179.735 227.639Z" fill="#EDEBE8"/>
<path d="M253.398 105.957H301.312L298.245 139.041H250.33L253.398 105.957Z" fill="#EDEBE8"/>
<path d="M249.894 166.605H297.809L294.741 199.689H246.826L249.894 166.605Z" fill="#EDEBE8"/>
<path d="M246.47 227.639H294.385L291.317 260.723H243.402L246.47 227.639Z" fill="#E75058"/>
<path d="M320.056 105.572H367.971L364.903 138.656H316.988L320.056 105.572Z" fill="#EDEBE8"/>
<path d="M316.632 166.605H364.547L361.479 199.689H313.564L316.632 166.605Z" fill="#EDEBE8"/>
<path d="M313.21 227.639H361.125L358.057 260.723H310.143L313.21 227.639Z" fill="#EDEBE8"/>
<rect x="66.2207" y="0.615234" width="18.8236" height="46.7738" rx="7.98577" fill="#6B5000"/>
<rect x="122.121" y="0.615234" width="18.8236" height="46.7738" rx="7.98577" fill="#6B5000"/>
<rect x="178.021" y="0.615234" width="18.8236" height="46.7738" rx="7.98577" fill="#6B5000"/>
<rect x="233.922" y="0.615234" width="18.8236" height="46.7738" rx="7.98577" fill="#6B5000"/>
<rect x="289.822" y="0.615234" width="18.8236" height="46.7738" rx="7.98577" fill="#6B5000"/>
<rect x="345.723" y="0.615234" width="18.8236" height="46.7738" rx="7.98577" fill="#6B5000"/>
<path d="M126.291 118.883L136.126 131.205L159.374 111.182" stroke="#FBFAF9" stroke-width="6.9648"/>
<path d="M268.451 231.957C268.827 231.342 269.745 231.425 270.005 232.098L272.693 239.053C272.811 239.359 273.091 239.572 273.418 239.605L280.267 240.294C281.003 240.368 281.317 241.269 280.786 241.785L275.504 246.914C275.329 247.084 275.233 247.321 275.241 247.566L275.473 255.016C275.494 255.697 274.761 256.137 274.17 255.799L267.723 252.108C267.471 251.963 267.164 251.954 266.904 252.083L260.158 255.424C259.503 255.749 258.764 255.171 258.921 254.458L260.481 247.349C260.544 247.062 260.458 246.761 260.251 246.552L255.55 241.781C255.036 241.26 255.357 240.375 256.086 240.304L263.373 239.594C263.645 239.567 263.888 239.414 264.031 239.181L268.451 231.957Z" fill="#FBFAF9"/>
</g>
<defs>
<filter id="filter0_d_1138_27494" x="0.0546875" y="0.615234" width="461.853" height="329.652" filterUnits="userSpaceOnUse" color-interpolation-filters="sRGB">
<feFlood flood-opacity="0" result="BackgroundImageFix"/>
<feColorMatrix in="SourceAlpha" type="matrix" values="0 0 0 0 0 0 0 0 0 0 0 0 0 0 0 0 0 0 127 0" result="hardAlpha"/>
<feOffset dx="7.8354" dy="11.3178"/>
<feGaussianBlur stdDeviation="3.26475"/>
<feComposite in2="hardAlpha" operator="out"/>
<feColorMatrix type="matrix" values="0 0 0 0 0 0 0 0 0 0 0 0 0 0 0 0 0 0 0.17 0"/>
<feBlend mode="normal" in2="BackgroundImageFix" result="effect1_dropShadow_1138_27494"/>
<feBlend mode="normal" in="SourceGraphic" in2="effect1_dropShadow_1138_27494" result="shape"/>
</filter>
</defs>
</svg>
