<svg width="41" height="11" viewBox="0 0 41 11" fill="none" xmlns="http://www.w3.org/2000/svg">
<path d="M0.916016 10.5V0.601562H2.69336V4.79883H7.30078V0.601562H9.0918V10.5H7.30078V6.28906H2.69336V10.5H0.916016ZM19.7559 5.55078C19.7559 8.75 17.8145 10.6367 15.2168 10.6367C12.6191 10.6367 10.6777 8.73633 10.6777 5.55078C10.6777 2.35156 12.6191 0.464844 15.2168 0.464844C17.8145 0.464844 19.7559 2.35156 19.7559 5.55078ZM17.9648 5.55078C17.9648 3.29492 16.8301 2.06445 15.2168 2.06445C13.6035 2.06445 12.4688 3.29492 12.4688 5.55078C12.4688 7.80664 13.6035 9.03711 15.2168 9.03711C16.8301 9.03711 17.9648 7.80664 17.9648 5.55078ZM21.3418 0.601562H23.5293L26.4688 7.79297H26.5918L29.5312 0.601562H31.7188V10.5H30.0098V3.69141H29.9141L27.166 10.4727H25.8945L23.1465 3.66406H23.0645V10.5H21.3418V0.601562ZM33.5508 10.5V0.601562H39.9902V2.0918H35.3281V4.79883H39.6484V6.28906H35.3281V8.99609H40.0176V10.5H33.5508Z" fill="black"/>
</svg>
