<svg width="409" height="208" viewBox="0 0 409 208" fill="none" xmlns="http://www.w3.org/2000/svg">
<path d="M99.9997 183.334V75.0003M75.0164 150.017C61.2081 150.017 50.0164 138.525 50.0164 124.725C43.6072 123.811 37.6845 120.79 33.1813 116.139C28.6782 111.487 25.8505 105.47 25.144 99.0343C24.4374 92.5989 25.8921 86.1113 29.2788 80.5936C32.6655 75.076 37.7917 70.842 43.8497 68.5587C41.8143 64.0199 41.1791 58.9771 42.0255 54.0753C42.8718 49.1735 45.1612 44.6357 48.6008 41.0422C52.0403 37.4487 56.4737 34.963 61.3338 33.903C66.1938 32.8431 71.2596 33.2571 75.8831 35.092C77.3288 29.8012 80.4738 25.1325 84.8337 21.8047C89.1936 18.477 94.5265 16.6748 100.011 16.6758C105.496 16.6767 110.828 18.4807 115.187 21.81C119.546 25.1392 122.689 29.8091 124.133 35.1003C128.757 33.2654 133.822 32.8514 138.682 33.9114C143.542 34.9713 147.976 37.457 151.415 41.0505C154.855 44.644 157.144 49.1819 157.991 54.0836C158.837 58.9854 158.202 64.0282 156.166 68.567C162.214 70.857 167.33 75.0916 170.709 80.6052C174.089 86.1188 175.541 92.5991 174.837 99.0275C174.133 105.456 171.313 111.468 166.82 116.12C162.327 120.772 156.417 123.799 150.016 124.725C150.016 138.525 138.825 150.017 125.016 150.017M99.9997 125L120.833 104.167M99.9997 108.334L79.1664 87.5003M83.3331 183.334H116.666" stroke="black" stroke-width="1.5" stroke-linecap="round" stroke-linejoin="round"/>
<path d="M354.834 28.834H263.167L260.675 37.0507C254.141 58.6101 241.505 77.8167 224.292 92.3506L213.167 101.751V103.834M354.834 28.834L352.317 37.209C345.803 58.9315 333.099 78.2845 315.759 92.9006L305.25 101.751L302.75 103.834H213.167M354.834 28.834L357.35 37.209C363.867 58.9325 376.574 78.2856 393.917 92.9006L404.417 101.751L404.834 102.167V187.167H213.167V103.834M304.834 102.101V187.167M354.834 187.167V149.667" stroke="black"/>
</svg>
