<svg width="543" height="317" viewBox="0 0 543 317" fill="none" xmlns="http://www.w3.org/2000/svg">
<path d="M494.569 281.329L446.752 211.962L513.262 199.325L494.569 281.329Z" fill="#FFE28A"/>
<path d="M388.897 290.011L352.348 214.043L420.05 212.001L388.897 290.011Z" fill="#FFCC33"/>
<path d="M281.533 280.734L264.804 198.085L330.94 212.921L281.533 280.734Z" fill="#FFEBB0"/>
<path d="M177.502 241.638L183.94 157.559L243.515 189.986L177.502 241.638Z" fill="#FFE28A"/>
<path d="M89.2079 174.222L118.27 95.1008L166.732 142.704L89.2079 174.222Z" fill="#FFCC33"/>
<path d="M20.2483 86.4346L69.5138 18.1453L103.309 77.2126L20.2483 86.4346Z" fill="#FFE28A"/>
<path d="M540.91 189.309C540.91 189.309 385.923 241.777 251.317 189.309C116.711 136.84 69.6482 8.57694 69.6482 8.57694" stroke="#B58800" stroke-width="7.8354"/>
</svg>
