<svg width="88" height="88" viewBox="0 0 88 88" fill="none" xmlns="http://www.w3.org/2000/svg">
<path d="M7.41406 37.0859L80.5874 37.0859V76.2859L7.41406 76.2859L7.41406 37.0859Z" fill="#E8E8E8"/>
<path d="M43.4558 8.34368L7.84863 37.0868L80.5864 37.0868L44.5462 8.34049C44.2269 8.08584 43.7736 8.08716 43.4558 8.34368Z" fill="#BBBBBB"/>
<path fill-rule="evenodd" clip-rule="evenodd" d="M7.84863 37.0868L80.5864 37.0868L44.5462 8.34049C44.2269 8.08584 43.7736 8.08716 43.4558 8.34368L7.84863 37.0868ZM10.3146 36.2157L78.0973 36.2157L44.003 9.0215L10.3146 36.2157Z" fill="#BBBBBB"/>
<path fill-rule="evenodd" clip-rule="evenodd" d="M80.5874 37.0859L7.41406 37.0859L80.5874 76.2859V37.0859Z" fill="#BBBBBB"/>
<path d="M15.2529 19.6641C15.2529 19.183 15.6429 18.793 16.124 18.793L71.8752 18.793C72.3563 18.793 72.7463 19.183 72.7463 19.6641V64.0907C72.7463 64.5718 72.3563 64.9619 71.8752 64.9619H16.124C15.6429 64.9619 15.2529 64.5718 15.2529 64.0907L15.2529 19.6641Z" fill="#1E1E1E"/>
<path fill-rule="evenodd" clip-rule="evenodd" d="M80.5867 76.2859L44 56.6859L80.5867 37.0859V76.2859Z" fill="#BBBBBB"/>
<path fill-rule="evenodd" clip-rule="evenodd" d="M7.41406 76.2859L80.5874 76.2859L7.41406 37.0859L7.41406 76.2859Z" fill="#E8E8E8"/>
<path d="M68.3908 28.3761C68.3908 31.2627 66.0508 33.6027 63.1642 33.6027C60.2776 33.6027 57.9375 31.2627 57.9375 28.3761C57.9375 25.4895 60.2776 23.1494 63.1642 23.1494C66.0508 23.1494 68.3908 25.4895 68.3908 28.3761Z" fill="#FFB500"/>
<path d="M20.4795 24.0186L48.355 24.0186V27.503L20.4795 27.503V24.0186Z" fill="#FFB500"/>
<path d="M20.4795 29.2471L40.515 29.2471V32.7315H20.4795V29.2471Z" fill="#FFB500"/>
</svg>
