<svg width="158" height="25" viewBox="0 0 158 25" fill="none" xmlns="http://www.w3.org/2000/svg">
<path d="M150.142 24.9996C147.668 24.9996 145.576 24.2588 143.866 22.7773C142.192 21.2588 141.355 19.1848 141.355 16.5551C141.355 13.8144 142.174 11.6662 143.811 10.1107C145.485 8.55512 147.577 7.77734 150.087 7.77734C151.87 7.77734 153.343 8.11068 154.507 8.77734C155.672 9.44401 156.545 10.2959 157.127 11.3329C157.709 12.3699 158 13.4625 158 14.6107C158 16.5366 157.163 17.4996 155.49 17.4996H146.431C146.14 17.4996 145.994 17.6848 145.994 18.0551C145.994 18.907 146.449 19.5922 147.358 20.1107C148.304 20.5922 149.359 20.8329 150.524 20.8329C151.251 20.8329 151.979 20.7403 152.707 20.5551C153.434 20.3329 154.071 20.0181 154.617 19.6107C154.98 19.3514 155.362 19.2218 155.763 19.2218C156.308 19.2218 156.763 19.4255 157.127 19.8329C157.527 20.2403 157.727 20.7218 157.727 21.2773C157.727 21.944 157.382 22.5736 156.69 23.1662C156.035 23.7218 155.071 24.1662 153.798 24.4996C152.561 24.8329 151.342 24.9996 150.142 24.9996ZM152.979 14.2773C153.052 14.2773 153.143 14.2588 153.252 14.2218C153.398 14.1848 153.471 14.0551 153.471 13.8329C153.471 13.2773 153.125 12.7773 152.434 12.3329C151.779 11.8514 150.924 11.6107 149.869 11.6107C148.741 11.6107 147.813 11.8699 147.086 12.3885C146.394 12.8699 146.049 13.3699 146.049 13.8885C146.049 14.1477 146.194 14.2773 146.485 14.2773H152.979Z" fill="#6B5000"/>
<path d="M129.501 25C127.063 25 125.098 24.2222 123.607 22.6667C122.151 21.0741 121.424 18.963 121.424 16.3333C121.424 13.7037 122.133 11.6296 123.552 10.1111C125.007 8.55556 126.936 7.77778 129.337 7.77778C130.901 7.77778 132.302 8.35185 133.539 9.5V2.22222C133.539 1.59259 133.757 1.07407 134.194 0.666667C134.63 0.222223 135.194 0 135.886 0C136.613 0 137.195 0.222223 137.632 0.666667C138.105 1.07407 138.341 1.57407 138.341 2.16667V22.8333C138.341 23.463 138.105 23.9815 137.632 24.3889C137.195 24.7963 136.613 25 135.886 25C134.721 25 133.975 24.4815 133.648 23.4444C132.52 24.4815 131.138 25 129.501 25ZM129.883 20.5C130.974 20.5 131.847 20.1111 132.502 19.3333C133.193 18.5185 133.539 17.5185 133.539 16.3333C133.539 15.1111 133.193 14.1296 132.502 13.3889C131.847 12.6481 130.974 12.2778 129.883 12.2778C128.755 12.2778 127.845 12.6481 127.154 13.3889C126.499 14.1296 126.172 15.1111 126.172 16.3333C126.172 17.5185 126.499 18.5185 127.154 19.3333C127.845 20.1111 128.755 20.5 129.883 20.5Z" fill="#6B5000"/>
<path d="M115.752 25C115.061 25 114.479 24.7963 114.006 24.3889C113.533 23.9815 113.296 23.463 113.296 22.8333V10.2222C113.296 9.62963 113.514 9.12963 113.951 8.72222C114.424 8.27778 115.024 8.05556 115.752 8.05556C116.48 8.05556 117.043 8.27778 117.444 8.72222C117.88 9.12963 118.099 9.64815 118.099 10.2778V22.7778C118.099 23.4074 117.862 23.9444 117.389 24.3889C116.953 24.7963 116.407 25 115.752 25ZM115.752 5.27778C114.988 5.27778 114.333 5.03704 113.787 4.55556C113.242 4.03704 112.969 3.38889 112.969 2.61111C112.969 1.90741 113.242 1.2963 113.787 0.777778C114.333 0.25926 114.988 0 115.752 0C116.48 0 117.098 0.25926 117.607 0.777778C118.153 1.2963 118.426 1.90741 118.426 2.61111C118.426 3.38889 118.153 4.03704 117.607 4.55556C117.098 5.03704 116.48 5.27778 115.752 5.27778Z" fill="#6B5000"/>
<path d="M104.328 10.1662C104.328 9.46253 104.547 8.88845 104.983 8.44401C105.456 7.99956 106.038 7.77734 106.729 7.77734C107.421 7.77734 107.985 8.01808 108.421 8.49957C108.894 8.94401 109.131 9.49957 109.131 10.1662V17.9996C109.131 19.5181 108.749 20.8144 107.985 21.8885C107.221 22.9255 106.238 23.7033 105.038 24.2218C103.837 24.7403 102.564 24.9996 101.218 24.9996C99.9079 24.9996 98.6528 24.7403 97.4522 24.2218C96.2516 23.7033 95.2511 22.9255 94.4507 21.8885C93.6867 20.8144 93.3047 19.5181 93.3047 17.9996V10.1662C93.3047 9.46253 93.523 8.88845 93.9596 8.44401C94.4325 7.99956 95.0146 7.77734 95.7059 7.77734C96.3971 7.77734 96.961 8.01808 97.3976 8.49957C97.8706 8.94401 98.1071 9.49957 98.1071 10.1662V17.7773C98.1071 18.5551 98.3981 19.2033 98.9802 19.7218C99.5623 20.2403 100.308 20.4996 101.218 20.4996C102.127 20.4996 102.873 20.2403 103.455 19.7218C104.037 19.2033 104.328 18.5551 104.328 17.7773V10.1662Z" fill="#6B5000"/>
<path d="M79.171 24.9995C77.0245 24.9995 75.0781 24.481 73.3318 23.444C71.5855 22.4069 70.203 20.9995 69.1843 19.2218C68.1656 17.444 67.6562 15.4255 67.6562 13.1662C67.6562 10.9069 68.1474 8.90695 69.1297 7.1662C70.1484 5.38843 71.5491 3.98102 73.3318 2.94398C75.1145 1.90695 77.1337 1.38843 79.3893 1.38843C80.9901 1.38843 82.4272 1.59213 83.7005 1.99954C85.0103 2.40695 86.2109 3.0551 87.3023 3.94398C87.8844 4.42547 88.1755 5.0551 88.1755 5.83287C88.1755 6.4625 87.9572 6.99954 87.5206 7.44398C87.084 7.88843 86.5565 8.11065 85.938 8.11065C85.5378 8.11065 85.083 7.94398 84.5737 7.61065C83.7733 7.09213 82.9547 6.68473 82.1179 6.38843C81.2812 6.0551 80.3898 5.88843 79.4439 5.88843C77.4429 5.88843 75.7875 6.57361 74.4778 7.94398C73.2044 9.27732 72.5678 11.0181 72.5678 13.1662C72.5678 15.3884 73.1863 17.1662 74.4232 18.4995C75.6602 19.8329 77.2428 20.4995 79.171 20.4995C80.9537 20.4995 82.409 20.1477 83.5368 19.444C84.701 18.7032 85.2831 17.7588 85.2831 16.6107C85.2831 16.3144 85.1558 16.1662 84.9011 16.1662H81.2448C80.5535 16.1662 79.9896 15.9625 79.553 15.5551C79.1528 15.1477 78.9527 14.6106 78.9527 13.944C78.9527 13.3144 79.1528 12.7958 79.553 12.3884C79.9896 11.981 80.5535 11.7773 81.2448 11.7773H87.2477C88.23 11.7773 88.9395 12.0181 89.3761 12.4995C89.8126 12.944 90.0309 13.7032 90.0309 14.7773C90.0309 17.8884 89.0304 20.3699 87.0295 22.2218C85.0648 24.0736 82.4454 24.9995 79.171 24.9995Z" fill="#6B5000"/>
<path d="M56.7546 24.8329C56.0633 24.8329 55.4812 24.6292 55.0083 24.2218C54.5353 23.8144 54.2988 23.2959 54.2988 22.6662V10.2218C54.2988 9.62919 54.5171 9.1292 54.9537 8.72179C55.4267 8.27734 56.027 8.05512 56.7546 8.05512C57.4095 8.05512 57.937 8.25882 58.3372 8.66623C58.7738 9.0366 59.0284 9.49957 59.1012 10.0551C59.5014 9.42549 60.0471 8.88845 60.7384 8.44401C61.4296 7.99956 62.1573 7.77734 62.9213 7.77734C63.3942 7.77734 63.849 7.8329 64.2856 7.94401C64.7949 8.09216 65.2133 8.38846 65.5407 8.8329C65.8682 9.24031 66.0319 9.72179 66.0319 10.2773C66.0319 11.0551 65.7772 11.7033 65.2679 12.2218C64.7949 12.7033 64.231 12.8699 63.5761 12.7218C63.1032 12.6107 62.6302 12.5551 62.1573 12.5551C61.3205 12.5551 60.6292 12.8514 60.0835 13.444C59.5378 14.0366 59.2103 15.2403 59.1012 17.0551V22.6107C59.1012 23.2403 58.8647 23.7773 58.3918 24.2218C57.9552 24.6292 57.4095 24.8329 56.7546 24.8329Z" fill="#6B5000"/>
<path d="M43.1826 24.9996C40.7087 24.9996 38.6167 24.2588 36.9068 22.7773C35.2333 21.2588 34.3965 19.1848 34.3965 16.5551C34.3965 13.8144 35.2151 11.6662 36.8522 10.1107C38.5258 8.55512 40.6177 7.77734 43.1281 7.77734C44.9108 7.77734 46.3842 8.11068 47.5484 8.77734C48.7126 9.44401 49.5858 10.2959 50.1679 11.3329C50.75 12.3699 51.0411 13.4625 51.0411 14.6107C51.0411 16.5366 50.2043 17.4996 48.5307 17.4996H39.4717C39.1807 17.4996 39.0351 17.6848 39.0351 18.0551C39.0351 18.907 39.4899 19.5922 40.3994 20.1107C41.3454 20.5922 42.4004 20.8329 43.5646 20.8329C44.2923 20.8329 45.0199 20.7403 45.7475 20.5551C46.4752 20.3329 47.1118 20.0181 47.6576 19.6107C48.0214 19.3514 48.4034 19.2218 48.8036 19.2218C49.3493 19.2218 49.8041 19.4255 50.1679 19.8329C50.5681 20.2403 50.7682 20.7218 50.7682 21.2773C50.7682 21.944 50.4226 22.5736 49.7313 23.1662C49.0765 23.7218 48.1123 24.1662 46.839 24.4996C45.602 24.8329 44.3832 24.9996 43.1826 24.9996ZM46.0204 14.2773C46.0932 14.2773 46.1841 14.2588 46.2933 14.2218C46.4388 14.1848 46.5116 14.0551 46.5116 13.8329C46.5116 13.2773 46.1659 12.7773 45.4747 12.3329C44.8198 11.8514 43.9648 11.6107 42.9098 11.6107C41.7819 11.6107 40.8542 11.8699 40.1266 12.3885C39.4353 12.8699 39.0897 13.3699 39.0897 13.8885C39.0897 14.1477 39.2352 14.2773 39.5263 14.2773H46.0204Z" fill="#6B5000"/>
<path d="M24.937 24.9996C24.2821 24.9996 23.6636 24.8514 23.0815 24.5551C22.4994 24.2588 22.081 23.8144 21.8264 23.2218L16.5329 10.9996C16.4237 10.6662 16.3691 10.3329 16.3691 9.99957C16.3691 9.25883 16.6238 8.70327 17.1332 8.3329C17.6425 7.96253 18.2246 7.77734 18.8795 7.77734C19.3888 7.77734 19.8254 7.92549 20.1892 8.22179C20.5894 8.48105 20.8623 8.85142 21.0078 9.3329L24.2276 18.2773C24.4095 18.7588 24.6641 18.9996 24.9916 18.9996C25.2826 18.9996 25.5191 18.7588 25.701 18.2773L28.7025 9.3329C28.8844 8.81438 29.1755 8.42549 29.5757 8.16623C29.9759 7.90697 30.4124 7.77734 30.8854 7.77734C31.5039 7.77734 32.0496 7.98105 32.5226 8.38846C33.0319 8.75883 33.2866 9.3329 33.2866 10.1107C33.2866 10.2588 33.2866 10.407 33.2866 10.5551C33.2866 10.6662 33.2502 10.8144 33.1774 10.9996L28.0476 23.2218C27.793 23.8144 27.3746 24.2588 26.7925 24.5551C26.2467 24.8514 25.6283 24.9996 24.937 24.9996Z" fill="#6B5000"/>
<path d="M3.54721 24.4441C2.49214 24.4441 1.63717 24.1108 0.982303 23.4441C0.327434 22.7774 0 21.9071 0 20.833V5.38854C0 4.31446 0.309243 3.48113 0.927731 2.88854C1.54622 2.25891 2.3648 1.94409 3.38349 1.94409H11.6239C13.1519 1.94409 13.916 2.68483 13.916 4.16631C13.916 4.79594 13.6977 5.33298 13.2611 5.77742C12.8245 6.18483 12.2788 6.38854 11.6239 6.38854H6.00296C5.27533 6.38854 4.91152 6.75891 4.91152 7.49965V9.72187C4.91152 10.4626 5.27533 10.833 6.00296 10.833H10.8053C11.533 10.833 12.0969 11.0367 12.4971 11.4441C12.8973 11.8515 13.0974 12.3885 13.0974 13.0552C13.0974 13.6478 12.8609 14.1663 12.3879 14.6108C11.9514 15.0552 11.4238 15.2774 10.8053 15.2774H6.00296C5.27533 15.2774 4.91152 15.6478 4.91152 16.3885V18.833C4.91152 19.5737 5.27533 19.9441 6.00296 19.9441H12.1696C12.8609 19.9441 13.4066 20.1478 13.8068 20.5552C14.2434 20.9626 14.4617 21.5182 14.4617 22.2219C14.4617 22.8515 14.2434 23.3885 13.8068 23.833C13.3702 24.2404 12.8245 24.4441 12.1696 24.4441H3.54721Z" fill="#6B5000"/>
</svg>
