<svg width="40" height="40" viewBox="0 0 40 40" fill="none" xmlns="http://www.w3.org/2000/svg">
<circle cx="20" cy="20" r="20" fill="#FEE500"/>
<path d="M20.0569 9.65259C13.8345 9.65259 8.81641 13.667 8.81641 18.5406C8.81641 21.704 10.9039 24.4739 14.0352 26.0556L12.9754 30.0139C12.9554 30.0733 12.9523 30.1369 12.9665 30.1979C12.9807 30.2589 13.0116 30.3147 13.0557 30.3591C13.12 30.4158 13.2028 30.4472 13.2885 30.4474C13.3596 30.4417 13.4271 30.4136 13.4812 30.3672L18.0416 27.2921C18.7148 27.385 19.3934 27.4333 20.073 27.4366C26.2873 27.4366 31.3135 23.4222 31.3135 18.5406C31.3135 13.659 26.2713 9.65259 20.0569 9.65259Z" fill="#392020"/>
<path d="M12.7511 17.1355H11.5226C11.3704 17.1399 11.22 17.1009 11.0891 17.0231C11.0309 16.9866 10.981 16.9386 10.9423 16.8819C10.9036 16.8253 10.877 16.7612 10.8643 16.6938C10.8604 16.6511 10.8604 16.6082 10.8643 16.5655C10.8604 16.4855 10.876 16.4058 10.9095 16.3331C10.943 16.2604 10.9936 16.1969 11.0569 16.1479C11.1969 16.0466 11.3659 15.993 11.5387 15.9953H15.24C15.3935 15.9899 15.5449 16.032 15.6736 16.1158C15.7331 16.1506 15.7841 16.1982 15.823 16.2552C15.8619 16.3121 15.8876 16.3769 15.8984 16.445C15.9023 16.485 15.9023 16.5254 15.8984 16.5655C15.9022 16.6466 15.8867 16.7274 15.8532 16.8014C15.8197 16.8753 15.7692 16.9403 15.7057 16.9909C15.5691 17.0922 15.4018 17.1433 15.232 17.1355H14.0437V21.3587C14.0485 21.4487 14.0346 21.5386 14.0028 21.6229C13.971 21.7072 13.9221 21.7841 13.859 21.8485C13.7986 21.91 13.7259 21.9583 13.6457 21.9901C13.5655 22.0219 13.4796 22.0365 13.3934 22.0331C13.2426 22.0374 13.095 21.9892 12.9759 21.8967C12.8624 21.8063 12.7855 21.6779 12.7591 21.5353C12.7511 21.4767 12.7511 21.4173 12.7591 21.3587L12.7511 17.1355Z" fill="#FEE500"/>
<path d="M16.252 16.3084C16.2873 16.1763 16.3702 16.0619 16.4848 15.9872C16.6069 15.918 16.746 15.8846 16.8863 15.8909H17.1913C17.3401 15.8855 17.4875 15.9217 17.6169 15.9953C17.754 16.0875 17.8515 16.2279 17.8899 16.3887L19.4957 20.925C19.5373 21.0434 19.5721 21.1641 19.6 21.2864C19.6028 21.3372 19.6028 21.3881 19.6 21.4389C19.6027 21.5171 19.5883 21.595 19.5578 21.6672C19.5273 21.7393 19.4814 21.8039 19.4234 21.8564C19.3671 21.9141 19.2996 21.9595 19.225 21.9899C19.1504 22.0203 19.0704 22.035 18.9898 22.033C18.866 22.0453 18.7416 22.0156 18.6367 21.9486C18.5319 21.8816 18.4526 21.7813 18.4117 21.6637L18.0745 20.6762H15.9629L15.6257 21.6637C15.5858 21.7836 15.5056 21.8859 15.3987 21.9532C15.2919 22.0206 15.1649 22.0488 15.0396 22.033C14.9038 22.0366 14.7708 21.9941 14.6622 21.9126C14.5564 21.8284 14.485 21.7086 14.4615 21.5754C14.4573 21.53 14.4573 21.4843 14.4615 21.4389C14.4477 21.3592 14.4477 21.2778 14.4615 21.1981C14.4615 21.1098 14.5177 21.0133 14.5498 20.925L16.252 16.3084ZM17.0549 17.3602L16.2921 19.7689H17.8096L17.0549 17.3602Z" fill="#FEE500"/>
<path d="M19.7839 16.5656C19.7757 16.3854 19.8392 16.2093 19.9605 16.0758C20.0222 16.0136 20.0962 15.965 20.1778 15.9332C20.2594 15.9014 20.3468 15.887 20.4342 15.891C20.5846 15.8893 20.7314 15.9373 20.8517 16.0276C20.9633 16.1218 21.0373 16.2528 21.0605 16.3969C21.0684 16.4528 21.0684 16.5096 21.0605 16.5656V20.7888H23.2685C23.4215 20.7868 23.5719 20.8285 23.702 20.9091C23.7605 20.9452 23.8107 20.9932 23.8494 21.0499C23.8882 21.1066 23.9145 21.1708 23.9268 21.2383C23.9268 21.2383 23.9268 21.3187 23.9268 21.3588C23.9306 21.4388 23.9151 21.5184 23.8816 21.5911C23.848 21.6638 23.7975 21.7273 23.7341 21.7763C23.5942 21.8777 23.4252 21.9311 23.2524 21.9288H20.5386C20.3658 21.9399 20.194 21.895 20.0489 21.8004C19.919 21.7034 19.8325 21.5592 19.808 21.399C19.8021 21.3108 19.8021 21.2222 19.808 21.134L19.7839 16.5656Z" fill="#FEE500"/>
<path d="M24.0717 16.5657C24.0669 16.3861 24.13 16.2112 24.2483 16.076C24.3687 15.9666 24.523 15.902 24.6854 15.8933C24.8477 15.8845 25.0081 15.932 25.1395 16.0277C25.2535 16.1211 25.3304 16.252 25.3563 16.397C25.3603 16.4532 25.3603 16.5096 25.3563 16.5657V18.5328L27.3876 16.1883C27.4659 16.1083 27.549 16.0333 27.6365 15.9635C27.719 15.9144 27.8136 15.8893 27.9095 15.8912C28.0499 15.8904 28.1871 15.9325 28.3029 16.0117C28.3575 16.0484 28.4042 16.0959 28.44 16.151C28.4759 16.2062 28.5003 16.268 28.5117 16.3328C28.5149 16.3487 28.5149 16.3652 28.5117 16.3811C28.5078 16.3996 28.5078 16.4187 28.5117 16.4372C28.5114 16.5217 28.4893 16.6047 28.4475 16.6781C28.4049 16.7559 28.3537 16.8285 28.2949 16.8948L26.9621 18.3561L28.5679 20.8451V20.9254C28.6513 21.0404 28.7163 21.1678 28.7606 21.3028V21.3429C28.7699 21.4359 28.7565 21.5298 28.7215 21.6165C28.6866 21.7032 28.6311 21.7801 28.5599 21.8407C28.4259 21.9419 28.2621 21.9956 28.0942 21.9933C27.9826 21.9979 27.8719 21.9729 27.773 21.9209C27.6661 21.8492 27.578 21.7529 27.5161 21.64L26.0227 19.2313L25.3082 19.978V21.3188C25.313 21.4984 25.2499 21.6733 25.1315 21.8085C25.0681 21.8705 24.9926 21.919 24.9097 21.9507C24.8269 21.9825 24.7384 21.997 24.6498 21.9933C24.5016 21.9964 24.357 21.9481 24.2403 21.8567C24.1269 21.7663 24.0499 21.6381 24.0235 21.4955C24.0156 21.4369 24.0156 21.3774 24.0235 21.3188L24.0717 16.5657Z" fill="#FEE500"/>
</svg>
