<svg width="248" height="41" viewBox="0 0 248 41" fill="none" xmlns="http://www.w3.org/2000/svg">
<path d="M235.666 40.4989C231.783 40.4989 228.499 39.3137 225.815 36.9434C223.188 34.5137 221.875 31.1952 221.875 26.9878C221.875 22.6026 223.16 19.1656 225.73 16.6767C228.356 14.1878 231.64 12.9434 235.58 12.9434C238.378 12.9434 240.691 13.4767 242.518 14.5434C244.346 15.61 245.716 16.973 246.63 18.6322C247.544 20.2915 248 22.0397 248 23.8767C248 26.9582 246.687 28.4989 244.06 28.4989H229.841C229.384 28.4989 229.156 28.7952 229.156 29.3878C229.156 30.7508 229.87 31.8471 231.297 32.6767C232.782 33.4471 234.438 33.8322 236.265 33.8322C237.407 33.8322 238.55 33.6841 239.692 33.3878C240.834 33.0322 241.833 32.5285 242.69 31.8767C243.261 31.4619 243.86 31.2545 244.488 31.2545C245.345 31.2545 246.059 31.5804 246.63 32.2323C247.258 32.8841 247.572 33.6545 247.572 34.5434C247.572 35.61 247.03 36.6174 245.945 37.5656C244.917 38.4545 243.403 39.1656 241.405 39.6989C239.463 40.2322 237.55 40.4989 235.666 40.4989ZM240.12 23.3434C240.234 23.3434 240.377 23.3137 240.548 23.2545C240.777 23.1952 240.891 22.9878 240.891 22.6322C240.891 21.7434 240.348 20.9434 239.263 20.2322C238.236 19.4619 236.894 19.0767 235.237 19.0767C233.467 19.0767 232.011 19.4915 230.869 20.3211C229.784 21.0915 229.242 21.8915 229.242 22.7211C229.242 23.1359 229.47 23.3434 229.927 23.3434H240.12Z" fill="black"/>
<path d="M203.267 40.5C199.441 40.5 196.357 39.2556 194.016 36.7667C191.732 34.2185 190.59 30.8407 190.59 26.6333C190.59 22.4259 191.703 19.1074 193.93 16.6778C196.215 14.1889 199.241 12.9444 203.01 12.9444C205.466 12.9444 207.664 13.863 209.606 15.7V4.05556C209.606 3.04815 209.948 2.21852 210.634 1.56667C211.319 0.855557 212.204 0.5 213.289 0.5C214.431 0.5 215.345 0.855557 216.03 1.56667C216.772 2.21852 217.144 3.01852 217.144 3.96667V37.0333C217.144 38.0407 216.772 38.8704 216.03 39.5222C215.345 40.1741 214.431 40.5 213.289 40.5C211.462 40.5 210.291 39.6704 209.777 38.0111C208.007 39.6704 205.837 40.5 203.267 40.5ZM203.867 33.3C205.58 33.3 206.95 32.6778 207.978 31.4333C209.063 30.1296 209.606 28.5296 209.606 26.6333C209.606 24.6778 209.063 23.1074 207.978 21.9222C206.95 20.737 205.58 20.1444 203.867 20.1444C202.096 20.1444 200.669 20.737 199.584 21.9222C198.556 23.1074 198.042 24.6778 198.042 26.6333C198.042 28.5296 198.556 30.1296 199.584 31.4333C200.669 32.6778 202.096 33.3 203.867 33.3Z" fill="black"/>
<path d="M181.689 40.5C180.604 40.5 179.69 40.1741 178.948 39.5222C178.205 38.8704 177.834 38.0407 177.834 37.0333V16.8556C177.834 15.9074 178.177 15.1074 178.862 14.4556C179.605 13.7444 180.547 13.3889 181.689 13.3889C182.831 13.3889 183.716 13.7444 184.344 14.4556C185.029 15.1074 185.372 15.937 185.372 16.9444V36.9444C185.372 37.9519 185.001 38.8111 184.259 39.5222C183.573 40.1741 182.717 40.5 181.689 40.5ZM181.689 8.94444C180.49 8.94444 179.462 8.55926 178.605 7.78889C177.749 6.95926 177.32 5.92222 177.32 4.67778C177.32 3.55185 177.749 2.57407 178.605 1.74445C179.462 0.914816 180.49 0.5 181.689 0.5C182.831 0.5 183.802 0.914816 184.601 1.74445C185.458 2.57407 185.886 3.55185 185.886 4.67778C185.886 5.92222 185.458 6.95926 184.601 7.78889C183.802 8.55926 182.831 8.94444 181.689 8.94444Z" fill="black"/>
<path d="M163.754 16.7656C163.754 15.6397 164.097 14.7211 164.782 14.01C165.524 13.2989 166.438 12.9434 167.523 12.9434C168.608 12.9434 169.493 13.3285 170.178 14.0989C170.921 14.81 171.292 15.6989 171.292 16.7656V29.2989C171.292 31.7285 170.692 33.8026 169.493 35.5211C168.294 37.1804 166.752 38.4248 164.867 39.2545C162.983 40.0841 160.984 40.4989 158.871 40.4989C156.816 40.4989 154.846 40.0841 152.961 39.2545C151.077 38.4248 149.506 37.1804 148.25 35.5211C147.051 33.8026 146.451 31.7285 146.451 29.2989V16.7656C146.451 15.6397 146.794 14.7211 147.479 14.01C148.221 13.2989 149.135 12.9434 150.22 12.9434C151.305 12.9434 152.19 13.3285 152.875 14.0989C153.618 14.81 153.989 15.6989 153.989 16.7656V28.9434C153.989 30.1878 154.446 31.2248 155.36 32.0545C156.273 32.8841 157.444 33.2989 158.871 33.2989C160.299 33.2989 161.47 32.8841 162.383 32.0545C163.297 31.2248 163.754 30.1878 163.754 28.9434V16.7656Z" fill="black"/>
<path d="M124.269 40.5004C120.9 40.5004 117.845 39.6708 115.104 38.0115C112.363 36.3523 110.193 34.1004 108.594 31.256C106.995 28.4115 106.195 25.1819 106.195 21.5671C106.195 17.9523 106.966 14.7523 108.508 11.9671C110.107 9.12265 112.306 6.8708 115.104 5.21155C117.902 3.55229 121.071 2.72266 124.612 2.72266C127.124 2.72266 129.38 3.04858 131.378 3.70044C133.434 4.35229 135.319 5.38932 137.032 6.81155C137.946 7.58192 138.402 8.58932 138.402 9.83377C138.402 10.8412 138.06 11.7004 137.374 12.4115C136.689 13.1227 135.861 13.4782 134.89 13.4782C134.262 13.4782 133.548 13.2115 132.749 12.6782C131.493 11.8486 130.208 11.1967 128.894 10.7227C127.581 10.1893 126.182 9.92266 124.697 9.92266C121.556 9.92266 118.958 11.0189 116.902 13.2115C114.904 15.3449 113.904 18.1301 113.904 21.5671C113.904 25.1227 114.875 27.9671 116.817 30.1004C118.758 32.2338 121.242 33.3004 124.269 33.3004C127.067 33.3004 129.351 32.7375 131.122 31.6115C132.949 30.4264 133.863 28.9152 133.863 27.0782C133.863 26.6041 133.663 26.3671 133.263 26.3671H127.524C126.439 26.3671 125.554 26.0412 124.869 25.3893C124.24 24.7375 123.926 23.8782 123.926 22.8115C123.926 21.8041 124.24 20.9745 124.869 20.3226C125.554 19.6708 126.439 19.3449 127.524 19.3449H136.946C138.488 19.3449 139.602 19.7301 140.287 20.5004C140.972 21.2115 141.315 22.4264 141.315 24.1449C141.315 29.1227 139.744 33.093 136.604 36.056C133.52 39.0189 129.408 40.5004 124.269 40.5004Z" fill="black"/>
<path d="M89.0831 40.2322C87.9981 40.2322 87.0844 39.9063 86.3421 39.2545C85.5997 38.6026 85.2285 37.773 85.2285 36.7656V16.8545C85.2285 15.9063 85.5711 15.1063 86.2564 14.4545C86.9988 13.7434 87.941 13.3878 89.0831 13.3878C90.111 13.3878 90.939 13.7137 91.5671 14.3656C92.2524 14.9582 92.6521 15.6989 92.7663 16.5878C93.3945 15.5804 94.2511 14.7211 95.336 14.01C96.421 13.2989 97.5631 12.9434 98.7623 12.9434C99.5047 12.9434 100.218 13.0322 100.904 13.21C101.703 13.4471 102.36 13.9211 102.874 14.6322C103.388 15.2841 103.645 16.0545 103.645 16.9434C103.645 18.1878 103.245 19.2248 102.446 20.0545C101.703 20.8248 100.818 21.0915 99.7902 20.8545C99.0479 20.6767 98.3055 20.5878 97.5631 20.5878C96.2497 20.5878 95.1647 21.0619 94.3082 22.01C93.4516 22.9582 92.9376 24.8841 92.7663 27.7878V36.6767C92.7663 37.6841 92.3952 38.5434 91.6528 39.2545C90.9675 39.9063 90.111 40.2322 89.0831 40.2322Z" fill="black"/>
<path d="M67.7771 40.4989C63.894 40.4989 60.6105 39.3137 57.9265 36.9434C55.2997 34.5137 53.9863 31.1952 53.9863 26.9878C53.9863 22.6026 55.2712 19.1656 57.8409 16.6767C60.4677 14.1878 63.7512 12.9434 67.6915 12.9434C70.4896 12.9434 72.8023 13.4767 74.6297 14.5434C76.457 15.61 77.8275 16.973 78.7412 18.6322C79.6549 20.2915 80.1117 22.0397 80.1117 23.8767C80.1117 26.9582 78.7983 28.4989 76.1715 28.4989H61.9524C61.4956 28.4989 61.2672 28.7952 61.2672 29.3878C61.2672 30.7508 61.981 31.8471 63.4086 32.6767C64.8933 33.4471 66.5494 33.8322 68.3767 33.8322C69.5188 33.8322 70.6609 33.6841 71.803 33.3878C72.9451 33.0322 73.9444 32.5285 74.801 31.8767C75.372 31.4619 75.9716 31.2545 76.5998 31.2545C77.4564 31.2545 78.1702 31.5804 78.7412 32.2323C79.3694 32.8841 79.6834 33.6545 79.6834 34.5434C79.6834 35.61 79.1409 36.6174 78.056 37.5656C77.0281 38.4545 75.5148 39.1656 73.5161 39.6989C71.5746 40.2322 69.6616 40.4989 67.7771 40.4989ZM72.2313 23.3434C72.3455 23.3434 72.4882 23.3137 72.6596 23.2545C72.888 23.1952 73.0022 22.9878 73.0022 22.6322C73.0022 21.7434 72.4597 20.9434 71.3747 20.2322C70.3468 19.4619 69.0049 19.0767 67.3488 19.0767C65.5786 19.0767 64.1224 19.4915 62.9803 20.3211C61.8953 21.0915 61.3528 21.8915 61.3528 22.7211C61.3528 23.1359 61.5813 23.3434 62.0381 23.3434H72.2313Z" fill="black"/>
<path d="M39.1435 40.4989C38.1156 40.4989 37.1448 40.2619 36.2311 39.7878C35.3175 39.3137 34.6607 38.6026 34.261 37.6545L25.9523 18.0989C25.781 17.5656 25.6953 17.0322 25.6953 16.4989C25.6953 15.3137 26.095 14.4248 26.8945 13.8322C27.694 13.2397 28.6077 12.9434 29.6355 12.9434C30.435 12.9434 31.1203 13.1804 31.6913 13.6545C32.3195 14.0693 32.7477 14.6619 32.9762 15.4322L38.0299 29.7434C38.3154 30.5137 38.7152 30.8989 39.2291 30.8989C39.686 30.8989 40.0571 30.5137 40.3427 29.7434L45.0538 15.4322C45.3393 14.6026 45.7962 13.9804 46.4243 13.5656C47.0525 13.1508 47.7377 12.9434 48.4801 12.9434C49.4509 12.9434 50.3074 13.2693 51.0498 13.9211C51.8493 14.5137 52.249 15.4323 52.249 16.6767C52.249 16.9137 52.249 17.1508 52.249 17.3878C52.249 17.5656 52.1919 17.8026 52.0777 18.0989L44.0259 37.6545C43.6262 38.6026 42.9695 39.3137 42.0558 39.7878C41.1992 40.2619 40.2285 40.4989 39.1435 40.4989Z" fill="black"/>
<path d="M5.56771 39.6113C3.91167 39.6113 2.56971 39.078 1.54183 38.0113C0.513942 36.9447 0 35.5521 0 33.8335V9.12244C0 7.40392 0.48539 6.07059 1.45617 5.12244C2.42695 4.11503 3.71181 3.61133 5.31074 3.61133H18.245C20.6434 3.61133 21.8425 4.79651 21.8425 7.16688C21.8425 8.17429 21.4999 9.03355 20.8147 9.74466C20.1294 10.3965 19.2728 10.7224 18.245 10.7224H9.42228C8.28018 10.7224 7.70914 11.315 7.70914 12.5002V16.0558C7.70914 17.241 8.28018 17.8336 9.42228 17.8336H16.9601C18.1022 17.8336 18.9873 18.1595 19.6155 18.8113C20.2436 19.4632 20.5577 20.3224 20.5577 21.3891C20.5577 22.3373 20.1865 23.1669 19.4442 23.878C18.7589 24.5891 17.9309 24.9447 16.9601 24.9447H9.42228C8.28018 24.9447 7.70914 25.5373 7.70914 26.7224V30.6336C7.70914 31.8187 8.28018 32.4113 9.42228 32.4113H19.1015C20.1865 32.4113 21.0431 32.7373 21.6712 33.3891C22.3565 34.041 22.6991 34.9298 22.6991 36.0558C22.6991 37.0632 22.3565 37.9224 21.6712 38.6335C20.986 39.2854 20.1294 39.6113 19.1015 39.6113H5.56771Z" fill="black"/>
</svg>
