<svg width="168" height="72" viewBox="0 0 168 72" fill="none" xmlns="http://www.w3.org/2000/svg">
<g filter="url(#filter0_ii_1081_5980)">
<path d="M13.213 46.0217C6.82747 40.9527 6.11148 31.4214 11.6662 25.4309C17.2579 19.4005 26.7642 19.5833 32.1263 25.8242L36.5779 31.0054C44.7822 40.5544 44.5147 54.851 35.959 64.0778L13.213 46.0217Z" fill="#FF515A"/>
<path d="M22.8734 15.1474C22.8734 17.781 20.7671 19.916 18.169 19.916C15.5708 19.916 13.4646 17.781 13.4646 15.1474C13.4646 12.5138 15.5708 10.3789 18.169 10.3789C20.7671 10.3789 22.8734 12.5138 22.8734 15.1474Z" fill="#FF515A"/>
</g>
<g filter="url(#filter1_ii_1081_5980)">
<path d="M58.7931 45.9258C65.1787 40.8568 65.8946 31.3255 60.3399 25.335C54.7482 19.3046 45.2419 19.4874 39.8798 25.7283L31.7981 35.1346C25.6547 42.285 25.855 52.9903 32.2615 59.8994L36.0471 63.9819L58.7931 45.9258Z" fill="#FFDA62"/>
<path d="M59.2968 13.4556C59.2968 16.514 56.8508 18.9933 53.8336 18.9933C50.8164 18.9933 48.3704 16.514 48.3704 13.4556C48.3704 10.3973 50.8164 7.91797 53.8336 7.91797C56.8508 7.91797 59.2968 10.3973 59.2968 13.4556Z" fill="#FFDA62"/>
</g>
<g filter="url(#filter2_ii_1081_5980)">
<ellipse cx="36.2238" cy="21.762" rx="2.73158" ry="2.76882" fill="#FEA95B"/>
</g>
<g filter="url(#filter3_f_1081_5980)">
<path d="M35.7676 30.377L31.6028 35.2243C25.4594 42.3747 25.6597 53.08 32.0662 59.9891L35.8518 64.0716L35.8626 64.063C44.3236 54.8331 44.5582 40.6083 36.3849 31.0954L35.7676 30.377Z" fill="#FEA95B"/>
</g>
<g filter="url(#filter4_f_1081_5980)">
<path d="M35.4859 34.6836L32.3341 38.3128C27.6848 43.6662 27.8364 51.6813 32.6848 56.8541L35.5496 59.9106L35.5579 59.9042C41.961 52.9938 42.1386 42.3438 35.9531 35.2215L35.4859 34.6836Z" fill="#FF975F"/>
</g>
<path d="M161.534 47.9995C159.498 47.9995 157.777 47.4069 156.37 46.2217C154.993 45.0069 154.305 43.3476 154.305 41.2439C154.305 39.0513 154.978 37.3328 156.325 36.0883C157.702 34.8439 159.423 34.2217 161.489 34.2217C162.956 34.2217 164.168 34.4883 165.126 35.0217C166.084 35.555 166.802 36.2365 167.281 37.0661C167.76 37.8958 168 38.7698 168 39.6883C168 41.2291 167.311 41.9995 165.934 41.9995H158.481C158.241 41.9995 158.121 42.1476 158.121 42.4439C158.121 43.1254 158.495 43.6735 159.244 44.0883C160.022 44.4735 160.89 44.6661 161.848 44.6661C162.447 44.6661 163.045 44.592 163.644 44.4439C164.243 44.2661 164.767 44.0143 165.216 43.6883C165.515 43.4809 165.829 43.3772 166.159 43.3772C166.608 43.3772 166.982 43.5402 167.281 43.8661C167.61 44.192 167.775 44.5772 167.775 45.0217C167.775 45.555 167.491 46.0587 166.922 46.5328C166.383 46.9772 165.59 47.3328 164.542 47.5995C163.524 47.8661 162.522 47.9995 161.534 47.9995ZM163.869 39.4217C163.929 39.4217 164.003 39.4069 164.093 39.3772C164.213 39.3476 164.273 39.2439 164.273 39.0661C164.273 38.6217 163.988 38.2217 163.42 37.8661C162.881 37.4809 162.177 37.2883 161.309 37.2883C160.381 37.2883 159.618 37.4958 159.019 37.9106C158.451 38.2958 158.166 38.6958 158.166 39.1106C158.166 39.318 158.286 39.4217 158.525 39.4217H163.869Z" fill="#6B5000"/>
<path d="M144.552 48C142.546 48 140.93 47.3778 139.702 46.1333C138.505 44.8593 137.906 43.1704 137.906 41.0667C137.906 38.963 138.49 37.3037 139.657 36.0889C140.855 34.8444 142.441 34.2222 144.417 34.2222C145.704 34.2222 146.857 34.6815 147.874 35.6V29.7778C147.874 29.2741 148.054 28.8593 148.413 28.5333C148.772 28.1778 149.236 28 149.805 28C150.404 28 150.883 28.1778 151.242 28.5333C151.631 28.8593 151.826 29.2593 151.826 29.7333V46.2667C151.826 46.7704 151.631 47.1852 151.242 47.5111C150.883 47.837 150.404 48 149.805 48C148.847 48 148.234 47.5852 147.964 46.7556C147.036 47.5852 145.899 48 144.552 48ZM144.866 44.4C145.764 44.4 146.482 44.0889 147.021 43.4667C147.59 42.8148 147.874 42.0148 147.874 41.0667C147.874 40.0889 147.59 39.3037 147.021 38.7111C146.482 38.1185 145.764 37.8222 144.866 37.8222C143.938 37.8222 143.19 38.1185 142.621 38.7111C142.082 39.3037 141.813 40.0889 141.813 41.0667C141.813 42.0148 142.082 42.8148 142.621 43.4667C143.19 44.0889 143.938 44.4 144.866 44.4Z" fill="#6B5000"/>
<path d="M133.243 48C132.674 48 132.195 47.837 131.806 47.5111C131.417 47.1852 131.223 46.7704 131.223 46.2667V36.1778C131.223 35.7037 131.402 35.3037 131.761 34.9778C132.15 34.6222 132.644 34.4444 133.243 34.4444C133.842 34.4444 134.306 34.6222 134.635 34.9778C134.994 35.3037 135.174 35.7185 135.174 36.2222V46.2222C135.174 46.7259 134.979 47.1556 134.59 47.5111C134.231 47.837 133.782 48 133.243 48ZM133.243 32.2222C132.614 32.2222 132.076 32.0296 131.627 31.6444C131.178 31.2296 130.953 30.7111 130.953 30.0889C130.953 29.5259 131.178 29.037 131.627 28.6222C132.076 28.2074 132.614 28 133.243 28C133.842 28 134.351 28.2074 134.77 28.6222C135.219 29.037 135.443 29.5259 135.443 30.0889C135.443 30.7111 135.219 31.2296 134.77 31.6444C134.351 32.0296 133.842 32.2222 133.243 32.2222Z" fill="#6B5000"/>
<path d="M123.836 36.1328C123.836 35.5698 124.015 35.1106 124.375 34.755C124.764 34.3995 125.243 34.2217 125.811 34.2217C126.38 34.2217 126.844 34.4143 127.203 34.7995C127.592 35.155 127.787 35.5995 127.787 36.1328V42.3995C127.787 43.6143 127.473 44.6513 126.844 45.5106C126.215 46.3402 125.407 46.9624 124.419 47.3772C123.432 47.792 122.384 47.9995 121.276 47.9995C120.199 47.9995 119.166 47.792 118.178 47.3772C117.19 46.9624 116.367 46.3402 115.709 45.5106C115.08 44.6513 114.766 43.6143 114.766 42.3995V36.1328C114.766 35.5698 114.945 35.1106 115.304 34.755C115.694 34.3995 116.173 34.2217 116.741 34.2217C117.31 34.2217 117.774 34.4143 118.133 34.7995C118.522 35.155 118.717 35.5995 118.717 36.1328V42.2217C118.717 42.8439 118.956 43.3624 119.435 43.7772C119.914 44.192 120.528 44.3995 121.276 44.3995C122.025 44.3995 122.638 44.192 123.117 43.7772C123.596 43.3624 123.836 42.8439 123.836 42.2217V36.1328Z" fill="#6B5000"/>
<path d="M103.138 47.9992C101.372 47.9992 99.7706 47.5844 98.3338 46.7548C96.897 45.9252 95.7595 44.7992 94.9213 43.377C94.0831 41.9548 93.6641 40.34 93.6641 38.5326C93.6641 36.7252 94.0682 35.1252 94.8764 33.7326C95.7146 32.3104 96.867 31.1844 98.3338 30.3548C99.8006 29.5252 101.462 29.1104 103.318 29.1104C104.635 29.1104 105.817 29.2733 106.865 29.5992C107.943 29.9252 108.931 30.4437 109.829 31.1548C110.307 31.54 110.547 32.0437 110.547 32.6659C110.547 33.1696 110.367 33.5992 110.008 33.9548C109.649 34.3104 109.215 34.4881 108.706 34.4881C108.377 34.4881 108.003 34.3548 107.583 34.0881C106.925 33.6733 106.251 33.3474 105.563 33.1104C104.874 32.8437 104.141 32.7104 103.363 32.7104C101.716 32.7104 100.354 33.2585 99.2767 34.3548C98.229 35.4215 97.7052 36.8141 97.7052 38.5326C97.7052 40.3104 98.2141 41.7326 99.2318 42.7992C100.25 43.8659 101.552 44.3992 103.138 44.3992C104.605 44.3992 105.802 44.1178 106.73 43.5548C107.688 42.9622 108.167 42.2066 108.167 41.2881C108.167 41.0511 108.062 40.9326 107.853 40.9326H104.844C104.276 40.9326 103.812 40.7696 103.453 40.4437C103.123 40.1178 102.959 39.6881 102.959 39.1548C102.959 38.6511 103.123 38.2363 103.453 37.9103C103.812 37.5844 104.276 37.4215 104.844 37.4215H109.784C110.592 37.4215 111.176 37.6141 111.535 37.9992C111.894 38.3548 112.074 38.9622 112.074 39.8215C112.074 42.3104 111.25 44.2955 109.604 45.777C107.988 47.2585 105.832 47.9992 103.138 47.9992Z" fill="#6B5000"/>
<path d="M84.7002 47.8661C84.1315 47.8661 83.6525 47.7032 83.2634 47.3772C82.8743 47.0513 82.6797 46.6365 82.6797 46.1328V36.1772C82.6797 35.7032 82.8593 35.3032 83.2185 34.9772C83.6076 34.6217 84.1016 34.4439 84.7002 34.4439C85.2391 34.4439 85.6731 34.6069 86.0024 34.9328C86.3616 35.2291 86.5711 35.5995 86.631 36.0439C86.9603 35.5402 87.4093 35.1106 87.978 34.755C88.5468 34.3995 89.1455 34.2217 89.7741 34.2217C90.1632 34.2217 90.5374 34.2661 90.8966 34.355C91.3157 34.4735 91.66 34.7106 91.9294 35.0661C92.1988 35.3921 92.3335 35.7772 92.3335 36.2217C92.3335 36.8439 92.1239 37.3624 91.7049 37.7772C91.3157 38.1624 90.8517 38.2958 90.3129 38.1772C89.9238 38.0883 89.5346 38.0439 89.1455 38.0439C88.457 38.0439 87.8882 38.2809 87.4392 38.755C86.9902 39.2291 86.7208 40.192 86.631 41.6439V46.0883C86.631 46.592 86.4364 47.0217 86.0473 47.3772C85.6881 47.7032 85.2391 47.8661 84.7002 47.8661Z" fill="#6B5000"/>
<path d="M73.526 47.9995C71.4905 47.9995 69.7692 47.4069 68.3623 46.2217C66.9854 45.0069 66.2969 43.3476 66.2969 41.2439C66.2969 39.0513 66.9704 37.3328 68.3174 36.0883C69.6944 34.8439 71.4156 34.2217 73.4811 34.2217C74.9479 34.2217 76.1602 34.4883 77.1181 35.0217C78.076 35.555 78.7944 36.2365 79.2734 37.0661C79.7523 37.8958 79.9918 38.7698 79.9918 39.6883C79.9918 41.2291 79.3033 41.9995 77.9263 41.9995H70.4727C70.2332 41.9995 70.1135 42.1476 70.1135 42.4439C70.1135 43.1254 70.4877 43.6735 71.236 44.0883C72.0143 44.4735 72.8824 44.6661 73.8403 44.6661C74.439 44.6661 75.0377 44.592 75.6363 44.4439C76.235 44.2661 76.7589 44.0143 77.2079 43.6883C77.5072 43.4809 77.8215 43.3772 78.1508 43.3772C78.5998 43.3772 78.974 43.5402 79.2734 43.8661C79.6026 44.192 79.7673 44.5772 79.7673 45.0217C79.7673 45.555 79.4829 46.0587 78.9141 46.5328C78.3753 46.9772 77.5821 47.3328 76.5344 47.5995C75.5166 47.8661 74.5138 47.9995 73.526 47.9995ZM75.8609 39.4217C75.9207 39.4217 75.9956 39.4069 76.0854 39.3772C76.2051 39.3476 76.265 39.2439 76.265 39.0661C76.265 38.6217 75.9806 38.2217 75.4118 37.8661C74.873 37.4809 74.1696 37.2883 73.3015 37.2883C72.3735 37.2883 71.6102 37.4958 71.0115 37.9106C70.4428 38.2958 70.1584 38.6958 70.1584 39.1106C70.1584 39.318 70.2781 39.4217 70.5176 39.4217H75.8609Z" fill="#6B5000"/>
<path d="M58.5183 47.9995C57.9794 47.9995 57.4706 47.8809 56.9916 47.6439C56.5127 47.4069 56.1684 47.0513 55.9589 46.5772L51.6035 36.7995C51.5137 36.5328 51.4688 36.2661 51.4688 35.9995C51.4688 35.4069 51.6783 34.9624 52.0974 34.6661C52.5164 34.3698 52.9954 34.2217 53.5342 34.2217C53.9533 34.2217 54.3125 34.3402 54.6118 34.5772C54.9411 34.7846 55.1656 35.0809 55.2854 35.4661L57.9345 42.6217C58.0842 43.0069 58.2938 43.1995 58.5632 43.1995C58.8026 43.1995 58.9972 43.0069 59.1469 42.6217L61.6164 35.4661C61.7661 35.0513 62.0056 34.7402 62.3349 34.5328C62.6641 34.3254 63.0234 34.2217 63.4125 34.2217C63.9214 34.2217 64.3704 34.3846 64.7595 34.7106C65.1786 35.0069 65.3882 35.4661 65.3882 36.0883C65.3882 36.2069 65.3882 36.3254 65.3882 36.4439C65.3882 36.5328 65.3582 36.6513 65.2984 36.7995L61.0776 46.5772C60.8681 47.0513 60.5238 47.4069 60.0449 47.6439C59.5959 47.8809 59.087 47.9995 58.5183 47.9995Z" fill="#6B5000"/>
<path d="M40.9186 47.5557C40.0505 47.5557 39.347 47.289 38.8082 46.7557C38.2694 46.2223 38 45.526 38 44.6668V32.3112C38 31.452 38.2544 30.7853 38.7633 30.3112C39.2722 29.8075 39.9457 29.5557 40.7839 29.5557H47.564C48.8212 29.5557 49.4498 30.1483 49.4498 31.3334C49.4498 31.8371 49.2702 32.2668 48.911 32.6223C48.5518 32.9483 48.1028 33.1112 47.564 33.1112H42.9391C42.3405 33.1112 42.0411 33.4075 42.0411 34.0001V35.7779C42.0411 36.3705 42.3405 36.6668 42.9391 36.6668H46.8905C47.4891 36.6668 47.9531 36.8297 48.2824 37.1557C48.6117 37.4816 48.7763 37.9112 48.7763 38.4446C48.7763 38.9186 48.5817 39.3334 48.1926 39.689C47.8334 40.0446 47.3993 40.2223 46.8905 40.2223H42.9391C42.3405 40.2223 42.0411 40.5186 42.0411 41.1112V43.0668C42.0411 43.6594 42.3405 43.9557 42.9391 43.9557H48.013C48.5817 43.9557 49.0308 44.1186 49.36 44.4446C49.7192 44.7705 49.8989 45.2149 49.8989 45.7779C49.8989 46.2816 49.7192 46.7112 49.36 47.0668C49.0008 47.3927 48.5518 47.5557 48.013 47.5557H40.9186Z" fill="#6B5000"/>
<defs>
<filter id="filter0_ii_1081_5980" x="7.92188" y="8.21891" width="34.9928" height="56.9392" filterUnits="userSpaceOnUse" color-interpolation-filters="sRGB">
<feFlood flood-opacity="0" result="BackgroundImageFix"/>
<feBlend mode="normal" in="SourceGraphic" in2="BackgroundImageFix" result="shape"/>
<feColorMatrix in="SourceAlpha" type="matrix" values="0 0 0 0 0 0 0 0 0 0 0 0 0 0 0 0 0 0 127 0" result="hardAlpha"/>
<feOffset dy="1.08"/>
<feGaussianBlur stdDeviation="1.26"/>
<feComposite in2="hardAlpha" operator="arithmetic" k2="-1" k3="1"/>
<feColorMatrix type="matrix" values="0 0 0 0 1 0 0 0 0 0.863333 0 0 0 0 0.4875 0 0 0 1 0"/>
<feBlend mode="normal" in2="shape" result="effect1_innerShadow_1081_5980"/>
<feColorMatrix in="SourceAlpha" type="matrix" values="0 0 0 0 0 0 0 0 0 0 0 0 0 0 0 0 0 0 127 0" result="hardAlpha"/>
<feOffset dx="0.36" dy="-2.16"/>
<feGaussianBlur stdDeviation="1.728"/>
<feComposite in2="hardAlpha" operator="arithmetic" k2="-1" k3="1"/>
<feColorMatrix type="matrix" values="0 0 0 0 0.663846 0 0 0 0 0.00737629 0 0 0 0 0.0511409 0 0 0 0.4 0"/>
<feBlend mode="normal" in2="effect1_innerShadow_1081_5980" result="effect2_innerShadow_1081_5980"/>
</filter>
<filter id="filter1_ii_1081_5980" x="27.3203" y="6.83797" width="37.1256" height="58.5835" filterUnits="userSpaceOnUse" color-interpolation-filters="sRGB">
<feFlood flood-opacity="0" result="BackgroundImageFix"/>
<feBlend mode="normal" in="SourceGraphic" in2="BackgroundImageFix" result="shape"/>
<feColorMatrix in="SourceAlpha" type="matrix" values="0 0 0 0 0 0 0 0 0 0 0 0 0 0 0 0 0 0 127 0" result="hardAlpha"/>
<feOffset dx="0.36" dy="-1.08"/>
<feGaussianBlur stdDeviation="3.51"/>
<feComposite in2="hardAlpha" operator="arithmetic" k2="-1" k3="1"/>
<feColorMatrix type="matrix" values="0 0 0 0 1 0 0 0 0 0.398889 0 0 0 0 0.248611 0 0 0 0.76 0"/>
<feBlend mode="normal" in2="shape" result="effect1_innerShadow_1081_5980"/>
<feColorMatrix in="SourceAlpha" type="matrix" values="0 0 0 0 0 0 0 0 0 0 0 0 0 0 0 0 0 0 127 0" result="hardAlpha"/>
<feOffset dy="1.44"/>
<feGaussianBlur stdDeviation="5.076"/>
<feComposite in2="hardAlpha" operator="arithmetic" k2="-1" k3="1"/>
<feColorMatrix type="matrix" values="0 0 0 0 1 0 0 0 0 0.902084 0 0 0 0 0.869445 0 0 0 0.99 0"/>
<feBlend mode="normal" in2="effect1_innerShadow_1081_5980" result="effect2_innerShadow_1081_5980"/>
</filter>
<filter id="filter2_ii_1081_5980" x="33.4922" y="18.6332" width="5.46094" height="7.33809" filterUnits="userSpaceOnUse" color-interpolation-filters="sRGB">
<feFlood flood-opacity="0" result="BackgroundImageFix"/>
<feBlend mode="normal" in="SourceGraphic" in2="BackgroundImageFix" result="shape"/>
<feColorMatrix in="SourceAlpha" type="matrix" values="0 0 0 0 0 0 0 0 0 0 0 0 0 0 0 0 0 0 127 0" result="hardAlpha"/>
<feOffset dy="1.44"/>
<feGaussianBlur stdDeviation="0.72"/>
<feComposite in2="hardAlpha" operator="arithmetic" k2="-1" k3="1"/>
<feColorMatrix type="matrix" values="0 0 0 0 0.997179 0 0 0 0 0.966294 0 0 0 0 0.68833 0 0 0 0.65 0"/>
<feBlend mode="normal" in2="shape" result="effect1_innerShadow_1081_5980"/>
<feColorMatrix in="SourceAlpha" type="matrix" values="0 0 0 0 0 0 0 0 0 0 0 0 0 0 0 0 0 0 127 0" result="hardAlpha"/>
<feOffset dy="-0.36"/>
<feGaussianBlur stdDeviation="0.72"/>
<feComposite in2="hardAlpha" operator="arithmetic" k2="-1" k3="1"/>
<feColorMatrix type="matrix" values="0 0 0 0 1 0 0 0 0 0.169445 0 0 0 0 0.169445 0 0 0 0.25 0"/>
<feBlend mode="normal" in2="effect1_innerShadow_1081_5980" result="effect2_innerShadow_1081_5980"/>
</filter>
<filter id="filter3_f_1081_5980" x="22.805" y="26.057" width="23.8822" height="42.3343" filterUnits="userSpaceOnUse" color-interpolation-filters="sRGB">
<feFlood flood-opacity="0" result="BackgroundImageFix"/>
<feBlend mode="normal" in="SourceGraphic" in2="BackgroundImageFix" result="shape"/>
<feGaussianBlur stdDeviation="2.16" result="effect1_foregroundBlur_1081_5980"/>
</filter>
<filter id="filter4_f_1081_5980" x="24.6253" y="30.3636" width="20.1713" height="33.8675" filterUnits="userSpaceOnUse" color-interpolation-filters="sRGB">
<feFlood flood-opacity="0" result="BackgroundImageFix"/>
<feBlend mode="normal" in="SourceGraphic" in2="BackgroundImageFix" result="shape"/>
<feGaussianBlur stdDeviation="2.16" result="effect1_foregroundBlur_1081_5980"/>
</filter>
</defs>
</svg>
