<svg width="94" height="94" viewBox="0 0 94 94" fill="none" xmlns="http://www.w3.org/2000/svg">
<path d="M47.9111 59.3955L53.4692 54.6683L72.1734 76.6599L66.6153 81.3871L47.9111 59.3955Z" fill="#E8E8E8"/>
<path fill-rule="evenodd" clip-rule="evenodd" d="M52.2207 61.0543C61.0725 53.5257 62.1452 40.2468 54.6166 31.395C47.088 22.5432 33.8091 21.4705 24.9573 28.9991C16.1055 36.5277 15.0328 49.8067 22.5614 58.6585C30.09 67.5103 43.3689 68.5829 52.2207 61.0543ZM45.1743 59.0844C52.9027 55.4177 56.1953 46.1802 52.5286 38.4518C48.862 30.7234 39.6244 27.4308 31.8961 31.0974C24.1677 34.7641 20.875 44.0016 24.5417 51.73C28.2084 59.4584 37.4459 62.751 45.1743 59.0844Z" fill="#1E1E1E"/>
<path fill-rule="evenodd" clip-rule="evenodd" d="M65.3339 10.4561L21.7783 10.4561L21.7783 31.3627L40.5385 31.3627L43.5561 36.5894L46.5737 31.3627L65.3339 31.3627V10.4561Z" fill="#FFB500"/>
<path d="M34.8448 20.9092C34.8448 21.8714 34.0648 22.6514 33.1026 22.6514C32.1404 22.6514 31.3604 21.8714 31.3604 20.9092C31.3604 19.947 32.1404 19.167 33.1026 19.167C34.0648 19.167 34.8448 19.947 34.8448 20.9092Z" fill="white"/>
<path d="M45.2979 20.9092C45.2979 21.8714 44.5179 22.6514 43.5557 22.6514C42.5935 22.6514 41.8135 21.8714 41.8135 20.9092C41.8135 19.947 42.5935 19.167 43.5557 19.167C44.5179 19.167 45.2979 19.947 45.2979 20.9092Z" fill="white"/>
<path d="M55.752 20.9092C55.752 21.8714 54.972 22.6514 54.0098 22.6514C53.0476 22.6514 52.2676 21.8714 52.2676 20.9092C52.2676 19.947 53.0476 19.167 54.0098 19.167C54.972 19.167 55.752 19.947 55.752 20.9092Z" fill="white"/>
</svg>
