<svg width="120" height="96" viewBox="0 0 120 96" fill="none" xmlns="http://www.w3.org/2000/svg">
<path d="M38.0716 28.5571C38.1602 28.1586 38.5137 27.875 38.922 27.875L81.0925 27.875C81.4951 27.875 81.8452 28.1508 81.9394 28.5422L92.8444 73.84C92.9763 74.3879 92.5611 74.915 91.9975 74.915H28.8558C28.2985 74.915 27.8846 74.3989 28.0055 73.8549L38.0716 28.5571Z" fill="#FFB500"/>
<path d="M57.6539 48.9118C57.7529 48.5269 58.1 48.2578 58.4975 48.2578H63.2446C63.6421 48.2578 63.9892 48.5269 64.0882 48.9118L66.6888 59.0167C66.8306 59.5679 66.4144 60.1049 65.8451 60.1049H55.897C55.3277 60.1049 54.9115 59.5679 55.0533 59.0167L57.6539 48.9118Z" fill="#E8E8E8"/>
<path d="M65.533 47.2134C65.533 49.7151 63.4453 51.7431 60.87 51.7431C58.2947 51.7431 56.207 49.7151 56.207 47.2134C56.207 44.7116 58.2947 42.6836 60.87 42.6836C63.4453 42.6836 65.533 44.7116 65.533 47.2134Z" fill="#E8E8E8"/>
<path fill-rule="evenodd" clip-rule="evenodd" d="M42.5781 11.3242L77.4226 11.3242V34.8442L72.1959 34.8442V16.5509L47.8048 16.5509V31.8576H42.5781V11.3242Z" fill="#FFB500"/>
</svg>
