<svg width="120" height="102" viewBox="0 0 120 102" fill="none" xmlns="http://www.w3.org/2000/svg">
<path d="M58.9832 9.32555L34.3685 68.4874C34.1298 69.0611 34.5514 69.6931 35.1728 69.6931H84.8191C85.4427 69.6931 85.8643 69.0569 85.6213 68.4826L60.5897 9.32074C60.2888 8.60953 59.2798 8.61255 58.9832 9.32555Z" fill="#E8E8E8"/>
<path fill-rule="evenodd" clip-rule="evenodd" d="M51.6547 27.0478L46.5305 39.5492L69.6106 31.0225L65.7787 21.8299L51.6547 27.0478ZM62.0954 12.9935L60.5466 9.27813C60.2478 8.56124 59.2311 8.56426 58.9366 9.28291L56.5805 15.0309L62.0954 12.9935ZM73.294 39.8589L41.6047 51.5661L36.4805 64.0675L77.1259 49.0515L73.294 39.8589ZM80.8092 57.8879L49.0597 69.6174H84.3917C85.0134 69.6174 85.435 68.985 85.1958 68.4112L80.8092 57.8879Z" fill="#FFB500"/>
<path d="M93.1016 78.4043C93.1016 78.8854 92.7116 79.2754 92.2305 79.2754L28.6393 79.2754C28.1582 79.2754 27.7682 78.8854 27.7682 78.4043L27.7682 69.6932C27.7682 69.2121 28.1582 68.8221 28.6393 68.8221L92.2305 68.8221C92.7116 68.8221 93.1016 69.2121 93.1016 69.6932L93.1016 78.4043Z" fill="#FFB500"/>
</svg>
