<svg width="91" height="94" viewBox="0 0 91 94" fill="none" xmlns="http://www.w3.org/2000/svg">
<path d="M23.5716 28.5571C23.6602 28.1586 24.0137 27.875 24.422 27.875L66.5925 27.875C66.9951 27.875 67.3452 28.1508 67.4394 28.5422L78.3444 73.84C78.4763 74.3879 78.0611 74.915 77.4975 74.915H14.3558C13.7985 74.915 13.3846 74.3989 13.5055 73.8549L23.5716 28.5571Z" fill="#1E1E1E"/>
<path d="M43.1519 48.9118C43.251 48.5269 43.598 48.2578 43.9955 48.2578H48.7427C49.1402 48.2578 49.4872 48.5269 49.5863 48.9118L52.1868 59.0167C52.3287 59.5679 51.9124 60.1049 51.3432 60.1049H41.395C40.8258 60.1049 40.4095 59.5679 40.5514 59.0167L43.1519 48.9118Z" fill="#E8E8E8"/>
<path d="M51.033 47.2134C51.033 49.7151 48.9453 51.7431 46.37 51.7431C43.7947 51.7431 41.707 49.7151 41.707 47.2134C41.707 44.7116 43.7947 42.6836 46.37 42.6836C48.9453 42.6836 51.033 44.7116 51.033 47.2134Z" fill="#E8E8E8"/>
<path fill-rule="evenodd" clip-rule="evenodd" d="M28.0781 7.83984L62.9226 7.83984V21.3421H57.6959V13.0665L33.3048 13.0665V28.3732H28.0781L28.0781 7.83984Z" fill="#1E1E1E"/>
<path fill-rule="evenodd" clip-rule="evenodd" d="M84.285 46.43C80.898 48.3855 76.5671 47.225 74.6116 43.838L70.4059 36.5534C68.4504 33.1664 69.6108 28.8355 72.9978 26.88C76.3848 24.9245 80.7158 26.085 82.6713 29.472L86.877 36.7566C88.8325 40.1436 87.672 44.4745 84.285 46.43ZM78.0161 41.8724C78.886 43.3792 80.8127 43.8954 82.3195 43.0255C83.8262 42.1556 84.3425 40.2289 83.4725 38.7221L79.2668 31.4376C78.3969 29.9308 76.4702 29.4145 74.9634 30.2845C73.4567 31.1544 72.9404 33.0811 73.8103 34.5878L78.0161 41.8724Z" fill="#FFBF00"/>
<path fill-rule="evenodd" clip-rule="evenodd" d="M51.2227 61.3711L44.2377 49.2729L71.6933 33.4214L73.6589 36.8259L49.6078 50.7118L54.6271 59.4055L51.2227 61.3711Z" fill="#FFBF00"/>
<path fill-rule="evenodd" clip-rule="evenodd" d="M60.8164 53.6113L55.0399 43.6062L57.5933 42.132L63.3698 52.1371L60.8164 53.6113Z" fill="#FFBF00"/>
<path d="M51.3203 54.6797L48.9084 50.5021L57.7693 45.3862L60.1812 49.5638L51.3203 54.6797Z" fill="#FFBF00"/>
<path fill-rule="evenodd" clip-rule="evenodd" d="M50.2509 50.8618L51.68 53.3372L58.8387 49.2041L57.4096 46.7287L50.2509 50.8618ZM51.3203 54.6797L60.1812 49.5638L57.7693 45.3862L48.9084 50.5021L51.3203 54.6797Z" fill="#FFBF00"/>
</svg>
