<svg width="31" height="30" viewBox="0 0 31 30" fill="none" xmlns="http://www.w3.org/2000/svg">
<path fill-rule="evenodd" clip-rule="evenodd" d="M3 7.5C3 6.50544 3.39509 5.55161 4.09835 4.84835C4.80161 4.14509 5.75544 3.75 6.75 3.75H24.25C25.2446 3.75 26.1984 4.14509 26.9017 4.84835C27.6049 5.55161 28 6.50544 28 7.5V22.5C28 23.4946 27.6049 24.4484 26.9017 25.1517C26.1984 25.8549 25.2446 26.25 24.25 26.25H6.75C5.75544 26.25 4.80161 25.8549 4.09835 25.1517C3.39509 24.4484 3 23.4946 3 22.5V7.5ZM6.75 6.25C6.41848 6.25 6.10054 6.3817 5.86612 6.61612C5.6317 6.85054 5.5 7.16848 5.5 7.5V22.5C5.5 22.8315 5.6317 23.1495 5.86612 23.3839C6.10054 23.6183 6.41848 23.75 6.75 23.75H24.25C24.5815 23.75 24.8995 23.6183 25.1339 23.3839C25.3683 23.1495 25.5 22.8315 25.5 22.5V7.5C25.5 7.16848 25.3683 6.85054 25.1339 6.61612C24.8995 6.3817 24.5815 6.25 24.25 6.25H6.75ZM20.5 8.75C20.5 8.41848 20.6317 8.10054 20.8661 7.86612C21.1005 7.6317 21.4185 7.5 21.75 7.5H23C23.3315 7.5 23.6495 7.6317 23.8839 7.86612C24.1183 8.10054 24.25 8.41848 24.25 8.75C24.25 9.08152 24.1183 9.39946 23.8839 9.63388C23.6495 9.8683 23.3315 10 23 10H21.75C21.4185 10 21.1005 9.8683 20.8661 9.63388C20.6317 9.39946 20.5 9.08152 20.5 8.75ZM11.75 15C11.75 14.0054 12.1451 13.0516 12.8483 12.3483C13.5516 11.6451 14.5054 11.25 15.5 11.25C16.4946 11.25 17.4484 11.6451 18.1517 12.3483C18.8549 13.0516 19.25 14.0054 19.25 15C19.25 15.9946 18.8549 16.9484 18.1517 17.6517C17.4484 18.3549 16.4946 18.75 15.5 18.75C14.5054 18.75 13.5516 18.3549 12.8483 17.6517C12.1451 16.9484 11.75 15.9946 11.75 15ZM15.5 8.75C13.8424 8.75 12.2527 9.40848 11.0806 10.5806C9.90848 11.7527 9.25 13.3424 9.25 15C9.25 16.6576 9.90848 18.2473 11.0806 19.4194C12.2527 20.5915 13.8424 21.25 15.5 21.25C17.1576 21.25 18.7473 20.5915 19.9194 19.4194C21.0915 18.2473 21.75 16.6576 21.75 15C21.75 13.3424 21.0915 11.7527 19.9194 10.5806C18.7473 9.40848 17.1576 8.75 15.5 8.75Z" fill="#6A6967"/>
</svg>
