<svg width="194" height="77" viewBox="0 0 194 77" fill="none" xmlns="http://www.w3.org/2000/svg">
<g filter="url(#filter0_i_1070_14767)">
<path d="M12.9719 49.5328C4.55795 42.9435 3.61452 30.5533 10.9338 22.766C18.3018 14.9269 30.8278 15.1645 37.8933 23.2774L43.7589 30.0126C54.5694 42.4257 54.217 61.0104 42.9435 73.0047L12.9719 49.5328Z" fill="#FF515A"/>
<path d="M73.0281 49.4078C81.442 42.8185 82.3855 30.4283 75.0662 22.6411C67.6982 14.802 55.1722 15.0395 48.1067 23.1524L37.4578 35.38C29.3628 44.675 29.6268 58.5913 38.0684 67.5727L43.0565 72.8797L73.0281 49.4078Z" fill="#FFDA62"/>
<path d="M25.701 9.39818C25.701 12.8217 22.9257 15.597 19.5022 15.597C16.0787 15.597 13.3034 12.8217 13.3034 9.39818C13.3034 5.97468 16.0787 3.19938 19.5022 3.19938C22.9257 3.19938 25.701 5.97468 25.701 9.39818Z" fill="#FF515A"/>
<path d="M73.6917 7.1986C73.6917 11.1743 70.4688 14.3972 66.4931 14.3972C62.5174 14.3972 59.2945 11.1743 59.2945 7.1986C59.2945 3.22292 62.5174 0 66.4931 0C70.4688 0 73.6917 3.22292 73.6917 7.1986Z" fill="#FFDA62"/>
<path d="M46.8969 17.9965C46.8969 19.9843 45.2854 21.5958 43.2976 21.5958C41.3098 21.5958 39.6983 19.9843 39.6983 17.9965C39.6983 16.0087 41.3098 14.3972 43.2976 14.3972C45.2854 14.3972 46.8969 16.0087 46.8969 17.9965Z" fill="#FEA95B"/>
<g filter="url(#filter1_f_1070_14767)">
<path fill-rule="evenodd" clip-rule="evenodd" d="M42.6888 29.1943L37.201 35.4957C29.1061 44.7907 29.37 58.7069 37.8116 67.6883L42.7997 72.9954L42.814 72.9842C53.9627 60.9858 54.2719 42.4945 43.5022 30.1283L42.6888 29.1943Z" fill="#FEA95B"/>
</g>
</g>
<path d="M173.784 49.3906C171.629 49.3906 169.807 48.7568 168.318 47.4891C166.86 46.1898 166.131 44.4151 166.131 42.1651C166.131 39.8199 166.844 37.9819 168.27 36.6508C169.728 35.3198 171.55 34.6543 173.737 34.6543C175.29 34.6543 176.573 34.9395 177.587 35.51C178.601 36.0804 179.362 36.8093 179.869 37.6966C180.376 38.584 180.629 39.5189 180.629 40.5013C180.629 42.1492 179.901 42.9732 178.443 42.9732H170.552C170.298 42.9732 170.171 43.1316 170.171 43.4485C170.171 44.1774 170.568 44.7637 171.36 45.2074C172.184 45.6194 173.103 45.8254 174.117 45.8254C174.751 45.8254 175.385 45.7461 176.018 45.5877C176.652 45.3975 177.207 45.1282 177.682 44.7796C177.999 44.5577 178.332 44.4468 178.68 44.4468C179.156 44.4468 179.552 44.6211 179.869 44.9697C180.218 45.3183 180.392 45.7303 180.392 46.2057C180.392 46.7761 180.091 47.3148 179.489 47.8219C178.918 48.2973 178.078 48.6776 176.969 48.9628C175.892 49.248 174.83 49.3906 173.784 49.3906ZM176.256 40.2161C176.32 40.2161 176.399 40.2002 176.494 40.1685C176.621 40.1368 176.684 40.0259 176.684 39.8358C176.684 39.3604 176.383 38.9326 175.781 38.5523C175.21 38.1403 174.466 37.9343 173.547 37.9343C172.564 37.9343 171.756 38.1561 171.122 38.5998C170.52 39.0118 170.219 39.4396 170.219 39.8833C170.219 40.1051 170.346 40.2161 170.599 40.2161H176.256Z" fill="#6B5000"/>
<path d="M155.805 49.3914C153.682 49.3914 151.97 48.7259 150.671 47.3949C149.403 46.0322 148.77 44.2258 148.77 41.9757C148.77 39.7257 149.388 37.951 150.623 36.6516C151.891 35.3206 153.571 34.6551 155.662 34.6551C157.025 34.6551 158.245 35.1463 159.323 36.1287V29.9015C159.323 29.3627 159.513 28.919 159.893 28.5704C160.273 28.1901 160.765 28 161.367 28C162.001 28 162.508 28.1901 162.888 28.5704C163.3 28.919 163.506 29.3469 163.506 29.8539V47.5375C163.506 48.0762 163.3 48.5199 162.888 48.8685C162.508 49.2171 162.001 49.3914 161.367 49.3914C160.353 49.3914 159.703 48.9477 159.418 48.0604C158.435 48.9477 157.231 49.3914 155.805 49.3914ZM156.138 45.541C157.088 45.541 157.849 45.2082 158.419 44.5427C159.022 43.8455 159.323 42.9898 159.323 41.9757C159.323 40.9299 159.022 40.0901 158.419 39.4563C157.849 38.8225 157.088 38.5056 156.138 38.5056C155.155 38.5056 154.363 38.8225 153.761 39.4563C153.19 40.0901 152.905 40.9299 152.905 41.9757C152.905 42.9898 153.19 43.8455 153.761 44.5427C154.363 45.2082 155.155 45.541 156.138 45.541Z" fill="#6B5000"/>
<path d="M143.829 49.3914C143.227 49.3914 142.719 49.2171 142.307 48.8685C141.896 48.5199 141.69 48.0762 141.69 47.5375V36.7467C141.69 36.2397 141.88 35.8118 142.26 35.4632C142.672 35.0829 143.195 34.8928 143.829 34.8928C144.462 34.8928 144.954 35.0829 145.302 35.4632C145.683 35.8118 145.873 36.2555 145.873 36.7943V47.49C145.873 48.0287 145.667 48.4882 145.255 48.8685C144.874 49.2171 144.399 49.3914 143.829 49.3914ZM143.829 32.516C143.163 32.516 142.593 32.31 142.117 31.898C141.642 31.4543 141.404 30.8997 141.404 30.2342C141.404 29.6321 141.642 29.1092 142.117 28.6655C142.593 28.2218 143.163 28 143.829 28C144.462 28 145.001 28.2218 145.445 28.6655C145.92 29.1092 146.158 29.6321 146.158 30.2342C146.158 30.8997 145.92 31.4543 145.445 31.898C145.001 32.31 144.462 32.516 143.829 32.516Z" fill="#6B5000"/>
<path d="M133.876 36.6984C133.876 36.0962 134.066 35.605 134.446 35.2247C134.858 34.8444 135.365 34.6543 135.967 34.6543C136.57 34.6543 137.061 34.8603 137.441 35.2723C137.853 35.6526 138.059 36.1279 138.059 36.6984V43.401C138.059 44.7003 137.726 45.8095 137.061 46.7286C136.395 47.6159 135.54 48.2814 134.494 48.7251C133.448 49.1688 132.339 49.3906 131.166 49.3906C130.025 49.3906 128.932 49.1688 127.886 48.7251C126.84 48.2814 125.969 47.6159 125.272 46.7286C124.606 45.8095 124.273 44.7003 124.273 43.401V36.6984C124.273 36.0962 124.464 35.605 124.844 35.2247C125.256 34.8444 125.763 34.6543 126.365 34.6543C126.967 34.6543 127.458 34.8603 127.839 35.2723C128.251 35.6526 128.457 36.1279 128.457 36.6984V43.2109C128.457 43.8764 128.71 44.431 129.217 44.8746C129.724 45.3183 130.374 45.5402 131.166 45.5402C131.959 45.5402 132.608 45.3183 133.115 44.8746C133.622 44.431 133.876 43.8764 133.876 43.2109V36.6984Z" fill="#6B5000"/>
<path d="M111.964 49.3915C110.094 49.3915 108.399 48.9478 106.877 48.0605C105.356 47.1731 104.152 45.9689 103.265 44.4477C102.377 42.9265 101.934 41.1994 101.934 39.2662C101.934 37.3331 102.361 35.6217 103.217 34.1323C104.104 32.6111 105.325 31.4068 106.877 30.5195C108.43 29.6322 110.189 29.1885 112.154 29.1885C113.548 29.1885 114.8 29.3628 115.909 29.7114C117.05 30.06 118.096 30.6146 119.047 31.3752C119.554 31.7871 119.807 32.3259 119.807 32.9914C119.807 33.5301 119.617 33.9897 119.237 34.37C118.857 34.7502 118.397 34.9404 117.858 34.9404C117.51 34.9404 117.114 34.7978 116.67 34.5126C115.973 34.0689 115.26 33.7203 114.531 33.4668C113.802 33.1815 113.025 33.0389 112.201 33.0389C110.458 33.0389 109.017 33.6252 107.876 34.7978C106.766 35.9387 106.212 37.4281 106.212 39.2662C106.212 41.1677 106.751 42.6888 107.828 43.8297C108.906 44.9706 110.284 45.541 111.964 45.541C113.517 45.541 114.784 45.24 115.767 44.6378C116.781 44.004 117.288 43.1959 117.288 42.2135C117.288 41.9599 117.177 41.8332 116.955 41.8332H113.77C113.168 41.8332 112.677 41.6589 112.297 41.3103C111.948 40.9617 111.774 40.5022 111.774 39.9317C111.774 39.393 111.948 38.9493 112.297 38.6007C112.677 38.2521 113.168 38.0778 113.77 38.0778H118.999C119.855 38.0778 120.473 38.2838 120.853 38.6958C121.233 39.0761 121.424 39.7257 121.424 40.6448C121.424 43.3068 120.552 45.4301 118.809 47.0147C117.098 48.5992 114.816 49.3915 111.964 49.3915Z" fill="#6B5000"/>
<path d="M92.438 49.248C91.8358 49.248 91.3288 49.0737 90.9168 48.7251C90.5048 48.3765 90.2988 47.9328 90.2988 47.3941V36.7459C90.2988 36.2388 90.489 35.811 90.8693 35.4624C91.2812 35.0821 91.8042 34.892 92.438 34.892C93.0084 34.892 93.4679 35.0663 93.8165 35.4149C94.1968 35.7318 94.4187 36.1279 94.482 36.6033C94.8306 36.0645 95.306 35.605 95.9081 35.2247C96.5103 34.8444 97.1441 34.6543 97.8096 34.6543C98.2216 34.6543 98.6177 34.7018 98.998 34.7969C99.4417 34.9237 99.8061 35.1772 100.091 35.5575C100.377 35.9061 100.519 36.3181 100.519 36.7934C100.519 37.4589 100.297 38.0135 99.8537 38.4572C99.4417 38.8692 98.9505 39.0118 98.38 38.885C97.9681 38.79 97.5561 38.7424 97.1441 38.7424C96.4152 38.7424 95.8131 38.996 95.3377 39.503C94.8623 40.0101 94.5771 41.04 94.482 42.5929V47.3465C94.482 47.8853 94.276 48.3448 93.8641 48.7251C93.4838 49.0737 93.0084 49.248 92.438 49.248Z" fill="#6B5000"/>
<path d="M80.6143 49.3906C78.4593 49.3906 76.6371 48.7568 75.1476 47.4891C73.6898 46.1898 72.9609 44.4151 72.9609 42.1651C72.9609 39.8199 73.674 37.9819 75.1001 36.6508C76.5579 35.3198 78.3801 34.6543 80.5668 34.6543C82.1196 34.6543 83.4031 34.9395 84.4172 35.51C85.4313 36.0804 86.1919 36.8093 86.699 37.6966C87.206 38.584 87.4596 39.5189 87.4596 40.5013C87.4596 42.1492 86.7307 42.9732 85.2729 42.9732H77.3818C77.1283 42.9732 77.0015 43.1316 77.0015 43.4485C77.0015 44.1774 77.3977 44.7637 78.1899 45.2074C79.0139 45.6194 79.933 45.8254 80.9471 45.8254C81.5809 45.8254 82.2147 45.7461 82.8485 45.5877C83.4823 45.3975 84.0369 45.1282 84.5123 44.7796C84.8292 44.5577 85.162 44.4468 85.5106 44.4468C85.9859 44.4468 86.3821 44.6211 86.699 44.9697C87.0476 45.3183 87.2219 45.7303 87.2219 46.2057C87.2219 46.7761 86.9208 47.3148 86.3187 47.8219C85.7483 48.2973 84.9084 48.6776 83.7993 48.9628C82.7218 49.248 81.6601 49.3906 80.6143 49.3906ZM83.0862 40.2161C83.1496 40.2161 83.2288 40.2002 83.3239 40.1685C83.4507 40.1368 83.514 40.0259 83.514 39.8358C83.514 39.3604 83.213 38.9326 82.6108 38.5523C82.0404 38.1403 81.2957 37.9343 80.3766 37.9343C79.3942 37.9343 78.5861 38.1561 77.9523 38.5998C77.3501 39.0118 77.0491 39.4396 77.0491 39.8833C77.0491 40.1051 77.1758 40.2161 77.4294 40.2161H83.0862Z" fill="#6B5000"/>
<path d="M64.723 49.3906C64.1526 49.3906 63.6138 49.2638 63.1068 49.0103C62.5997 48.7568 62.2352 48.3765 62.0134 47.8694L57.4024 37.4114C57.3073 37.1262 57.2598 36.841 57.2598 36.5558C57.2598 35.9219 57.4816 35.4466 57.9253 35.1297C58.3689 34.8128 58.876 34.6543 59.4464 34.6543C59.8901 34.6543 60.2704 34.7811 60.5873 35.0346C60.9359 35.2564 61.1736 35.5733 61.3004 35.9853L64.105 43.6387C64.2635 44.0507 64.4853 44.2567 64.7705 44.2567C65.0241 44.2567 65.23 44.0507 65.3885 43.6387L68.003 35.9853C68.1615 35.5416 68.415 35.2089 68.7636 34.9871C69.1122 34.7652 69.4925 34.6543 69.9045 34.6543C70.4432 34.6543 70.9186 34.8286 71.3306 35.1772C71.7742 35.4941 71.9961 35.9853 71.9961 36.6508C71.9961 36.7776 71.9961 36.9044 71.9961 37.0311C71.9961 37.1262 71.9644 37.253 71.901 37.4114L67.4326 47.8694C67.2107 48.3765 66.8463 48.7568 66.3392 49.0103C65.8639 49.2638 65.3251 49.3906 64.723 49.3906Z" fill="#6B5000"/>
<path d="M46.0899 48.9154C45.1708 48.9154 44.4261 48.6301 43.8557 48.0597C43.2852 47.4893 43 46.7445 43 45.8255V32.6103C43 31.6913 43.2694 30.9783 43.8081 30.4712C44.3469 29.9325 45.0599 29.6631 45.9473 29.6631H53.1253C54.4563 29.6631 55.1218 30.2969 55.1218 31.5645C55.1218 32.1033 54.9317 32.5628 54.5514 32.9431C54.1711 33.2917 53.6957 33.466 53.1253 33.466H48.229C47.5952 33.466 47.2783 33.7829 47.2783 34.4167V36.3182C47.2783 36.952 47.5952 37.2689 48.229 37.2689H52.4122C53.046 37.2689 53.5373 37.4432 53.8859 37.7918C54.2345 38.1404 54.4088 38.5999 54.4088 39.1704C54.4088 39.6774 54.2028 40.1211 53.7908 40.5014C53.4105 40.8817 52.951 41.0718 52.4122 41.0718H48.229C47.5952 41.0718 47.2783 41.3888 47.2783 42.0226V44.1142C47.2783 44.748 47.5952 45.0649 48.229 45.0649H53.6006C54.2028 45.0649 54.6781 45.2392 55.0267 45.5878C55.407 45.9364 55.5972 46.4118 55.5972 47.0139C55.5972 47.5526 55.407 48.0122 55.0267 48.3925C54.6464 48.7411 54.1711 48.9154 53.6006 48.9154H46.0899Z" fill="#6B5000"/>
<defs>
<filter id="filter0_i_1070_14767" x="5.20016" y="-1.19977" width="74.7998" height="74.2047" filterUnits="userSpaceOnUse" color-interpolation-filters="sRGB">
<feFlood flood-opacity="0" result="BackgroundImageFix"/>
<feBlend mode="normal" in="SourceGraphic" in2="BackgroundImageFix" result="shape"/>
<feColorMatrix in="SourceAlpha" type="matrix" values="0 0 0 0 0 0 0 0 0 0 0 0 0 0 0 0 0 0 127 0" result="hardAlpha"/>
<feOffset dx="-0.799845" dy="-1.19977"/>
<feGaussianBlur stdDeviation="3.67929"/>
<feComposite in2="hardAlpha" operator="arithmetic" k2="-1" k3="1"/>
<feColorMatrix type="matrix" values="0 0 0 0 1 0 0 0 0 0 0 0 0 0 0.0166666 0 0 0 0.25 0"/>
<feBlend mode="normal" in2="shape" result="effect1_innerShadow_1070_14767"/>
</filter>
<filter id="filter1_f_1070_14767" x="27.8215" y="25.715" width="27.0387" height="50.7594" filterUnits="userSpaceOnUse" color-interpolation-filters="sRGB">
<feFlood flood-opacity="0" result="BackgroundImageFix"/>
<feBlend mode="normal" in="SourceGraphic" in2="BackgroundImageFix" result="shape"/>
<feGaussianBlur stdDeviation="1.73966" result="effect1_foregroundBlur_1070_14767"/>
</filter>
</defs>
</svg>
