<svg width="49" height="55" viewBox="0 0 49 55" fill="none" xmlns="http://www.w3.org/2000/svg">
<path fill-rule="evenodd" clip-rule="evenodd" d="M37.7748 20.2243C36.2483 16.7543 34.523 14.8099 31.2299 13.061C27.9098 11.2977 24.0924 10.7046 20.3938 11.3774C16.6952 12.0502 13.3312 13.9496 10.8447 16.7691C8.35819 19.5887 6.89428 23.1638 6.68922 26.9175L6.58316 28.859L2.70006 28.6469L2.80612 26.7053C3.05887 22.0787 4.86323 17.6722 7.92798 14.1969C10.9927 10.7217 15.1391 8.38056 19.6978 7.55131C24.2566 6.72205 28.9618 7.45308 33.054 9.62641C37.1733 11.8141 39.4814 14.4461 41.3345 18.6583L42.1175 20.4382L38.5578 22.0042L37.7748 20.2243Z" fill="#FFBF00"/>
<path fill-rule="evenodd" clip-rule="evenodd" d="M10.2254 34.2138C11.7564 37.6939 13.6436 39.8483 16.9277 41.5924C20.2478 43.3556 24.0652 43.9487 27.7638 43.2759C31.4624 42.6032 34.8264 40.7037 37.3129 37.8842C39.7994 35.0647 41.2633 31.4896 41.4684 27.7359L41.5745 25.7943L45.4576 26.0065L45.3515 27.948C45.0988 32.5747 43.2944 36.9812 40.2296 40.4564C37.1649 43.9316 33.0186 46.2728 28.4598 47.102C23.9011 47.9313 19.1959 47.2003 15.1036 45.0269C10.9753 42.8344 8.51444 39.982 6.66577 35.7798L5.88277 33.9999L9.44242 32.4339L10.2254 34.2138Z" fill="#FFBF00"/>
<path fill-rule="evenodd" clip-rule="evenodd" d="M44.0895 9.89002L42.7143 21.2648L40.3582 22.9287L28.9197 20.3622L29.7711 16.5677L39.1116 18.6634L40.2287 9.42325L44.0895 9.89002Z" fill="#FFBF00"/>
<path fill-rule="evenodd" clip-rule="evenodd" d="M4.0687 44.7623L5.44393 33.3875L7.80001 31.7237L19.2385 34.2901L18.3871 38.0847L9.04663 35.9889L7.92948 45.2291L4.0687 44.7623Z" fill="#FFBF00"/>
</svg>
