<svg width="40" height="38" viewBox="0 0 40 38" fill="none" xmlns="http://www.w3.org/2000/svg">
<rect width="40" height="38" rx="8" fill="#FBE300"/>
<g clip-path="url(#clip0_1239_30764)">
<path d="M31.2 5H8.8C7.2536 5 6 6.2536 6 7.8V30.2C6 31.7464 7.2536 33 8.8 33H31.2C32.7464 33 34 31.7464 34 30.2V7.8C34 6.2536 32.7464 5 31.2 5Z" fill="#FBE300"/>
<path fill-rule="evenodd" clip-rule="evenodd" d="M20.5 9.86145C15.253 9.86145 11 13.1749 11 17.2616C11 19.8031 12.645 22.0436 15.15 23.3763L14.096 27.2588C14.0029 27.6018 14.392 27.8753 14.6907 27.6765L19.3108 24.6017C19.7007 24.6396 20.0969 24.6617 20.5 24.6617C25.7466 24.6617 29.9999 21.3484 29.9999 17.2616C29.9999 13.1749 25.7466 9.86145 20.5 9.86145Z" fill="black"/>
</g>
<defs>
<clipPath id="clip0_1239_30764">
<rect width="28" height="28" fill="white" transform="translate(6 5)"/>
</clipPath>
</defs>
</svg>
