<svg width="208" height="44" viewBox="0 0 208 44" fill="none" xmlns="http://www.w3.org/2000/svg">
<mask id="path-1-inside-1_1239_31124" fill="white">
<path fill-rule="evenodd" clip-rule="evenodd" d="M16.8282 0C14.6191 0 12.8282 1.79086 12.8282 4V17.5337L0 24L12.8282 30.4663V40C12.8282 42.2091 14.6191 44 16.8282 44H204C206.209 44 208 42.2091 208 40V4C208 1.79086 206.209 0 204 0H16.8282Z"/>
</mask>
<path fill-rule="evenodd" clip-rule="evenodd" d="M16.8282 0C14.6191 0 12.8282 1.79086 12.8282 4V17.5337L0 24L12.8282 30.4663V40C12.8282 42.2091 14.6191 44 16.8282 44H204C206.209 44 208 42.2091 208 40V4C208 1.79086 206.209 0 204 0H16.8282Z" fill="#FDFDFD"/>
<path d="M12.8282 17.5337L13.2783 18.4266L13.8282 18.1495V17.5337H12.8282ZM0 24L-0.45012 23.107L-2.22163 24L-0.45012 24.893L0 24ZM12.8282 30.4663H13.8282V29.8505L13.2783 29.5734L12.8282 30.4663ZM13.8282 4C13.8282 2.34314 15.1713 1 16.8282 1V-1C14.0668 -1 11.8282 1.23857 11.8282 4H13.8282ZM13.8282 17.5337V4H11.8282V17.5337H13.8282ZM12.3781 16.6407L-0.45012 23.107L0.45012 24.893L13.2783 18.4266L12.3781 16.6407ZM-0.45012 24.893L12.3781 31.3593L13.2783 29.5734L0.45012 23.107L-0.45012 24.893ZM13.8282 40V30.4663H11.8282V40H13.8282ZM16.8282 43C15.1713 43 13.8282 41.6569 13.8282 40H11.8282C11.8282 42.7614 14.0668 45 16.8282 45V43ZM204 43H16.8282V45H204V43ZM207 40C207 41.6569 205.657 43 204 43V45C206.761 45 209 42.7614 209 40H207ZM207 4V40H209V4H207ZM204 1C205.657 1 207 2.34315 207 4H209C209 1.23858 206.761 -1 204 -1V1ZM16.8282 1H204V-1H16.8282V1Z" fill="#FFBF00" mask="url(#path-1-inside-1_1239_31124)"/>
<path d="M43.0303 23.374C43.0303 23.434 43.0003 23.5 42.9403 23.572C42.8803 23.632 42.8203 23.662 42.7603 23.662H35.9383V29.548C35.9383 29.716 35.8543 29.8 35.6863 29.8H34.1203C33.9523 29.8 33.8683 29.716 33.8683 29.548V23.662H27.0823C27.0103 23.662 26.9503 23.632 26.9023 23.572C26.8543 23.5 26.8303 23.434 26.8303 23.374V22.204C26.8303 22.132 26.8543 22.072 26.9023 22.024C26.9503 21.964 27.0103 21.934 27.0823 21.934H42.7603C42.8203 21.934 42.8803 21.964 42.9403 22.024C43.0003 22.084 43.0303 22.144 43.0303 22.204V23.374ZM29.0443 20.278C28.9603 20.302 28.8763 20.314 28.7923 20.314C28.7083 20.302 28.6483 20.266 28.6123 20.206L28.0003 19.054C27.9643 18.97 27.9643 18.892 28.0003 18.82C28.0363 18.736 28.1023 18.682 28.1983 18.658C29.0503 18.418 29.8123 18.136 30.4843 17.812C31.1683 17.488 31.7563 17.104 32.2483 16.66C32.7403 16.204 33.1303 15.688 33.4183 15.112C33.7063 14.524 33.8863 13.858 33.9583 13.114C33.9703 13.03 34.0003 12.958 34.0483 12.898C34.1083 12.826 34.1863 12.79 34.2823 12.79L35.7943 12.844C35.9623 12.844 36.0463 12.94 36.0463 13.132C36.0223 13.492 35.9863 13.822 35.9383 14.122C36.1063 14.614 36.3763 15.082 36.7483 15.526C37.1323 15.958 37.5763 16.36 38.0803 16.732C38.5963 17.092 39.1603 17.41 39.7723 17.686C40.3963 17.95 41.0323 18.16 41.6803 18.316C41.7643 18.34 41.8303 18.382 41.8783 18.442C41.9263 18.502 41.9323 18.574 41.8963 18.658L41.3563 19.846C41.2963 20.002 41.1703 20.062 40.9783 20.026C40.4023 19.918 39.8143 19.75 39.2143 19.522C38.6263 19.282 38.0683 19 37.5403 18.676C37.0123 18.352 36.5323 17.998 36.1003 17.614C35.6683 17.23 35.3203 16.828 35.0563 16.408C34.4803 17.332 33.6763 18.124 32.6443 18.784C31.6243 19.432 30.4243 19.93 29.0443 20.278ZM58.392 26.524C58.392 27.028 58.254 27.49 57.978 27.91C57.714 28.33 57.336 28.69 56.844 28.99C56.364 29.29 55.794 29.518 55.134 29.674C54.474 29.842 53.76 29.926 52.992 29.926C52.164 29.926 51.42 29.842 50.76 29.674C50.1 29.518 49.536 29.29 49.068 28.99C48.612 28.702 48.258 28.348 48.006 27.928C47.766 27.508 47.646 27.04 47.646 26.524C47.646 26.02 47.766 25.564 48.006 25.156C48.258 24.736 48.612 24.376 49.068 24.076C49.536 23.776 50.1 23.548 50.76 23.392C51.42 23.224 52.164 23.14 52.992 23.14C53.76 23.14 54.474 23.224 55.134 23.392C55.794 23.548 56.364 23.776 56.844 24.076C57.336 24.364 57.714 24.718 57.978 25.138C58.254 25.546 58.392 26.008 58.392 26.524ZM45.612 22.78C45.54 22.816 45.444 22.834 45.324 22.834C45.204 22.822 45.108 22.75 45.036 22.618L44.496 21.736C44.436 21.64 44.418 21.538 44.442 21.43C44.478 21.322 44.556 21.244 44.676 21.196C45.348 20.896 45.984 20.548 46.584 20.152C47.184 19.744 47.724 19.312 48.204 18.856C48.696 18.4 49.122 17.926 49.482 17.434C49.842 16.942 50.118 16.45 50.31 15.958C50.358 15.85 50.376 15.754 50.364 15.67C50.364 15.586 50.268 15.544 50.076 15.544H45.612C45.54 15.544 45.48 15.514 45.432 15.454C45.384 15.394 45.36 15.328 45.36 15.256V14.068C45.36 13.996 45.384 13.936 45.432 13.888C45.492 13.84 45.558 13.816 45.63 13.816H51.318C51.846 13.816 52.236 13.912 52.488 14.104C52.752 14.296 52.854 14.59 52.794 14.986C52.77 15.118 52.734 15.256 52.686 15.4C52.65 15.544 52.614 15.67 52.578 15.778C52.422 16.21 52.23 16.636 52.002 17.056C51.786 17.464 51.54 17.866 51.264 18.262C51.48 18.478 51.72 18.694 51.984 18.91C52.248 19.126 52.518 19.336 52.794 19.54C53.07 19.732 53.346 19.912 53.622 20.08C53.898 20.236 54.156 20.368 54.396 20.476C54.636 20.596 54.69 20.764 54.558 20.98L54 21.952C53.868 22.156 53.682 22.198 53.442 22.078C53.214 21.97 52.962 21.826 52.686 21.646C52.41 21.466 52.122 21.268 51.822 21.052C51.534 20.836 51.24 20.608 50.94 20.368C50.652 20.116 50.382 19.858 50.13 19.594C49.506 20.218 48.816 20.8 48.06 21.34C47.304 21.88 46.488 22.36 45.612 22.78ZM53.118 18.37V17.11C53.118 17.05 53.142 17.002 53.19 16.966C53.25 16.918 53.31 16.894 53.37 16.894H56.196V13.078C56.196 12.922 56.274 12.844 56.43 12.844H58.032C58.188 12.844 58.266 12.922 58.266 13.078V22.636C58.266 22.804 58.188 22.888 58.032 22.888H56.43C56.274 22.888 56.196 22.804 56.196 22.636V18.586H53.37C53.31 18.586 53.25 18.568 53.19 18.532C53.142 18.484 53.118 18.43 53.118 18.37ZM56.25 26.578C56.25 26.278 56.16 26.02 55.98 25.804C55.812 25.576 55.578 25.39 55.278 25.246C54.978 25.09 54.63 24.976 54.234 24.904C53.85 24.82 53.436 24.778 52.992 24.778C52.032 24.778 51.252 24.928 50.652 25.228C50.064 25.528 49.77 25.978 49.77 26.578C49.77 26.866 49.848 27.118 50.004 27.334C50.172 27.538 50.394 27.712 50.67 27.856C50.958 28 51.3 28.108 51.696 28.18C52.092 28.252 52.524 28.288 52.992 28.288C53.436 28.288 53.85 28.252 54.234 28.18C54.63 28.108 54.978 28 55.278 27.856C55.578 27.712 55.812 27.538 55.98 27.334C56.16 27.118 56.25 26.866 56.25 26.578ZM75.1758 29.692C75.1758 29.848 75.0978 29.926 74.9418 29.926H73.3398C73.1838 29.926 73.1058 29.848 73.1058 29.692V13.078C73.1058 12.922 73.1838 12.844 73.3398 12.844H74.9418C75.0978 12.844 75.1758 12.922 75.1758 13.078V29.692ZM68.6778 19.846C68.6778 19.294 68.6238 18.772 68.5158 18.28C68.4078 17.776 68.2518 17.338 68.0478 16.966C67.8438 16.594 67.5918 16.3 67.2918 16.084C67.0038 15.868 66.6678 15.76 66.2838 15.76C65.8998 15.76 65.5578 15.868 65.2578 16.084C64.9698 16.3 64.7238 16.594 64.5198 16.966C64.3158 17.338 64.1598 17.776 64.0518 18.28C63.9438 18.772 63.8898 19.294 63.8898 19.846C63.8898 20.386 63.9438 20.908 64.0518 21.412C64.1598 21.904 64.3158 22.342 64.5198 22.726C64.7238 23.098 64.9698 23.398 65.2578 23.626C65.5578 23.842 65.8998 23.95 66.2838 23.95C66.6678 23.95 67.0038 23.842 67.2918 23.626C67.5918 23.398 67.8438 23.098 68.0478 22.726C68.2518 22.342 68.4078 21.904 68.5158 21.412C68.6238 20.908 68.6778 20.386 68.6778 19.846ZM66.2838 25.786C65.5998 25.786 64.9818 25.642 64.4298 25.354C63.8778 25.066 63.4098 24.664 63.0258 24.148C62.6538 23.62 62.3658 22.99 62.1618 22.258C61.9578 21.526 61.8558 20.722 61.8558 19.846C61.8558 18.946 61.9578 18.13 62.1618 17.398C62.3658 16.666 62.6538 16.048 63.0258 15.544C63.4098 15.028 63.8778 14.632 64.4298 14.356C64.9818 14.068 65.5998 13.924 66.2838 13.924C66.9798 13.924 67.5978 14.068 68.1378 14.356C68.6898 14.632 69.1518 15.028 69.5238 15.544C69.9078 16.048 70.2018 16.666 70.4058 17.398C70.6098 18.13 70.7118 18.946 70.7118 19.846C70.7118 20.746 70.6098 21.562 70.4058 22.294C70.2018 23.026 69.9078 23.65 69.5238 24.166C69.1518 24.682 68.6898 25.084 68.1378 25.372C67.5978 25.648 66.9798 25.786 66.2838 25.786ZM88.2204 13.546C88.8084 13.546 89.3544 13.63 89.8584 13.798C90.3744 13.966 90.8184 14.2 91.1904 14.5C91.5744 14.8 91.8684 15.154 92.0724 15.562C92.2884 15.97 92.3964 16.414 92.3964 16.894C92.3964 17.314 92.3184 17.71 92.1624 18.082C92.0064 18.454 91.7904 18.79 91.5144 19.09C91.2384 19.378 90.9084 19.624 90.5244 19.828C90.1404 20.032 89.7204 20.176 89.2644 20.26V21.808C90.7284 21.736 92.0844 21.628 93.3324 21.484C93.3924 21.472 93.4524 21.478 93.5124 21.502C93.5844 21.526 93.6264 21.586 93.6384 21.682L93.7284 22.78C93.7404 22.864 93.7224 22.936 93.6744 22.996C93.6264 23.044 93.5724 23.074 93.5124 23.086C92.6844 23.182 91.8144 23.266 90.9024 23.338C89.9904 23.398 89.0784 23.446 88.1664 23.482C87.2664 23.518 86.3844 23.542 85.5204 23.554C84.6684 23.566 83.8764 23.56 83.1444 23.536C83.0724 23.536 83.0124 23.506 82.9644 23.446C82.9164 23.386 82.8924 23.32 82.8924 23.248V22.096C82.8924 21.928 82.9764 21.844 83.1444 21.844C83.8044 21.868 84.4764 21.886 85.1604 21.898C85.8444 21.898 86.5464 21.886 87.2664 21.862V20.278C86.7984 20.194 86.3664 20.056 85.9704 19.864C85.5864 19.66 85.2504 19.414 84.9624 19.126C84.6744 18.826 84.4524 18.49 84.2964 18.118C84.1404 17.734 84.0624 17.326 84.0624 16.894C84.0624 16.414 84.1644 15.97 84.3684 15.562C84.5844 15.154 84.8784 14.8 85.2504 14.5C85.6224 14.2 86.0604 13.966 86.5644 13.798C87.0684 13.63 87.6204 13.546 88.2204 13.546ZM99.1104 20.62C99.1104 20.692 99.0804 20.752 99.0204 20.8C98.9724 20.848 98.9184 20.872 98.8584 20.872H96.5004V24.994C96.5004 25.15 96.4224 25.228 96.2664 25.228H94.6644C94.5084 25.228 94.4304 25.15 94.4304 24.994V13.078C94.4304 12.922 94.5084 12.844 94.6644 12.844H96.2664C96.4224 12.844 96.5004 12.922 96.5004 13.078V19.144H98.8584C98.9184 19.144 98.9724 19.168 99.0204 19.216C99.0804 19.252 99.1104 19.3 99.1104 19.36V20.62ZM97.1664 29.35C97.1664 29.422 97.1364 29.476 97.0764 29.512C97.0284 29.548 96.9684 29.566 96.8964 29.566H87.1404C86.6004 29.566 86.2344 29.47 86.0424 29.278C85.8504 29.086 85.7544 28.756 85.7544 28.288V25.03C85.7544 24.97 85.7784 24.916 85.8264 24.868C85.8864 24.808 85.9524 24.778 86.0244 24.778H87.5544C87.6264 24.778 87.6924 24.808 87.7524 24.868C87.8124 24.916 87.8424 24.97 87.8424 25.03V27.55C87.8424 27.67 87.8664 27.748 87.9144 27.784C87.9624 27.82 88.0464 27.838 88.1664 27.838H96.8964C96.9564 27.838 97.0164 27.862 97.0764 27.91C97.1364 27.946 97.1664 27.994 97.1664 28.054V29.35ZM88.2204 15.112C87.9324 15.112 87.6564 15.16 87.3924 15.256C87.1404 15.34 86.9124 15.46 86.7084 15.616C86.5044 15.772 86.3424 15.964 86.2224 16.192C86.1024 16.42 86.0424 16.666 86.0424 16.93C86.0424 17.206 86.1024 17.458 86.2224 17.686C86.3424 17.914 86.5044 18.112 86.7084 18.28C86.9124 18.436 87.1404 18.556 87.3924 18.64C87.6564 18.724 87.9324 18.766 88.2204 18.766C88.5084 18.766 88.7844 18.724 89.0484 18.64C89.3124 18.556 89.5464 18.436 89.7504 18.28C89.9544 18.112 90.1164 17.914 90.2364 17.686C90.3564 17.458 90.4164 17.206 90.4164 16.93C90.4164 16.666 90.3564 16.42 90.2364 16.192C90.1164 15.964 89.9544 15.772 89.7504 15.616C89.5464 15.46 89.3124 15.34 89.0484 15.256C88.7844 15.16 88.5084 15.112 88.2204 15.112ZM103.24 22.6C102.976 22.6 102.76 22.582 102.592 22.546C102.424 22.51 102.292 22.444 102.196 22.348C102.1 22.252 102.034 22.132 101.998 21.988C101.962 21.832 101.944 21.634 101.944 21.394V18.514C101.944 18.274 101.962 18.082 101.998 17.938C102.034 17.782 102.1 17.662 102.196 17.578C102.292 17.482 102.424 17.422 102.592 17.398C102.76 17.362 102.976 17.344 103.24 17.344H111.124C111.244 17.344 111.316 17.332 111.34 17.308C111.376 17.272 111.394 17.188 111.394 17.056V15.67C111.394 15.538 111.376 15.466 111.34 15.454C111.316 15.43 111.244 15.418 111.124 15.418H102.25C102.19 15.418 102.136 15.394 102.088 15.346C102.04 15.286 102.016 15.226 102.016 15.166V13.96C102.016 13.9 102.04 13.846 102.088 13.798C102.136 13.75 102.19 13.726 102.25 13.726H112.114C112.618 13.726 112.96 13.81 113.14 13.978C113.32 14.134 113.41 14.446 113.41 14.914V17.812C113.41 18.28 113.32 18.598 113.14 18.766C112.96 18.922 112.618 19 112.114 19H104.212C104.092 19 104.02 19.012 103.996 19.036C103.972 19.06 103.96 19.132 103.96 19.252V20.656C103.96 20.788 103.972 20.872 103.996 20.908C104.032 20.932 104.11 20.944 104.23 20.944H113.554C113.614 20.944 113.668 20.968 113.716 21.016C113.776 21.052 113.806 21.1 113.806 21.16V22.366C113.806 22.426 113.776 22.48 113.716 22.528C113.656 22.576 113.602 22.6 113.554 22.6H111.214V25.318H115.516C115.576 25.318 115.636 25.354 115.696 25.426C115.756 25.486 115.786 25.546 115.786 25.606V26.74C115.786 26.8 115.756 26.86 115.696 26.92C115.636 26.98 115.576 27.01 115.516 27.01H99.8381C99.7661 27.01 99.7061 26.98 99.6581 26.92C99.6101 26.86 99.5861 26.8 99.5861 26.74V25.606C99.5861 25.534 99.6101 25.468 99.6581 25.408C99.7061 25.348 99.7661 25.318 99.8381 25.318H104.14V22.6H103.24ZM109.18 25.318V22.6H106.174V25.318H109.18ZM116.766 25.138C116.766 24.97 116.856 24.886 117.036 24.886C118.452 24.922 119.946 24.904 121.518 24.832V21.628H119.43C118.95 21.628 118.602 21.514 118.386 21.286C118.17 21.046 118.062 20.716 118.062 20.296V15.67C118.062 15.214 118.164 14.89 118.368 14.698C118.572 14.506 118.902 14.41 119.358 14.41H126.468C126.54 14.41 126.6 14.44 126.648 14.5C126.696 14.548 126.72 14.602 126.72 14.662V15.886C126.72 16.042 126.636 16.12 126.468 16.12H120.456C120.348 16.12 120.264 16.144 120.204 16.192C120.156 16.228 120.132 16.312 120.132 16.444V19.612C120.132 19.732 120.15 19.816 120.186 19.864C120.234 19.9 120.324 19.918 120.456 19.918H126.54C126.744 19.918 126.846 20.002 126.846 20.17V21.34C126.846 21.532 126.744 21.628 126.54 21.628H123.534V24.724C124.302 24.676 125.046 24.616 125.766 24.544C126.486 24.472 127.152 24.394 127.764 24.31C127.824 24.298 127.89 24.304 127.962 24.328C128.046 24.34 128.094 24.394 128.106 24.49L128.214 25.678C128.226 25.774 128.202 25.846 128.142 25.894C128.094 25.942 128.04 25.972 127.98 25.984C127.308 26.08 126.522 26.176 125.622 26.272C124.722 26.356 123.774 26.428 122.778 26.488C121.794 26.548 120.804 26.596 119.808 26.632C118.812 26.656 117.888 26.662 117.036 26.65C116.856 26.65 116.766 26.554 116.766 26.362V25.138ZM131.022 29.728C131.022 29.884 130.938 29.962 130.77 29.962H129.186C129.126 29.962 129.066 29.938 129.006 29.89C128.958 29.854 128.934 29.8 128.934 29.728V13.078C128.934 13.018 128.958 12.964 129.006 12.916C129.066 12.868 129.126 12.844 129.186 12.844H130.77C130.938 12.844 131.022 12.922 131.022 13.078V29.728ZM147.932 22.15C147.932 22.306 147.854 22.384 147.698 22.384H146.096C145.94 22.384 145.862 22.306 145.862 22.15V18.496H143.126C143.03 18.988 142.856 19.432 142.604 19.828C142.364 20.224 142.052 20.566 141.668 20.854C141.296 21.142 140.864 21.364 140.372 21.52C139.892 21.676 139.37 21.754 138.806 21.754C138.158 21.754 137.57 21.652 137.042 21.448C136.514 21.244 136.058 20.956 135.674 20.584C135.302 20.212 135.008 19.774 134.792 19.27C134.588 18.766 134.486 18.214 134.486 17.614C134.486 17.038 134.588 16.498 134.792 15.994C135.008 15.478 135.302 15.034 135.674 14.662C136.058 14.278 136.514 13.978 137.042 13.762C137.57 13.546 138.158 13.438 138.806 13.438C139.37 13.438 139.892 13.522 140.372 13.69C140.864 13.858 141.296 14.092 141.668 14.392C142.052 14.692 142.364 15.046 142.604 15.454C142.856 15.862 143.03 16.3 143.126 16.768H145.862V13.078C145.862 12.922 145.94 12.844 146.096 12.844H147.698C147.854 12.844 147.932 12.922 147.932 13.078V22.15ZM136.79 29.908C136.694 29.968 136.598 30.004 136.502 30.016C136.418 30.04 136.34 29.998 136.268 29.89L135.566 28.918C135.506 28.846 135.476 28.774 135.476 28.702C135.488 28.63 135.56 28.558 135.692 28.486C136.748 27.91 137.516 27.19 137.996 26.326C138.476 25.462 138.716 24.502 138.716 23.446C138.716 23.266 138.794 23.176 138.95 23.176L140.372 23.194C140.54 23.194 140.624 23.26 140.624 23.392C140.624 23.596 140.618 23.794 140.606 23.986C140.594 24.178 140.576 24.364 140.552 24.544C140.6 24.892 140.69 25.228 140.822 25.552C140.966 25.864 141.122 26.158 141.29 26.434C141.47 26.71 141.662 26.956 141.866 27.172C142.07 27.388 142.274 27.562 142.478 27.694C142.574 27.754 142.658 27.796 142.73 27.82C142.802 27.832 142.892 27.79 143 27.694C143.648 27.202 144.128 26.596 144.44 25.876C144.752 25.144 144.908 24.334 144.908 23.446C144.908 23.266 144.986 23.176 145.142 23.176L146.564 23.194C146.636 23.194 146.696 23.212 146.744 23.248C146.804 23.272 146.834 23.32 146.834 23.392C146.834 23.608 146.822 23.812 146.798 24.004C146.786 24.196 146.768 24.388 146.744 24.58C146.828 25 146.966 25.402 147.158 25.786C147.362 26.17 147.596 26.524 147.86 26.848C148.136 27.172 148.43 27.46 148.742 27.712C149.066 27.964 149.396 28.174 149.732 28.342C149.828 28.402 149.882 28.468 149.894 28.54C149.906 28.624 149.888 28.696 149.84 28.756L149.138 29.782C149.054 29.89 148.91 29.902 148.706 29.818C148.466 29.722 148.214 29.584 147.95 29.404C147.686 29.224 147.428 29.014 147.176 28.774C146.924 28.546 146.684 28.294 146.456 28.018C146.228 27.742 146.036 27.46 145.88 27.172C145.544 27.736 145.136 28.228 144.656 28.648C144.188 29.08 143.666 29.452 143.09 29.764C142.862 29.884 142.622 29.884 142.37 29.764C141.866 29.548 141.362 29.206 140.858 28.738C140.354 28.282 139.958 27.766 139.67 27.19C139.346 27.766 138.938 28.288 138.446 28.756C137.954 29.224 137.402 29.608 136.79 29.908ZM141.164 17.65C141.164 16.93 140.948 16.36 140.516 15.94C140.084 15.508 139.514 15.292 138.806 15.292C138.122 15.292 137.564 15.508 137.132 15.94C136.7 16.36 136.484 16.93 136.484 17.65C136.484 18.37 136.7 18.946 137.132 19.378C137.564 19.798 138.122 20.008 138.806 20.008C139.514 20.008 140.084 19.798 140.516 19.378C140.948 18.946 141.164 18.37 141.164 17.65ZM155.823 25.804C155.139 25.804 154.521 25.66 153.969 25.372C153.429 25.072 152.967 24.664 152.583 24.148C152.211 23.62 151.923 22.99 151.719 22.258C151.515 21.526 151.413 20.722 151.413 19.846C151.413 18.946 151.515 18.13 151.719 17.398C151.923 16.666 152.211 16.042 152.583 15.526C152.967 15.01 153.429 14.614 153.969 14.338C154.521 14.05 155.139 13.906 155.823 13.906C156.459 13.906 157.035 14.026 157.551 14.266C158.067 14.506 158.511 14.848 158.883 15.292C159.267 15.724 159.573 16.252 159.801 16.876C160.029 17.5 160.173 18.196 160.233 18.964H162.915V13.078C162.915 12.922 162.993 12.844 163.149 12.844H164.751C164.907 12.844 164.985 12.922 164.985 13.078V29.692C164.985 29.848 164.907 29.926 164.751 29.926H163.149C162.993 29.926 162.915 29.848 162.915 29.692V20.692H160.233C160.173 21.472 160.029 22.18 159.801 22.816C159.573 23.44 159.267 23.974 158.883 24.418C158.511 24.862 158.067 25.204 157.551 25.444C157.035 25.684 156.459 25.804 155.823 25.804ZM158.235 19.846C158.235 19.294 158.181 18.772 158.073 18.28C157.965 17.776 157.809 17.338 157.605 16.966C157.401 16.594 157.149 16.3 156.849 16.084C156.549 15.856 156.207 15.742 155.823 15.742C155.451 15.742 155.115 15.856 154.815 16.084C154.527 16.3 154.281 16.594 154.077 16.966C153.873 17.338 153.717 17.776 153.609 18.28C153.501 18.772 153.447 19.294 153.447 19.846C153.447 20.386 153.501 20.908 153.609 21.412C153.717 21.904 153.873 22.342 154.077 22.726C154.281 23.098 154.527 23.398 154.815 23.626C155.115 23.854 155.451 23.968 155.823 23.968C156.207 23.968 156.549 23.854 156.849 23.626C157.149 23.398 157.401 23.098 157.605 22.726C157.809 22.342 157.965 21.904 158.073 21.412C158.181 20.908 158.235 20.386 158.235 19.846ZM175.379 21.628C174.587 21.628 173.837 21.544 173.129 21.376C172.421 21.208 171.797 20.962 171.257 20.638C170.717 20.302 170.291 19.888 169.979 19.396C169.667 18.904 169.511 18.34 169.511 17.704C169.511 17.08 169.667 16.528 169.979 16.048C170.291 15.556 170.717 15.142 171.257 14.806C171.797 14.47 172.421 14.218 173.129 14.05C173.837 13.882 174.587 13.798 175.379 13.798C176.183 13.798 176.939 13.882 177.647 14.05C178.367 14.218 178.991 14.47 179.519 14.806C180.059 15.142 180.485 15.556 180.797 16.048C181.109 16.528 181.265 17.08 181.265 17.704C181.265 18.34 181.109 18.904 180.797 19.396C180.485 19.888 180.059 20.302 179.519 20.638C178.991 20.962 178.367 21.208 177.647 21.376C176.939 21.544 176.183 21.628 175.379 21.628ZM175.397 15.508C174.917 15.508 174.449 15.562 173.993 15.67C173.549 15.766 173.153 15.91 172.805 16.102C172.457 16.282 172.175 16.51 171.959 16.786C171.755 17.062 171.653 17.374 171.653 17.722C171.653 18.082 171.755 18.4 171.959 18.676C172.175 18.952 172.457 19.186 172.805 19.378C173.153 19.558 173.549 19.702 173.993 19.81C174.449 19.906 174.917 19.954 175.397 19.954C175.865 19.954 176.321 19.906 176.765 19.81C177.221 19.702 177.623 19.558 177.971 19.378C178.319 19.186 178.595 18.952 178.799 18.676C179.015 18.4 179.123 18.082 179.123 17.722C179.123 17.374 179.015 17.062 178.799 16.786C178.595 16.51 178.319 16.282 177.971 16.102C177.623 15.91 177.221 15.766 176.765 15.67C176.321 15.562 175.865 15.508 175.397 15.508ZM183.497 26.74C183.497 26.8 183.467 26.86 183.407 26.92C183.347 26.98 183.287 27.01 183.227 27.01H167.549C167.477 27.01 167.417 26.98 167.369 26.92C167.321 26.86 167.297 26.8 167.297 26.74V25.57C167.297 25.378 167.381 25.282 167.549 25.282H171.149V22.474C171.149 22.306 171.239 22.222 171.419 22.222H172.967C173.147 22.222 173.237 22.306 173.237 22.474V25.282H177.539V22.474C177.539 22.306 177.629 22.222 177.809 22.222H179.357C179.429 22.222 179.489 22.246 179.537 22.294C179.597 22.342 179.627 22.402 179.627 22.474V25.282H183.227C183.287 25.282 183.347 25.312 183.407 25.372C183.467 25.432 183.497 25.498 183.497 25.57V26.74ZM188.671 24.472C188.659 24.496 188.653 24.514 188.653 24.526C188.653 24.538 188.647 24.55 188.635 24.562C188.611 24.586 188.521 24.598 188.365 24.598H187.033C186.985 24.598 186.961 24.586 186.961 24.562C186.925 24.526 186.907 24.424 186.907 24.256L186.655 14.752C186.643 14.5 186.655 14.35 186.691 14.302C186.727 14.254 186.829 14.23 186.997 14.23H188.599C188.767 14.23 188.863 14.254 188.887 14.302C188.923 14.35 188.935 14.5 188.923 14.752L188.671 24.256V24.472ZM187.789 28.216C187.429 28.216 187.129 28.096 186.889 27.856C186.649 27.604 186.529 27.304 186.529 26.956C186.529 26.608 186.649 26.308 186.889 26.056C187.129 25.804 187.429 25.678 187.789 25.678C188.149 25.678 188.449 25.804 188.689 26.056C188.941 26.308 189.067 26.608 189.067 26.956C189.067 27.304 188.941 27.604 188.689 27.856C188.449 28.096 188.149 28.216 187.789 28.216Z" fill="#FFBF00"/>
</svg>
