<svg width="48" height="48" viewBox="0 0 48 48" fill="none" xmlns="http://www.w3.org/2000/svg">
<path fill-rule="evenodd" clip-rule="evenodd" d="M11 19.0472C11 11.8414 16.8414 6 24.0472 6C31.253 6 37.0945 11.8414 37.0945 19.0472V28.2341C37.0945 28.6089 37.1998 28.9762 37.3985 29.2941L39.2748 32.2962C40.1074 33.6283 39.1497 35.3562 37.5788 35.3562H10.0032C8.43233 35.3562 7.47464 33.6283 8.3072 32.2962L10.696 28.4742C10.8947 28.1563 11 27.789 11 27.4142V19.0472ZM23.8827 42.5333C21.0002 42.5333 18.4625 41.0574 16.9839 38.8201C16.257 37.7203 17.2077 36.4458 18.526 36.4458H29.2393C30.5576 36.4458 31.5083 37.7203 30.7814 38.8201C29.3029 41.0574 26.7651 42.5333 23.8827 42.5333Z" fill="#CBC9C5"/>
</svg>
