<svg width="60" height="60" viewBox="0 0 60 60" fill="none" xmlns="http://www.w3.org/2000/svg">
<path d="M37.8643 46.6656C37.8643 51.268 34.1333 54.9991 29.5308 54.9991C24.9283 54.9991 21.1973 51.268 21.1973 46.6656C21.1973 42.0631 24.9283 38.332 29.5308 38.332C34.1333 38.332 37.8643 42.0631 37.8643 46.6656Z" fill="#BBBBBB"/>
<path d="M6.71725 39.5945C6.90274 38.8525 7.56938 38.332 8.33415 38.332H50.7316C51.4963 38.332 52.163 38.8525 52.3485 39.5945L54.0151 46.2611C54.2781 47.3131 53.4825 48.332 52.3982 48.332H6.66749C5.5832 48.332 4.78761 47.3131 5.05058 46.2611L6.71725 39.5945Z" fill="#1E1E1E"/>
<path d="M14.3312 11.4374C14.4456 10.6134 15.1501 10 15.982 10H43.0796C43.9115 10 44.616 10.6134 44.7304 11.4374L48.4342 38.1041C48.5733 39.1061 47.795 40 46.7833 40H12.2783C11.2667 40 10.4883 39.1061 10.6275 38.1041L14.3312 11.4374Z" fill="#1E1E1E"/>
</svg>
