<svg width="40" height="40" viewBox="0 0 40 40" fill="none" xmlns="http://www.w3.org/2000/svg">
<g clip-path="url(#clip0_1081_3700)">
<path d="M30.8617 40H9.13833C4.10806 40 0 35.8826 0 30.8617V9.13833C0 4.11737 4.11737 0 9.13833 0H30.8617C35.8919 0 40 4.11737 40 9.13833V30.8617C40 35.8919 35.8919 40 30.8617 40Z" fill="white"/>
<path d="M29.5103 8.02051H10.3579C7.64718 8.02051 5.43945 10.2376 5.43945 12.939V24.844C5.43945 27.5547 7.6565 29.7625 10.3579 29.7625H17.1209L18.2853 31.7746L19.4311 33.7587C19.636 34.122 20.1577 34.122 20.3719 33.7587L21.5177 31.7746L22.6821 29.7625H29.5196C32.2303 29.7625 34.4381 27.5454 34.4381 24.844V12.9483C34.4381 10.2376 32.221 8.02051 29.5103 8.02051Z" fill="url(#paint0_linear_1081_3700)"/>
<path d="M21.2746 16.7395C19.7935 16.7395 18.5918 17.9225 18.5918 19.3851C18.5918 20.8476 19.7935 22.0306 21.2746 22.0306C22.7557 22.0306 23.9574 20.8476 23.9574 19.3851C23.9574 17.9225 22.7651 16.7395 21.2746 16.7395ZM21.2746 20.6519C20.5666 20.6519 19.9891 20.0837 19.9891 19.3851C19.9891 18.6864 20.5666 18.1182 21.2746 18.1182C21.9826 18.1182 22.5601 18.6864 22.5601 19.3851C22.5601 20.0837 21.9919 20.6519 21.2746 20.6519Z" fill="white"/>
<path d="M12.7892 16.7396C12.2116 16.7396 11.6714 16.9632 11.2522 17.3451V15.156H9.76172V21.9096H11.2522V21.4345C11.6714 21.8072 12.2023 22.04 12.7892 22.04C14.1213 22.04 15.2019 20.857 15.2019 19.3945C15.2019 17.932 14.1306 16.7396 12.7892 16.7396ZM12.4911 20.708C11.9415 20.708 11.4664 20.3819 11.2615 19.9068C11.1963 19.7485 11.1497 19.5715 11.1497 19.3852C11.1497 19.1989 11.187 19.0219 11.2615 18.8635C11.4664 18.3884 11.9415 18.0624 12.4911 18.0624C13.2363 18.0624 13.8325 18.6493 13.8325 19.3852C13.8325 20.1211 13.2363 20.708 12.4911 20.708Z" fill="white"/>
<path d="M28.6066 16.8515V17.2707C28.1874 16.9446 27.6657 16.749 27.1068 16.749C25.7374 16.749 24.6289 17.8948 24.6289 19.3014C24.6289 20.708 25.7374 21.8538 27.1068 21.8538C27.675 21.8538 28.1967 21.6582 28.6066 21.3322V22.0401C28.6066 22.0401 28.4575 22.7388 27.4142 22.7388V24.0522C27.4142 24.0522 28.5413 24.1827 29.5474 23.1766C29.5474 23.1766 30.0132 22.6829 30.1156 22.0308V16.8515H28.6066ZM27.3862 20.5963C26.6317 20.5963 26.0262 20.0094 26.0262 19.2921C26.0262 18.5748 26.641 17.988 27.3862 17.988C27.9172 17.988 28.383 18.2861 28.6066 18.7146C28.6997 18.8915 28.7463 19.0872 28.7463 19.2921C28.7463 19.497 28.6904 19.702 28.6066 19.8697C28.383 20.3075 27.9172 20.5963 27.3862 20.5963Z" fill="white"/>
<path d="M15.3691 15.0256V16.3763C15.3691 16.3763 16.0585 16.4694 16.1889 17.1401V21.9096H17.7259V17.1401V17.1029C17.6328 16.4322 17.2322 15.9291 17.2322 15.9291C16.3566 14.8951 15.3691 15.0256 15.3691 15.0256Z" fill="white"/>
</g>
<defs>
<linearGradient id="paint0_linear_1081_3700" x1="19.937" y1="34.0293" x2="19.937" y2="8.02312" gradientUnits="userSpaceOnUse">
<stop stop-color="#00D44D"/>
<stop offset="1" stop-color="#00E56D"/>
</linearGradient>
<clipPath id="clip0_1081_3700">
<rect width="40" height="40" fill="white"/>
</clipPath>
</defs>
</svg>
