<svg width="21" height="19" viewBox="0 0 21 19" fill="none" xmlns="http://www.w3.org/2000/svg">
<path d="M5.79601 3.87511e-09H14.4071C14.8683 -3.01926e-05 15.312 0.176419 15.6472 0.493151C15.9825 0.809883 16.1838 1.24289 16.2099 1.70333L16.2127 1.80556V3.33278L17.1849 3.33333C18.796 3.33333 20.1016 4.63889 20.1016 6.25V13.75C20.1016 14.2289 19.9113 14.6881 19.5727 15.0267C19.2341 15.3653 18.7749 15.5556 18.296 15.5556L16.2127 15.555V16.5278C16.2127 17.0066 16.0224 17.4659 15.6838 17.8045C15.3452 18.1431 14.886 18.3333 14.4071 18.3333H5.79601C5.31714 18.3333 4.85789 18.1431 4.51929 17.8045C4.18068 17.4659 3.99045 17.0066 3.99045 16.5278V15.555L1.90712 15.5556C1.42825 15.5556 0.969005 15.3653 0.630397 15.0267C0.29179 14.6881 0.101562 14.2289 0.101562 13.75V6.25C0.101562 4.63889 1.40712 3.33333 3.01823 3.33333L3.99045 3.33278V1.80556C3.99042 1.34437 4.16687 0.900651 4.4836 0.565427C4.80033 0.230204 5.23334 0.0288882 5.69379 0.00277785L5.79601 3.87511e-09ZM14.4071 11.3889H5.79601C5.6855 11.3889 5.57952 11.4328 5.50138 11.5109C5.42324 11.5891 5.37934 11.695 5.37934 11.8056V16.5278C5.37934 16.7578 5.56601 16.9444 5.79601 16.9444H14.4071C14.5176 16.9444 14.6236 16.9005 14.7017 16.8224C14.7799 16.7443 14.8238 16.6383 14.8238 16.5278V11.8056C14.8238 11.695 14.7799 11.5891 14.7017 11.5109C14.6236 11.4328 14.5176 11.3889 14.4071 11.3889ZM17.1849 4.72222H3.01823C2.61304 4.72222 2.22444 4.88318 1.93793 5.1697C1.65141 5.45621 1.49045 5.84481 1.49045 6.25V13.75C1.49045 13.98 1.67712 14.1667 1.90712 14.1667L3.99045 14.1661V11.8056C3.99045 11.3267 4.18068 10.8674 4.51929 10.5288C4.85789 10.1902 5.31714 10 5.79601 10H14.4071C14.886 10 15.3452 10.1902 15.6838 10.5288C16.0224 10.8674 16.2127 11.3267 16.2127 11.8056V14.1661L18.296 14.1667C18.4065 14.1667 18.5125 14.1228 18.5906 14.0446C18.6688 13.9665 18.7127 13.8605 18.7127 13.75V6.25C18.7127 5.84481 18.5517 5.45621 18.2652 5.1697C17.9787 4.88318 17.5901 4.72222 17.1849 4.72222ZM14.4071 1.38889H5.79601C5.69532 1.38889 5.59804 1.42536 5.52216 1.49154C5.44627 1.55772 5.39692 1.64914 5.38323 1.74889L5.37934 1.80556V3.33278H14.8238V1.80556C14.8238 1.70487 14.7873 1.60759 14.7211 1.53171C14.655 1.45582 14.5635 1.40647 14.4638 1.39278L14.4071 1.38889Z" fill="#8F8D8A"/>
</svg>
