<svg width="88" height="88" viewBox="0 0 88 88" fill="none" xmlns="http://www.w3.org/2000/svg">
<g clip-path="url(#clip0_708_19804)">
<path d="M9.64452 51.0904L31.4093 34.84L24.5679 59.8714C24.3927 60.5127 23.6582 60.8147 23.0824 60.4824L9.74419 52.7815C9.11324 52.4172 9.06073 51.5263 9.64452 51.0904Z" fill="#BBBBBB"/>
<path d="M54.2668 76.8509L57.4577 49.8768L39.2006 68.3173C38.7328 68.7897 38.8385 69.5769 39.4142 69.9092L52.7525 77.6101C53.3834 77.9744 54.1812 77.5744 54.2668 76.8509Z" fill="#BBBBBB"/>
<path d="M68.1385 36.0996L65.3072 8.61824C65.2365 7.93108 64.5144 7.51421 63.8839 7.79648L38.6811 19.0797C38.4453 19.1852 38.2587 19.3768 38.1593 19.6152L21.9353 58.5407C21.7391 59.0113 21.9228 59.5544 22.3643 59.8093L41.8827 71.0782C42.332 71.3376 42.9047 71.2161 43.2099 70.7967L67.9497 36.8004C68.0969 36.5981 68.1641 36.3485 68.1385 36.0996Z" fill="#1E1E1E"/>
<path d="M45.185 29.6535C43.5046 32.5641 44.5018 36.2859 47.4125 37.9664C50.3231 39.6468 54.0449 38.6496 55.7254 35.7389C57.4058 32.8283 56.4086 29.1065 53.4979 27.426C50.5873 25.7456 46.8655 26.7428 45.185 29.6535Z" fill="#FFB500"/>
<path fill-rule="evenodd" clip-rule="evenodd" d="M33.4488 66.2115L45.1127 46.0092C45.3927 45.5241 45.2265 44.9038 44.7414 44.6237L42.9847 43.6095C42.4996 43.3294 41.8793 43.4956 41.5992 43.9807L29.9354 64.1831L33.4488 66.2115Z" fill="#E8E8E8"/>
<path d="M21.7978 64.1695L37.4237 73.1911C38.1729 73.6237 38.0715 74.7353 37.2564 75.0251L23.5523 79.8979C22.9466 80.1133 22.2959 79.718 22.2078 79.0812L20.286 65.1868C20.1704 64.3508 21.0669 63.7475 21.7978 64.1695Z" fill="#FFB500"/>
</g>
<defs>
<clipPath id="clip0_708_19804">
<rect width="87.1111" height="87.1111" fill="white" transform="translate(0.444443 0.224609)"/>
</clipPath>
</defs>
</svg>
