<svg width="60" height="60" viewBox="0 0 60 60" fill="none" xmlns="http://www.w3.org/2000/svg">
<path fill-rule="evenodd" clip-rule="evenodd" d="M23.7493 9.58463C15.9253 9.58463 9.58268 15.9273 9.58268 23.7513C9.58268 31.5753 15.9253 37.918 23.7493 37.918C31.5734 37.918 37.916 31.5753 37.916 23.7513C37.916 15.9273 31.5734 9.58463 23.7493 9.58463ZM5.41602 23.7513C5.41602 13.6261 13.6241 5.41797 23.7493 5.41797C33.8746 5.41797 42.0827 13.6261 42.0827 23.7513C42.0827 33.8765 33.8746 42.0846 23.7493 42.0846C13.6241 42.0846 5.41602 33.8765 5.41602 23.7513Z" fill="#1E1E1E"/>
<path fill-rule="evenodd" clip-rule="evenodd" d="M37.501 34.5508L52.9472 49.9971L50.001 52.9433L34.5547 37.4971L37.501 34.5508Z" fill="#1E1E1E"/>
</svg>
