<svg width="29" height="30" viewBox="0 0 29 30" fill="none" xmlns="http://www.w3.org/2000/svg">
<path d="M15.5317 4.72957C15.4289 4.5462 15.2791 4.39353 15.0978 4.28727C14.9164 4.18101 14.71 4.125 14.4998 4.125C14.2896 4.125 14.0832 4.18101 13.9018 4.28727C13.7204 4.39353 13.5706 4.5462 13.4679 4.72957C13.2262 5.1694 12.9938 5.61487 12.7706 6.06598C12.0676 7.49297 11.4699 8.96946 10.9823 10.4836C10.8144 11.0044 10.3165 11.3657 9.74619 11.3814C8.01732 11.4269 6.29409 11.5985 4.59023 11.895C3.65498 12.0593 3.30335 13.1251 3.96794 13.7751C4.11938 13.9242 4.27244 14.0712 4.4271 14.2162C5.58355 15.3083 6.80629 16.3281 8.08835 17.2696C8.53181 17.5947 8.71427 18.1517 8.5451 18.6616C7.90069 20.5987 7.4395 22.5919 7.1676 24.6151C7.04677 25.5274 8.0231 26.1714 8.87135 25.7364C10.5534 24.874 12.1619 23.875 13.6805 22.7494C13.9184 22.5758 14.2053 22.4823 14.4998 22.4823C14.7943 22.4823 15.0811 22.5758 15.319 22.7494C16.8374 23.8754 18.4459 24.8745 20.1282 25.7364C20.9752 26.1714 21.9528 25.5274 21.8319 24.6151C21.7852 24.2727 21.7341 23.9324 21.6785 23.5941C21.3993 21.9206 20.9901 20.2715 20.4544 18.6616C20.2853 18.1517 20.4665 17.5947 20.9112 17.2696C22.3657 16.2039 23.7426 15.0361 25.0316 13.7751C25.6962 13.1251 25.3458 12.0593 24.4093 11.895C22.7057 11.5968 20.9823 11.4251 19.2534 11.3814C18.98 11.3771 18.7146 11.2885 18.4934 11.1279C18.2722 10.9672 18.1059 10.7423 18.0172 10.4836C17.3752 8.49071 16.5429 6.56299 15.5317 4.72957Z" fill="#CBC9C5"/>
</svg>
