<svg width="20" height="24" viewBox="0 0 20 24" fill="none" xmlns="http://www.w3.org/2000/svg">
<path d="M6.99993 11.7998C6.99993 12.5954 6.68386 13.3585 6.12126 13.9211C5.55866 14.4837 4.79561 14.7997 3.99997 14.7997C3.20433 14.7997 2.44127 14.4837 1.87867 13.9211C1.31607 13.3585 1 12.5954 1 11.7998C1 11.0041 1.31607 10.2411 1.87867 9.67847C2.44127 9.11587 3.20433 8.7998 3.99997 8.7998C4.79561 8.7998 5.55866 9.11587 6.12126 9.67847C6.68386 10.2411 6.99993 11.0041 6.99993 11.7998Z" stroke="#8F8D8A" stroke-width="1.5"/>
<path d="M12.9999 5.2002L7 9.40015M12.9999 18.4L7 14.2001" stroke="#8F8D8A" stroke-width="1.5" stroke-linecap="round"/>
<path d="M18.9999 19.5998C18.9999 20.3954 18.6839 21.1585 18.1213 21.7211C17.5587 22.2837 16.7956 22.5997 16 22.5997C15.2043 22.5997 14.4413 22.2837 13.8787 21.7211C13.3161 21.1585 13 20.3954 13 19.5998C13 18.8041 13.3161 18.0411 13.8787 17.4785C14.4413 16.9159 15.2043 16.5998 16 16.5998C16.7956 16.5998 17.5587 16.9159 18.1213 17.4785C18.6839 18.0411 18.9999 18.8041 18.9999 19.5998ZM18.9999 3.99997C18.9999 4.79561 18.6839 5.55866 18.1213 6.12126C17.5587 6.68386 16.7956 6.99993 16 6.99993C15.2043 6.99993 14.4413 6.68386 13.8787 6.12126C13.3161 5.55866 13 4.79561 13 3.99997C13 3.20432 13.3161 2.44127 13.8787 1.87867C14.4413 1.31607 15.2043 1 16 1C16.7956 1 17.5587 1.31607 18.1213 1.87867C18.6839 2.44127 18.9999 3.20432 18.9999 3.99997Z" stroke="#8F8D8A" stroke-width="1.5"/>
</svg>
