<svg width="60" height="60" viewBox="0 0 60 60" fill="none" xmlns="http://www.w3.org/2000/svg">
<path d="M4.79688 19.2016C4.79688 18.8702 5.0655 18.6016 5.39687 18.6016H54.5969C54.9282 18.6016 55.1969 18.8702 55.1969 19.2016V50.4016C55.1969 50.7329 54.9282 51.0016 54.5969 51.0016H5.39688C5.0655 51.0016 4.79688 50.7329 4.79688 50.4016V19.2016Z" fill="#E8E8E8"/>
<path d="M4.79688 12.0023C4.79688 11.671 5.0655 11.4023 5.39687 11.4023H54.5969C54.9282 11.4023 55.1969 11.671 55.1969 12.0023V18.6023H4.79688V12.0023Z" fill="#1E1E1E"/>
<path d="M10.7988 24.6C10.7988 24.2686 11.0675 24 11.3988 24H16.1988C16.5302 24 16.7988 24.2686 16.7988 24.6V30H10.7988V24.6Z" fill="#BBBBBB"/>
<path d="M21.5996 24.6C21.5996 24.2686 21.8682 24 22.1996 24H26.9996C27.331 24 27.5996 24.2686 27.5996 24.6V30H21.5996V24.6Z" fill="#BBBBBB"/>
<path d="M32.3984 24.6C32.3984 24.2686 32.6671 24 32.9984 24H37.7984C38.1298 24 38.3984 24.2686 38.3984 24.6V30H32.3984V24.6Z" fill="#BBBBBB"/>
<path d="M43.1992 24.6C43.1992 24.2686 43.4678 24 43.7992 24H48.5992C48.9306 24 49.1992 24.2686 49.1992 24.6V30H43.1992V24.6Z" fill="#BBBBBB"/>
<path d="M10.7988 35.4008C10.7988 35.0694 11.0675 34.8008 11.3988 34.8008H16.1988C16.5302 34.8008 16.7988 35.0694 16.7988 35.4008V40.8008H10.7988V35.4008Z" fill="#BBBBBB"/>
<path d="M21.5996 35.4008C21.5996 35.0694 21.8682 34.8008 22.1996 34.8008H26.9996C27.331 34.8008 27.5996 35.0694 27.5996 35.4008V40.8008H21.5996V35.4008Z" fill="#BBBBBB"/>
<path d="M32.3984 35.4008C32.3984 35.0694 32.6671 34.8008 32.9984 34.8008H37.7984C38.1298 34.8008 38.3984 35.0694 38.3984 35.4008V40.8008H32.3984V35.4008Z" fill="#BBBBBB"/>
<path d="M43.1992 35.4008C43.1992 35.0694 43.4678 34.8008 43.7992 34.8008H48.5992C48.9306 34.8008 49.1992 35.0694 49.1992 35.4008V40.8008H43.1992V35.4008Z" fill="#BBBBBB"/>
<path d="M13.7969 7.80312C13.7969 7.47175 14.0655 7.20312 14.3969 7.20312H16.7969C17.1282 7.20312 17.3969 7.47175 17.3969 7.80313V14.4031H13.7969V7.80312Z" fill="#BBBBBB"/>
<path d="M42.5957 7.80312C42.5957 7.47175 42.8643 7.20312 43.1957 7.20312H45.5957C45.9271 7.20312 46.1957 7.47175 46.1957 7.80313V14.4031H42.5957V7.80312Z" fill="#BBBBBB"/>
</svg>
