<svg width="88" height="88" viewBox="0 0 88 88" fill="none" xmlns="http://www.w3.org/2000/svg">
<path fill-rule="evenodd" clip-rule="evenodd" d="M73.5337 46.0485L40.4315 56.5018L38.8575 51.5178L71.9598 41.0645L73.5337 46.0485Z" fill="#FFB500"/>
<path fill-rule="evenodd" clip-rule="evenodd" d="M79.1609 16.4574L76.9831 23.4263L74.241 25.2484L68.8855 24.7383L70.9075 31.96L67.5646 35.1438L55.3243 31.0637V36.149H50.0977V27.4379L53.5374 24.9587L64.5471 28.6286L62.8256 22.4803L65.5899 19.1741L72.6266 19.8443L74.1722 14.8984L79.1609 16.4574Z" fill="#FFB500"/>
<path fill-rule="evenodd" clip-rule="evenodd" d="M14.3824 26.831L19.5322 24.0844L17.0726 19.4727L10.5393 22.9571L9.15576 25.263V32.6674L10.8219 35.1031L18.6619 38.152L20.5563 33.2807L14.3824 30.8797L14.3824 26.831Z" fill="#BBBBBB"/>
<path fill-rule="evenodd" clip-rule="evenodd" d="M30.9912 12.916L39.7023 21.1916L40.5157 23.0862L40.5157 47.4773H35.2891L35.2891 24.2082L27.3914 16.7053L30.9912 12.916Z" fill="#FFB500"/>
<path d="M58.2625 58.2542L29.7247 29.7164C29.2735 29.2652 28.5062 29.4363 28.2894 30.0365L12.3898 74.0662C12.1408 74.756 12.8034 75.426 13.4959 75.1846L57.9333 59.6927C58.5398 59.4812 58.7167 58.7084 58.2625 58.2542Z" fill="#FFB500"/>
<path fill-rule="evenodd" clip-rule="evenodd" d="M48.0795 15.107L45.4661 20.3336L40.7913 17.9962L43.4046 12.7695L48.0795 15.107Z" fill="#FFB500"/>
<path fill-rule="evenodd" clip-rule="evenodd" d="M67.2436 9.00931L64.6303 14.236L59.9554 11.8985L62.5688 6.67188L67.2436 9.00931Z" fill="#FFB500"/>
<path fill-rule="evenodd" clip-rule="evenodd" d="M29.7861 23.8179L27.1728 29.0446L22.4979 26.7071L25.1113 21.4805L29.7861 23.8179Z" fill="#FFB500"/>
<path fill-rule="evenodd" clip-rule="evenodd" d="M82.0526 38.6265L79.4393 43.8532L74.7644 41.5157L77.3777 36.2891L82.0526 38.6265Z" fill="#FFB500"/>
<path fill-rule="evenodd" clip-rule="evenodd" d="M81.1818 57.7906L78.5684 63.0172L73.8936 60.6798L76.5069 55.4531L81.1818 57.7906Z" fill="#BBBBBB"/>
<path fill-rule="evenodd" clip-rule="evenodd" d="M70.7281 56.9195L68.1148 62.1461L63.4399 59.8087L66.0533 54.582L70.7281 56.9195Z" fill="#FFB500"/>
</svg>
