<svg width="26" height="22" viewBox="0 0 26 22" fill="none" xmlns="http://www.w3.org/2000/svg">
<path fill-rule="evenodd" clip-rule="evenodd" d="M3 2H9C9.55228 2 10 2.44772 10 3V7C10 7.55228 9.55228 8 9 8H3C2.44772 8 2 7.55228 2 7V3C2 2.44772 2.44772 2 3 2ZM0 3C0 1.34315 1.34315 0 3 0H9C10.6569 0 12 1.34315 12 3V7C12 8.65685 10.6569 10 9 10H3C1.34315 10 0 8.65685 0 7V3ZM3 14H9C9.55228 14 10 14.4477 10 15V19C10 19.5523 9.55228 20 9 20H3C2.44772 20 2 19.5523 2 19V15C2 14.4477 2.44772 14 3 14ZM0 15C0 13.3431 1.34315 12 3 12H9C10.6569 12 12 13.3431 12 15V19C12 20.6569 10.6569 22 9 22H3C1.34315 22 0 20.6569 0 19V15ZM23 2H17C16.4477 2 16 2.44772 16 3V7C16 7.55228 16.4477 8 17 8H23C23.5523 8 24 7.55228 24 7V3C24 2.44772 23.5523 2 23 2ZM17 0C15.3431 0 14 1.34315 14 3V7C14 8.65685 15.3431 10 17 10H23C24.6569 10 26 8.65685 26 7V3C26 1.34315 24.6569 0 23 0H17ZM17 14H23C23.5523 14 24 14.4477 24 15V19C24 19.5523 23.5523 20 23 20H17C16.4477 20 16 19.5523 16 19V15C16 14.4477 16.4477 14 17 14ZM14 15C14 13.3431 15.3431 12 17 12H23C24.6569 12 26 13.3431 26 15V19C26 20.6569 24.6569 22 23 22H17C15.3431 22 14 20.6569 14 19V15Z" fill="#4E4C49"/>
</svg>
